<?xml version="1.0" standalone="no"?>
<!DOCTYPE svg PUBLIC "-//W3C//DTD SVG 1.1//EN" "http://www.w3.org/Graphics/SVG/1.1/DTD/svg11.dtd" >
<svg>
<metadata>
Created by FontForge 20090914 at Mon Jun  7 00:00:54 2021
 By www-data
copyright missing
</metadata>
<defs>
<font id="sbc-font-Regular" horiz-adv-x="607" >
  <font-face 
    font-family="sbc-font"
    font-weight="400"
    font-stretch="normal"
    units-per-em="1000"
    panose-1="0 0 5 0 0 0 0 0 0 0"
    ascent="790"
    descent="-210"
    x-height="499"
    cap-height="700"
    bbox="-317 -250.002 1381 969.002"
    underline-thickness="50"
    underline-position="-150"
    unicode-range="U+0020-U+FB02"
  />
<missing-glyph horiz-adv-x="500" 
d="M410 -210h-317v1000h317v-1000zM168 723v-33h65v-37h-66v-33h166v33h-66v37h66v33h-165zM167 594v-104h166v34h-66v70h-100zM233 524h-33v36h33v-36zM167 463v-33h66v-37h-66v-33h100v70h66v33h-166zM300 403v-66h-133v-34h166v100h-33zM233 281v-56h34v23h33v-47h-100
v80h-33v-113h166v113h-100zM167 108v-113h166v113h-166zM300 28h-100v47h100v-47zM167 -28v-33h70l-70 -47v-33h166v33h-102l70 47h32v33h-166z" />
    <glyph glyph-name="fi" unicode="fi" horiz-adv-x="581" 
d="M517 0h-77v429h-233v-429h-76v429h-105v70h105v66c0 56.667 15 100.5 45 131.5s74.333 46.5 133 46.5c62 0 115 -17.333 159 -52l-19 -65c-42.667 32 -87.334 48 -134.001 48c-35.333 0 -62.166 -9.5 -80.499 -28.5s-27.5 -46.5 -27.5 -82.5v-64h310v-499z" />
    <glyph glyph-name="fl" unicode="fl" horiz-adv-x="592" 
d="M310 743c79.333 0 148.332 -21.333 206.999 -64v-679h-77v641c-39.333 22 -81 33 -125 33c-35.333 0 -62.166 -9.5 -80.499 -28.5s-27.5 -46.5 -27.5 -82.5v-64h152v-70h-152v-429h-76v429h-105v70h105v66c0 56.667 15 100.5 45 131.5s74.667 46.5 134 46.5z" />
    <glyph glyph-name="f_f" unicode="ff" horiz-adv-x="709" 
d="M517 499h179v-70h-179v-429h-77v429h-233v-429h-76v429h-105v70h105v66c0 56.667 13.333 100.5 40 131.5s65.667 46.5 117 46.5c39.333 0 73 -7 101 -21l-20 -65c-22 11.333 -46.667 17 -74 17c-58.667 0 -88 -37 -88 -111v-64h233v66c0 56.667 13.333 100.5 40 131.5
s65.667 46.5 117 46.5c39.333 0 73 -7 101 -21l-19 -65c-22.667 11.333 -47.667 17 -75 17c-58 0 -87 -37 -87 -111v-64z" />
    <glyph glyph-name="f_f_i" unicode="ffi" horiz-adv-x="890" 
d="M826 0h-76.999v429h-232v-429h-77v429h-233v-429h-76v429h-105v70h105v66c0 56.667 14 100.5 42 131.5s69.667 46.5 125 46.5c39.333 0 73 -7 101 -21l-20 -65c-22 11.333 -46.667 17 -74 17c-32 0 -56.333 -9.5 -73 -28.5s-25 -46.5 -25 -82.5v-64h233v66
c0 56.667 15.167 100.5 45.5 131.5s74.833 46.5 133.5 46.5c61.333 0 114.333 -17.333 159 -52l-20 -65c-42.667 32 -87.334 48 -134.001 48c-71.333 0 -107 -37 -107 -111v-64h309v-499z" />
    <glyph glyph-name="f_f_l" unicode="ffl" horiz-adv-x="901" 
d="M619 743c79.333 0 148.335 -21.333 207.002 -64v-679h-77v641c-38.667 22 -80.334 33 -125.001 33c-71.333 0 -107 -37 -107 -111v-64h151v-70h-151v-429h-77v429h-233v-429h-76v429h-105v70h105v66c0 56.667 13.5 100.5 40.5 131.5s66.833 46.5 119.5 46.5
c38.667 0 72 -7 100 -21l-19 -65c-22.667 11.333 -47.334 17 -74.001 17c-60.667 0 -91 -37 -91 -111v-64h233v66c0 56.667 15.167 100.5 45.5 131.5s74.833 46.5 133.5 46.5z" />
    <glyph glyph-name=".notdef" horiz-adv-x="500" 
d="M410 -210h-317v1000h317v-1000zM168 723v-33h65v-37h-66v-33h166v33h-66v37h66v33h-165zM167 594v-104h166v34h-66v70h-100zM233 524h-33v36h33v-36zM167 463v-33h66v-37h-66v-33h100v70h66v33h-166zM300 403v-66h-133v-34h166v100h-33zM233 281v-56h34v23h33v-47h-100
v80h-33v-113h166v113h-100zM167 108v-113h166v113h-166zM300 28h-100v47h100v-47zM167 -28v-33h70l-70 -47v-33h166v33h-102l70 47h32v33h-166z" />
    <glyph glyph-name="space" unicode=" " horiz-adv-x="259" 
 />
    <glyph glyph-name="exclam" unicode="!" horiz-adv-x="249" 
d="M82 700h88l-12 -507h-63zM125 -7c-16 0 -29.333 5.33301 -40 16s-16 24 -16 40c0 15.333 5.33301 28.166 16 38.499s24 15.5 40 15.5s29.333 -5.16699 40 -15.5s16 -23.166 16 -38.499c0 -16 -5.33301 -29.333 -16 -40s-24 -16 -40 -16z" />
    <glyph glyph-name="quotedbl" unicode="&#x22;" horiz-adv-x="338" 
d="M55 700h82l-10 -206h-61zM201 700h82l-10 -206h-61z" />
    <glyph glyph-name="numbersign" unicode="#" horiz-adv-x="722" 
d="M528 414l-25 -157h146l-10 -65h-146l-30 -192h-70l30 192h-170l-30 -192h-70l30 192h-144l10 65h144l25 157h-145l10 64h145l31 197h70l-31 -197h170l31 197h70l-31 -197h145l-10 -64h-145zM458 414h-170l-25 -157h170z" />
    <glyph glyph-name="dollar" unicode="$" horiz-adv-x="646" 
d="M603 194c0 -55.333 -23.5 -102.998 -70.5 -142.998s-107.5 -61.333 -181.5 -64v-132h-68v136c-62.667 9.33301 -116.667 33.166 -162 71.499s-76.333 83.166 -93 134.499l76 23c16 -46.667 45 -85.167 87 -115.5s91.667 -45.5 149 -45.5c54 0 98.167 13.167 132.5 39.5
s51.5 56.833 51.5 91.5c0 27.333 -9.66699 50.166 -29 68.499s-52.666 34.833 -99.999 49.5l-174 56c-103.333 33.333 -155 88 -155 164c0 48.667 20.5 90.834 61.5 126.501s92.833 55.167 155.5 58.5v132h68v-135c56.667 -8 105.167 -27 145.5 -57
s69.833 -66.667 88.5 -110l-74 -23c-18 37.333 -45.333 66.833 -82 88.5s-80.334 32.5 -131.001 32.5c-44 0 -80.5 -11 -109.5 -33s-43.5 -48 -43.5 -78c0 -23.333 8.5 -42.666 25.5 -57.999s45.167 -29.333 84.5 -42l170 -54c60 -19.333 104.667 -42.333 134 -69
s44 -64.334 44 -113.001z" />
    <glyph glyph-name="percent" unicode="%" horiz-adv-x="999" 
d="M241 333c-53.333 0 -98.5 18 -135.5 54s-55.5 80.333 -55.5 133s18.5 97 55.5 133s82.167 54 135.5 54c54 0 99.5 -18 136.5 -54s55.5 -80.333 55.5 -133s-18.5 -97 -55.5 -133s-82.5 -54 -136.5 -54zM690 700h72l-453 -700h-73zM241 396c36 0 66 12.167 90 36.5
s36 53.5 36 87.5c0 34.667 -12 64 -36 88s-54 36 -90 36s-65.833 -12 -89.5 -36s-35.5 -53.333 -35.5 -88c0 -34 12 -63.167 36 -87.5s53.667 -36.5 89 -36.5zM758 -8c-53.333 0 -98.5 18.167 -135.5 54.5s-55.5 80.5 -55.5 132.5c0 52.667 18.5 97 55.5 133
s82.167 54 135.5 54c54 0 99.333 -18 136 -54s55 -80.333 55 -133c0 -52 -18.333 -96.167 -55 -132.5s-82 -54.5 -136 -54.5zM758 55c35.333 0 65 12.167 89 36.5s36 53.5 36 87.5c0 34.667 -11.833 64 -35.5 88s-53.5 36 -89.5 36s-65.833 -12 -89.5 -36
s-35.5 -53.333 -35.5 -88c0 -34 11.833 -63.167 35.5 -87.5s53.5 -36.5 89.5 -36.5z" />
    <glyph glyph-name="ampersand" unicode="&#x26;" horiz-adv-x="694" 
d="M581 0l-81.998 86c-64.667 -66 -139.334 -99 -224.001 -99c-58 0 -107.5 18.333 -148.5 55s-61.5 83.667 -61.5 141c0 41.333 12 80 36 116s59.667 66.333 107 91c-22 25.333 -38.667 48.833 -50 70.5s-17 46.5 -17 74.5c0 54.667 18.667 98 56 130s84.333 48 141 48
c52 0 95.667 -14.5 131 -43.5s58 -64.833 68 -107.5l-70 -20c-9.33301 31.333 -25 56 -47 74s-49.333 27 -82 27c-35.333 0 -64.333 -10 -87 -30s-34 -46.667 -34 -80c0 -32 19.667 -69 59 -111l217 -228c25.333 42 42.666 85.333 51.999 130l69 -18
c-10.667 -58 -34 -113 -70 -165l135 -141h-98zM281.002 58c63.333 0 119.667 26.333 169 79l-195 204c-75.333 -41.333 -113 -93 -113 -155c0 -34.667 13 -64.667 39 -90s59.333 -38 100 -38z" />
    <glyph glyph-name="quotesingle" unicode="'" horiz-adv-x="192" 
d="M55 700h82l-10 -206h-61z" />
    <glyph glyph-name="parenleft" unicode="(" horiz-adv-x="281" 
d="M175 -137c-77.333 129.333 -115.666 276.001 -114.999 440.001c1.33301 166 39.666 312.667 114.999 440h77c-76.667 -134 -115 -280.667 -115 -440c0 -160.667 38.333 -307.334 115 -440.001h-77z" />
    <glyph glyph-name="parenright" unicode=")" horiz-adv-x="281" 
d="M29 -137c76.667 132.667 115 279.333 115 440c0 159.333 -38.333 306 -115 440h77c75.333 -127.333 113.666 -274 114.999 -440c0.666992 -164 -37.666 -310.667 -114.999 -440h-77z" />
    <glyph glyph-name="asterisk" unicode="*" horiz-adv-x="412" 
d="M261 557l96 -52l-31 -52l-93 57l3 -110h-60l3 110l-93 -57l-31 52l96 52l-96 52l31 52l93 -57l-3 109h60l-3 -109l93 57l31 -52z" />
    <glyph glyph-name="plus" unicode="+" horiz-adv-x="553" 
d="M483 318h-173v-174h-66v174h-174v65h174v174h66v-174h173v-65z" />
    <glyph glyph-name="comma" unicode="," horiz-adv-x="241" 
d="M98 103h88l-65 -240h-66z" />
    <glyph glyph-name="hyphen" unicode="-" horiz-adv-x="495" 
d="M70 343h355v-66h-355v66z" />
    <glyph glyph-name="period" unicode="." horiz-adv-x="222" 
d="M111 -7c-16 0 -29.333 5.33301 -40 16s-16 24 -16 40c0 15.333 5.33301 28.166 16 38.499s24 15.5 40 15.5s29.333 -5.16699 40 -15.5s16 -23.166 16 -38.499c0 -16 -5.33301 -29.333 -16 -40s-24 -16 -40 -16z" />
    <glyph glyph-name="slash" unicode="/" horiz-adv-x="546" 
d="M436 790h70l-396 -881h-70z" />
    <glyph glyph-name="zero" unicode="0" horiz-adv-x="636" 
d="M318 -13c-86.667 0 -153.834 33.667 -201.501 101s-71.5 154.666 -71.5 261.999c0 108 23.833 195.5 71.5 262.5s114.834 100.5 201.501 100.5s153.834 -33.5 201.501 -100.5s71.5 -154.5 71.5 -262.5c0 -107.333 -23.833 -194.666 -71.5 -261.999
s-114.834 -101 -201.501 -101zM318 61c62.667 0 110.667 26 144 78s50 122.333 50 211s-16.667 159 -50 211s-81.333 78 -144 78c-62 0 -109.667 -26 -143 -78s-50 -122.333 -50 -211s16.667 -159 50 -211s81 -78 143 -78z" />
    <glyph glyph-name="one" unicode="1" horiz-adv-x="385" 
d="M298 700v-700h-80v608l-176 -85l-19 69l208 108h67z" />
    <glyph glyph-name="two" unicode="2" horiz-adv-x="573" 
d="M522 73l-0.00195312 -72.998h-480v59l279 269c38 36 65.667 66.5 83 91.5s26 51.833 26 80.5c0 43.333 -13.5 77.5 -40.5 102.5s-63.833 37.5 -110.5 37.5c-42 0 -77.333 -12.333 -106 -37s-47.667 -58 -57 -100l-72 20c8 52 33.333 96.667 76 134s95.334 56 158.001 56
c68.667 0 124.334 -18.833 167.001 -56.5s64 -89.167 64 -154.5c0 -40.667 -10.833 -77.334 -32.5 -110.001s-55.167 -70.334 -100.5 -113.001l-215 -206h361z" />
    <glyph glyph-name="three" unicode="3" horiz-adv-x="584" 
d="M324 425c65.333 0 117.832 -19.668 157.499 -59.001s59.5 -90.333 59.5 -153c0 -63.333 -23.333 -117.166 -70 -161.499s-105 -66.5 -175 -66.5c-73.333 0 -132.333 19.333 -177 58s-73 85.334 -85 140.001l73 20c8.66699 -42 29.5 -76.833 62.5 -104.5
s74.5 -41.5 124.5 -41.5c52 0 93.167 15.167 123.5 45.5s45.5 67.166 45.5 110.499s-13.667 79 -41 107s-63.666 42 -108.999 42c-34 0 -64.333 -9 -91 -27l-15 53l202 240h-355v72h459v-59z" />
    <glyph glyph-name="four" unicode="4" horiz-adv-x="592" 
d="M568 155h-96v-155h-79v155h-363v60l261 485h87l-255 -473h270v177h79v-177h96v-72z" />
    <glyph glyph-name="five" unicode="5" horiz-adv-x="583" 
d="M302 446c70 0 127.168 -21.1699 171.501 -63.5029s66.5 -97.166 66.5 -164.499c0 -65.333 -23.167 -120.166 -69.5 -164.499s-104.833 -66.5 -175.5 -66.5c-68 0 -123.667 17.833 -167 53.5s-72.333 80.167 -87 133.5l73 19c12 -40 33.167 -72.333 63.5 -97
s68.5 -37 114.5 -37c51.333 0 92.666 15.333 123.999 46s47 68.667 47 114c0 46.667 -15 84.834 -45 114.501s-72 44.5 -126 44.5c-62 0 -116.667 -19.333 -164 -58l-60 19l31 361h405v-72h-335l-19 -224c42 28 92.667 42 152 42z" />
    <glyph glyph-name="six" unicode="6" horiz-adv-x="567" 
d="M292 462c71.333 -1.33301 129.5 -24.5 174.5 -69.5s67.5 -100.833 67.5 -167.5c0 -67.333 -23.333 -123.833 -70 -169.5s-106.667 -68.5 -180 -68.5s-133.5 22.833 -180.5 68.5s-70.5 102.167 -70.5 169.5c0 49.333 19 103 57 161l210 314h90l-167 -250c20 8 43 12 69 12
zM284 60c50.667 0 92 15.667 124 47s48 70.666 48 117.999s-16 86.833 -48 118.5s-73.667 47.5 -125 47.5c-50.667 0 -92 -15.833 -124 -47.5s-48 -71.167 -48 -118.5s16 -86.666 48 -117.999s73.667 -47 125 -47z" />
    <glyph glyph-name="seven" unicode="7" horiz-adv-x="524" 
d="M500 700v-60l-285 -640h-85l280 627h-391v73h481z" />
    <glyph glyph-name="eight" unicode="8" horiz-adv-x="603" 
d="M428 379c40.667 -16 72.5 -39.833 95.5 -71.5s34.5 -68.5 34.5 -110.5c0 -60.667 -23.667 -110.834 -71 -150.501s-109 -59.5 -185 -59.5c-76.667 0 -138.667 19.833 -186 59.5s-71 89.834 -71 150.501c0 42 11.5 78.833 34.5 110.5s54.833 55.5 95.5 71.5
c-31.333 15.333 -55.833 36 -73.5 62s-26.5 55.667 -26.5 89c0 51.333 20.833 94.666 62.5 129.999s96.5 53 164.5 53c67.333 0 121.833 -17.667 163.5 -53s62.5 -78.666 62.5 -129.999c0 -33.333 -8.83301 -63 -26.5 -89s-42.167 -46.667 -73.5 -62zM302 645
c-46.667 0 -83.167 -11.167 -109.5 -33.5s-39.5 -50.833 -39.5 -85.5s13.167 -63.167 39.5 -85.5s62.833 -33.5 109.5 -33.5c45.333 0 81.333 11.167 108 33.5s40 50.833 40 85.5s-13.333 63.167 -40 85.5s-62.667 33.5 -108 33.5zM302 57c52.667 0 95.167 13.667 127.5 41
s48.5 61.333 48.5 102c0 41.333 -16 75.333 -48 102s-74.667 40 -128 40c-54 0 -97.167 -13.333 -129.5 -40s-48.5 -60.667 -48.5 -102s16.167 -75.5 48.5 -102.5s75.5 -40.5 129.5 -40.5z" />
    <glyph glyph-name="nine" unicode="9" horiz-adv-x="567" 
d="M283 713c73.333 0 133.5 -22.833 180.5 -68.5s70.5 -102.167 70.5 -169.5c0 -49.333 -19 -103 -57 -161l-210 -314h-90l167 250c-20.667 -8 -43.667 -11.667 -69 -11c-71.333 0.666992 -129.5 23.5 -174.5 68.5s-67.5 100.833 -67.5 167.5
c0 67.333 23.333 123.833 70 169.5s106.667 68.5 180 68.5zM284 310c50.667 0 92 15.8311 124 47.498s48 70.834 48 117.501c0 47.333 -16 86.666 -48 117.999s-73.667 47 -125 47c-50.667 0 -92 -15.667 -124 -47s-48 -70.666 -48 -117.999s16 -86.666 48 -117.999
s73.667 -47 125 -47z" />
    <glyph glyph-name="colon" unicode=":" horiz-adv-x="222" 
d="M111 380c-16 0 -29.333 5.33301 -40 16s-16 23.667 -16 39s5.33301 28.333 16 39s24 16 40 16s29.333 -5.33301 40 -16s16 -23.667 16 -39s-5.33301 -28.333 -16 -39s-24 -16 -40 -16zM111 -7c-16 0 -29.333 5.33301 -40 16s-16 24 -16 40
c0 15.333 5.33301 28.166 16 38.499s24 15.5 40 15.5s29.333 -5.16699 40 -15.5s16 -23.166 16 -38.499c0 -16 -5.33301 -29.333 -16 -40s-24 -16 -40 -16z" />
    <glyph glyph-name="semicolon" unicode=";" horiz-adv-x="245" 
d="M134 381c-16 0 -29.333 5.16699 -40 15.5s-16 23.5 -16 39.5c0 15.333 5.33301 28.166 16 38.499s24 15.5 40 15.5s29.333 -5.16699 40 -15.5s16 -23.166 16 -38.499c0 -16 -5.33301 -29.167 -16 -39.5s-24 -15.5 -40 -15.5zM98 103h88l-65 -240h-66z" />
    <glyph glyph-name="less" unicode="&#x3c;" horiz-adv-x="548" 
d="M473 479l-332 -128l332 -129v-72l-413 164v73l413 164v-72z" />
    <glyph glyph-name="equal" unicode="=" horiz-adv-x="554" 
d="M70 477h413v-65h-413v65zM72 289h412v-65h-412v65z" />
    <glyph glyph-name="greater" unicode="&#x3e;" horiz-adv-x="548" 
d="M488 387v-73l-413 -164v72l332 129l-332 128v72z" />
    <glyph glyph-name="question" unicode="?" horiz-adv-x="561" 
d="M230 193c0 33.333 6.50098 63.668 19.501 91.001s28.667 49.666 47 66.999s36.666 33.833 54.999 49.5s34 33 47 52s19.5 39.5 19.5 61.5c0 37.333 -12.5 67.833 -37.5 91.5s-58.833 35.5 -101.5 35.5s-78 -12.333 -106 -37s-47 -58 -57 -100l-71 21
c11.333 54 37 98.833 77 134.5s92.667 53.5 158 53.5c63.333 0 115.333 -18.333 156 -55s61 -83.667 61 -141c0 -29.333 -6.66699 -56 -20 -80s-29.5 -44.333 -48.5 -61l-56.5 -49.5c-18.667 -16.333 -34.667 -35.833 -48 -58.5s-20 -47.667 -20 -75h-74zM266.001 -6.99805
c-16 0 -29.333 5.33301 -40 16s-16 24 -16 40c0 15.333 5.33301 28.166 16 38.499s24 15.5 40 15.5s29.333 -5.16699 40 -15.5s16 -23.166 16 -38.499c0 -16 -5.33301 -29.333 -16 -40s-24 -16 -40 -16z" />
    <glyph glyph-name="at" unicode="@" horiz-adv-x="1002" 
d="M493 -177c-128 0 -233.833 41.666 -317.5 124.999s-125.5 186 -125.5 308c0 82 20.5 157 61.5 225s96.5 121.5 166.5 160.5s146.667 58.5 230 58.5c128.667 0 234.834 -41.667 318.501 -125s125.5 -188.333 125.5 -315c0 -74 -18.167 -133 -54.5 -177
s-80.833 -66 -133.5 -66c-34 0 -60.667 9 -80 27s-32 42.333 -38 73c-38 -57.333 -94 -86 -168 -86c-60.667 0 -111.667 21.333 -153 64s-62 96 -62 160c0 64.667 20.5 118.334 61.5 161.001s92.5 64 154.5 64c71.333 0 126.666 -28.333 165.999 -85v73h69v-312
c0 -55.333 20 -83 60 -83c30 0 56.667 16.833 80 50.5s35 79.167 35 136.5c0 108.667 -35.167 199.167 -105.5 271.5s-162.166 108.5 -275.499 108.5c-109.333 0 -202.5 -37 -279.5 -111s-115.5 -165 -115.5 -273c0 -106 36.167 -194.667 108.5 -266
s163.166 -107 272.499 -107c88.667 0 158.667 20 210 60l17 -58c-58 -41.333 -134 -62 -228 -62zM485 94.999c46 0 84.499 15.167 115.499 45.5s46.5 68.5 46.5 114.5c0 46.667 -15.167 85 -45.5 115s-69.166 45 -116.499 45c-44 0 -80.333 -15 -109 -45
s-43 -68.333 -43 -115c0 -45.333 14.5 -83.333 43.5 -114s65.167 -46 108.5 -46z" />
    <glyph glyph-name="A" unicode="A" horiz-adv-x="695" 
d="M523 188h-351l-76 -188h-85l287 700h99l287 -700h-85zM494 260l-146 360l-147 -360h293z" />
    <glyph glyph-name="B" unicode="B" horiz-adv-x="685" 
d="M513 366c39.333 -13.333 69.998 -35.167 91.998 -65.5s33 -65.833 33 -106.5c0 -56 -20 -102.333 -60 -139s-94.333 -55 -163 -55h-340v700h317c62.667 0 114.334 -17 155.001 -51s61.334 -77.667 62.001 -131c0.666992 -71.333 -31.333 -122 -96 -152zM153.998 628.999
l0.00195312 -236.999h244c40 0 72.167 11.5 96.5 34.5s36.166 51.167 35.499 84.5c0 34.667 -12.833 63.167 -38.5 85.5s-59.834 33.166 -102.501 32.499h-235zM412 71c44.667 0 80.333 12.5 107 37.5s40 55.5 40 91.5c0 34 -13 63.667 -39 89s-61.333 38 -106 38h-260v-256
h258z" />
    <glyph glyph-name="C" unicode="C" horiz-adv-x="780" 
d="M405 -13c-103.333 0 -189.665 34.9971 -258.998 104.997s-104 156.667 -104 260c0 102 34.667 187.667 104 257s155.333 104 258 104c80 0 149.333 -19.833 208 -59.5s99 -90.167 121 -151.5l-78 -19c-18 45.333 -49.167 82.5 -93.5 111.5s-96.833 43.5 -157.5 43.5
c-82.667 0 -150.334 -27.667 -203.001 -83s-79 -122.666 -79 -201.999c0 -81.333 26.167 -150.166 78.5 -206.499s120.166 -84.5 203.499 -84.5c60.667 0 113.167 14.333 157.5 43s75.5 66 93.5 112l76 -20c-22.667 -61.333 -63 -111.666 -121 -150.999
s-126.333 -59 -205 -59z" />
    <glyph glyph-name="D" unicode="D" horiz-adv-x="727" 
d="M341 700c106 0 189.833 -32.667 251.5 -98s92.5 -149.333 92.5 -252s-30.833 -186.667 -92.5 -252s-145.5 -98 -251.5 -98h-266v700h266zM340 73c83.333 0 148.333 26 195 78s70 119 70 201c0 80 -23.5 146 -70.5 198s-111.833 78 -194.5 78h-186v-555h186z" />
    <glyph glyph-name="E" unicode="E" horiz-adv-x="623" 
d="M154 627v-236h363v-70h-363v-248h413v-73h-492v700h493v-73h-414z" />
    <glyph glyph-name="F" unicode="F" horiz-adv-x="579" 
d="M155 627v-245h354v-71h-354v-311h-80v700h485v-73h-405z" />
    <glyph glyph-name="G" unicode="G" horiz-adv-x="799" 
d="M757 328c-0.666992 -105.333 -33.668 -188.502 -99.001 -249.502s-148.666 -91.5 -249.999 -91.5c-104 0 -191 34.833 -261 104.5s-105 156.5 -105 260.5c0 102 34.667 187.667 104 257s155.333 104 258 104c78.667 0 147 -19.167 205 -57.5s99 -88.166 123 -149.499
l-75 -20c-20 46 -51.833 82.833 -95.5 110.5s-95.834 41.5 -156.501 41.5c-83.333 0 -151.333 -27.667 -204 -83s-79 -122.666 -79 -201.999c0 -81.333 26.5 -150.333 79.5 -207s122.833 -85 209.5 -85c76 0 138.333 21.833 187 65.5s75.334 102.167 80.001 175.5h-275v69
h354v-43z" />
    <glyph glyph-name="H" unicode="H" horiz-adv-x="718" 
d="M643 700v-700h-80v321h-408v-321h-80v700h80v-307h408v307h80z" />
    <glyph glyph-name="I" unicode="I" horiz-adv-x="230" 
d="M75 700h80v-700h-80v700z" />
    <glyph glyph-name="J" unicode="J" 
d="M541 231c0 -74 -22.8311 -133.167 -68.498 -177.5s-105.834 -66.5 -180.501 -66.5c-64 0 -118.167 16.833 -162.5 50.5s-75.833 78.5 -94.5 134.5l73 22c29.333 -90 90.333 -135 183 -135c53.333 0 95.166 16.167 125.499 48.5s45.5 73.833 45.5 124.5v397h-376v71h455
v-469z" />
    <glyph glyph-name="K" unicode="K" horiz-adv-x="678" 
d="M290 330l-135 -147v-183h-80v700h80v-410l375 410h102l-289 -314l315 -386h-98z" />
    <glyph glyph-name="L" unicode="L" horiz-adv-x="571" 
d="M543 73v-73h-468v700h80v-627h388z" />
    <glyph glyph-name="M" unicode="M" horiz-adv-x="823" 
d="M748 700v-700h-79v563l-257 -364l-257 364v-563h-80v700h76l261 -373l260 373h76z" />
    <glyph glyph-name="N" unicode="N" horiz-adv-x="723" 
d="M648 700v-700h-69l-424 560v-560h-80v700h69l425 -561v561h79z" />
    <glyph glyph-name="O" unicode="O" horiz-adv-x="806" 
d="M403 -13c-102.667 0 -188.5 35 -257.5 105s-103.5 156.667 -103.5 260c0 102 34.5 187.667 103.5 257s154.833 104 257.5 104s188.5 -34.667 257.5 -104s103.5 -155 103.5 -257c0 -103.333 -34.5 -190 -103.5 -260s-154.833 -105 -257.5 -105zM403 61
c82.667 0 150.167 28 202.5 84s78.5 125 78.5 207c0 80 -26.167 147.833 -78.5 203.5s-119.833 83.5 -202.5 83.5s-150.167 -27.833 -202.5 -83.5s-78.5 -123.5 -78.5 -203.5c0 -82 26.167 -151 78.5 -207s119.833 -84 202.5 -84z" />
    <glyph glyph-name="P" unicode="P" horiz-adv-x="643" 
d="M384 700c70 0 125.667 -23 167 -69s62 -98.333 62 -157c0 -60 -20.833 -112.5 -62.5 -157.5s-98.5 -67.5 -170.5 -67.5h-226v-249h-79v700h309zM378 321c48 0 86.333 15.1689 115 45.502s43 66.166 43 107.499s-14.5 77.166 -43.5 107.499s-65.833 45.5 -110.5 45.5h-228
v-306h224z" />
    <glyph glyph-name="Q" unicode="Q" horiz-adv-x="804" 
d="M761 352c0 -100.667 -33 -185.667 -99 -255l82 -97h-85l-46 54c-62.667 -44.667 -133 -67 -211 -67c-101.333 0 -186.666 35 -255.999 105s-104 156.667 -104 260c0 102 34.667 187.667 104 257s154.666 104 255.999 104s186.5 -34.667 255.5 -104s103.5 -155 103.5 -257
zM402 61c61.333 0 115.333 16.332 162 48.999l-166 193h92l124 -148c46 54.667 69 120.334 69 197.001c0 80.667 -26.167 148.667 -78.5 204s-119.833 83 -202.5 83s-150.334 -27.667 -203.001 -83s-79 -123.333 -79 -204c0 -82 26.333 -151 79 -207
s120.334 -84 203.001 -84z" />
    <glyph glyph-name="R" unicode="R" horiz-adv-x="676" 
d="M359 275l-205 -0.000976562v-275h-79v700h324c68 0 122 -21.667 162 -65s60 -92.666 60 -147.999c0 -49.333 -15.5 -93.833 -46.5 -133.5s-73.833 -64.5 -128.5 -74.5l188 -279h-92zM154 345.999l242 -0.000976562c44.667 0 80.5 13.833 107.5 41.5
s40.5 60.834 40.5 99.501c0 38 -13.5 71 -40.5 99s-62.5 42 -106.5 42h-243v-282z" />
    <glyph glyph-name="S" unicode="S" horiz-adv-x="661" 
d="M344 -13c-76 0 -141.666 20.332 -196.999 60.999s-92.666 90.334 -111.999 149.001l76 23c16 -46.667 45.167 -85.167 87.5 -115.5s92.166 -45.5 149.499 -45.5c54 0 98 13.167 132 39.5s51 56.833 51 91.5c0 27.333 -9.66699 50.166 -29 68.499s-52.333 34.833 -99 49.5
l-175 56c-103.333 33.333 -155 88 -155 164c0 50.667 22.333 94.167 67 130.5s100.334 54.5 167.001 54.5c69.333 0 128.833 -16 178.5 -48s85.167 -72.667 106.5 -122l-74 -23c-17.333 37.333 -44.333 66.833 -81 88.5s-80.334 32.5 -131.001 32.5
c-44.667 0 -81.334 -11 -110.001 -33s-43 -48 -43 -78c0 -23.333 8.33301 -42.666 25 -57.999s44.667 -29.333 84 -42l170 -54c60 -19.333 104.667 -42.333 134 -69s44 -64.334 44 -113.001c0 -57.333 -25 -106.166 -75 -146.499s-113.667 -60.5 -191 -60.5z" />
    <glyph glyph-name="T" unicode="T" horiz-adv-x="627" 
d="M612 627h-258v-627h-80v627h-259v73h597v-73z" />
    <glyph glyph-name="U" unicode="U" horiz-adv-x="708" 
d="M642 700l-0.000976562 -422c0 -88 -25.5 -158.5 -76.5 -211.5s-121.5 -79.5 -211.5 -79.5s-160.5 26.5 -211.5 79.5s-76.5 123.5 -76.5 211.5v422h81v-420c0 -66.667 17.833 -119.834 53.5 -159.501s86.834 -59.5 153.501 -59.5s118 19.833 154 59.5
s54 92.834 54 159.501v420h80z" />
    <glyph glyph-name="V" unicode="V" horiz-adv-x="679" 
d="M664 700l-282 -700h-85l-282 700h86l239 -601l238 601h86z" />
    <glyph glyph-name="W" unicode="W" horiz-adv-x="986" 
d="M971 700l-220 -700h-83l-175 570l-175 -570h-83l-220 700h83l179 -587l179 587h73l179 -587l180 587h83z" />
    <glyph glyph-name="X" unicode="X" horiz-adv-x="682" 
d="M565 0l-224 296l-224 -296h-97l266 353l-260 347h97l218 -290l218 290h97l-260 -347l266 -353h-97z" />
    <glyph glyph-name="Y" unicode="Y" horiz-adv-x="652" 
d="M641 700l-275 -432v-268h-80v268l-275 432h91l224 -357l225 357h90z" />
    <glyph glyph-name="Z" unicode="Z" horiz-adv-x="625" 
d="M588 72v-72h-547v53l427 575h-416v72h525v-54l-425 -574h436z" />
    <glyph glyph-name="bracketleft" unicode="[" horiz-adv-x="332" 
d="M151 673v-741h146v-69h-222v880h222v-70h-146z" />
    <glyph glyph-name="backslash" unicode="\" horiz-adv-x="546" 
d="M436 -91l-396 881h70l396 -881h-70z" />
    <glyph glyph-name="bracketright" unicode="]" horiz-adv-x="332" 
d="M257 -137h-222v69h146v741h-146v70h222v-880z" />
    <glyph glyph-name="asciicircum" unicode="^" horiz-adv-x="531" 
d="M409 418l-143 245l-144 -245h-81l185 312h79l185 -312h-81z" />
    <glyph glyph-name="underscore" unicode="_" horiz-adv-x="590" 
d="M43 -69h505v-62h-505v62z" />
    <glyph glyph-name="grave" unicode="`" horiz-adv-x="168" 
d="M97 578l-97 136h89l79 -136h-71z" />
    <glyph glyph-name="a" unicode="a" horiz-adv-x="644" 
d="M295 -13c-72 0 -132 24.999 -180 74.999s-72 112.667 -72 188c0 74.667 24 136.834 72 186.501s108 74.5 180 74.5c87.333 0 153 -34 197 -102v90h77v-499h-77v91c-43.333 -69.333 -109 -104 -197 -104zM306 56.999c52 0 96.333 18.3301 133 54.9971
s55 82.334 55 137.001s-18.333 100.334 -55 137.001s-81 55 -133 55c-54.667 0 -99.5 -18 -134.5 -54s-52.5 -82 -52.5 -138c0 -55.333 17.5 -101.166 52.5 -137.499s79.833 -54.5 134.5 -54.5z" />
    <glyph glyph-name="b" unicode="b" horiz-adv-x="644" 
d="M349 511c72 0 131.999 -24.832 179.999 -74.499s72 -111.834 72 -186.501c0 -75.333 -24 -138 -72 -188s-108 -75 -180 -75c-44 0 -82.833 9.16699 -116.5 27.5s-60.5 43.833 -80.5 76.5v-91h-77v730h77v-321c42.667 68 108.334 102 197.001 102zM337.999 57.001
c54.667 0 99.5 18.1699 134.5 54.5029s52.5 82.166 52.5 137.499c0 56 -17.5 102 -52.5 138s-79.833 54 -134.5 54c-52 0 -96.333 -18.333 -133 -55s-55 -82.334 -55 -137.001s18.333 -100.334 55 -137.001s81 -55 133 -55z" />
    <glyph glyph-name="c" unicode="c" horiz-adv-x="577" 
d="M303 -13c-74.667 0 -136.668 25.1689 -186.001 75.502s-74 113.166 -74 188.499c0 74 24.667 135.833 74 185.5s111.333 74.5 186 74.5c59.333 0 109.833 -15.5 151.5 -46.5s68.167 -65.833 79.5 -104.5l-72 -21c-8.66699 27.333 -27.667 51.333 -57 72
s-63.333 31 -102 31c-54.667 0 -99 -18.833 -133 -56.5s-51 -83.167 -51 -136.5c0 -52.667 17.167 -97.834 51.5 -135.501s78.5 -56.5 132.5 -56.5c39.333 0 73.5 9.83301 102.5 29.5s47.833 43.167 56.5 70.5l72 -19c-11.333 -39.333 -37.666 -74.333 -78.999 -105
s-92 -46 -152 -46z" />
    <glyph glyph-name="d" unicode="d" horiz-adv-x="644" 
d="M569 730v-730.001h-77v91c-43.333 -69.333 -109 -104 -197 -104c-72 0 -132 25 -180 75s-72 112.667 -72 188c0 74.667 24 136.834 72 186.501s108 74.5 180 74.5c87.333 0 153 -34 197 -102v321h77zM306 56.999c52 0 96.333 18.3301 133 54.9971s55 82.334 55 137.001
s-18.333 100.334 -55 137.001s-81 55 -133 55c-54.667 0 -99.5 -18 -134.5 -54s-52.5 -82 -52.5 -138c0 -55.333 17.5 -101.166 52.5 -137.499s79.833 -54.5 134.5 -54.5z" />
    <glyph glyph-name="e" unicode="e" horiz-adv-x="590" 
d="M306 -13c-77.333 0 -140.499 24 -189.499 72s-73.5 111.667 -73.5 191c0 74.667 23.667 136.834 71 186.501s108.333 74.5 183 74.5c77.333 0 138.333 -23.667 183 -71s67 -107 67 -179c0 -15.333 -0.666992 -27.333 -2 -36h-426
c3.33301 -50.667 21.666 -91.667 54.999 -123s77.333 -47 132 -47c40.667 0 75 9.16699 103 27.5s48.667 41.5 62 69.5l71 -21c-18.667 -40.667 -48 -74.834 -88 -102.501s-89.333 -41.5 -148 -41.5zM471.001 283c-3.33301 48 -20.333 86.667 -51 116s-71.667 44 -123 44
c-49.333 0 -90.5 -15.667 -123.5 -47s-51.167 -69.333 -54.5 -114z" />
    <glyph glyph-name="f" unicode="f" horiz-adv-x="400" 
d="M207 499h179v-70h-179v-429h-76v429h-105v70h105v66c0 56.667 13.333 100.5 40 131.5s65.667 46.5 117 46.5c39.333 0 73 -7 101 -21l-20 -65c-22 11.333 -46.667 17 -74 17c-58.667 0 -88 -37 -88 -111v-64z" />
    <glyph glyph-name="g" unicode="g" horiz-adv-x="642" 
d="M567 499l-0.000976562 -482.002c0 -69.333 -23 -126.666 -69 -171.999s-105.333 -68 -178 -68c-109.333 0 -188.333 43.667 -237 131l68 25c35.333 -59.333 92 -89 170 -89c52 0 93 16.333 123 49s45.667 74 47 124v85c-43.333 -64 -108.666 -96 -195.999 -96
c-72.667 0 -132.834 24.167 -180.501 72.5s-71.5 108.5 -71.5 180.5c0 72.667 23.833 132.834 71.5 180.501s107.834 71.5 180.501 71.5c88 0 153.333 -31.667 196 -95v83h76zM305.999 75.998c52 0 96 17.499 132 52.499s54 78.167 54 129.5c0 52 -18 95.5 -54 130.5
s-80 52.5 -132 52.5c-54.667 0 -99.5 -17.167 -134.5 -51.5s-52.5 -78.166 -52.5 -131.499c0 -52.667 17.5 -96.167 52.5 -130.5s79.833 -51.5 134.5 -51.5z" />
    <glyph glyph-name="h" unicode="h" 
d="M337 511c62 0 110.832 -19.333 146.499 -58s53.5 -92 53.5 -160v-293h-77v282c0 49.333 -12.167 87.833 -36.5 115.5s-58.833 41.5 -103.5 41.5c-50 0 -90.5 -17.333 -121.5 -52s-46.5 -80 -46.5 -136v-251h-77v730h77v-319c18.667 30 43.834 54.167 75.501 72.5
s68.167 27.5 109.5 27.5z" />
    <glyph glyph-name="i" unicode="i" horiz-adv-x="235" 
d="M117 592c-15.333 0 -28 5 -38 15s-15 22.667 -15 38c0 14 5.16699 26 15.5 36s22.833 15 37.5 15s27.167 -5 37.5 -15s15.5 -22 15.5 -36c0 -15.333 -5 -28 -15 -38s-22.667 -15 -38 -15zM79 499h77v-499h-77v499z" />
    <glyph glyph-name="j" unicode="j" horiz-adv-x="232" 
d="M115 592c-15.333 0 -28 5 -38 15s-15 22.667 -15 38c0 14 5.16699 26 15.5 36s22.833 15 37.5 15s27.167 -5 37.5 -15s15.5 -22 15.5 -36c0 -15.333 -5 -28 -15 -38s-22.667 -15 -38 -15zM76 499h77v-546c0 -55.333 -12.5 -98.5 -37.5 -129.5s-62.167 -46.5 -111.5 -46.5
c-26.667 0 -54 6.66699 -82 20l19 64c17.333 -10.667 36.333 -16 57 -16c52 0 78 34.667 78 104v550z" />
    <glyph glyph-name="k" unicode="k" horiz-adv-x="526" 
d="M228 230l-76 -79v-151h-77v730h77v-480l238 249h95l-207 -217l233 -282h-91z" />
    <glyph glyph-name="l" unicode="l" horiz-adv-x="227" 
d="M75 730h77v-730h-77v730z" />
    <glyph glyph-name="m" unicode="m" horiz-adv-x="921" 
d="M657 511c60 0 107.333 -18.5 142 -55.5s52 -88.833 52 -155.5v-300h-77v288c0 48 -11 85.167 -33 111.5s-54.333 39.5 -97 39.5s-77.167 -15.667 -103.5 -47s-39.5 -73 -39.5 -125v-267h-77v288c0 47.333 -10.5 84.333 -31.5 111s-51.5 40 -91.5 40
c-44 0 -79.833 -16.833 -107.5 -50.5s-41.5 -78.167 -41.5 -133.5v-255h-77v499h77v-82c37.333 62.667 92.666 94 165.999 94c76 0 129.333 -32 160 -96c36.667 64 96.334 96 179.001 96z" />
    <glyph glyph-name="n" unicode="n" 
d="M337 511c62 0 110.832 -19.333 146.499 -58s53.5 -92 53.5 -160v-293h-77v282c0 49.333 -12.167 87.833 -36.5 115.5s-58.833 41.5 -103.5 41.5c-50 0 -90.5 -17.333 -121.5 -52s-46.5 -80 -46.5 -136v-251h-77v499h77v-88c18.667 30 43.834 54.167 75.501 72.5
s68.167 27.5 109.5 27.5z" />
    <glyph glyph-name="o" unicode="o" horiz-adv-x="613" 
d="M307 -13c-75.333 0 -138.166 25.167 -188.499 75.5s-75.5 112.833 -75.5 187.5s25.167 136.834 75.5 186.501s113.166 74.5 188.499 74.5s138 -24.833 188 -74.5s75 -111.834 75 -186.501s-25 -137.167 -75 -187.5s-112.667 -75.5 -188 -75.5zM307 58
c53.333 0 97.833 18.167 133.5 54.5s53.5 81.833 53.5 136.5s-17.833 100.334 -53.5 137.001s-80.167 55 -133.5 55c-54 0 -99 -18.333 -135 -55s-54 -82.334 -54 -137.001s18 -100.167 54 -136.5s81 -54.5 135 -54.5z" />
    <glyph glyph-name="p" unicode="p" horiz-adv-x="644" 
d="M349 511c72 0 131.999 -24.832 179.999 -74.499s72 -111.834 72 -186.501c0 -75.333 -24 -138 -72 -188s-108 -75 -180 -75c-44 0 -82.833 9.16699 -116.5 27.5s-60.5 43.833 -80.5 76.5v-301h-77v709h77v-90c42.667 68 108.334 102 197.001 102zM337.999 57.001
c54.667 0 99.5 18.1699 134.5 54.5029s52.5 82.166 52.5 137.499c0 56 -17.5 102 -52.5 138s-79.833 54 -134.5 54c-52 0 -96.333 -18.333 -133 -55s-55 -82.334 -55 -137.001s18.333 -100.334 55 -137.001s81 -55 133 -55z" />
    <glyph glyph-name="q" unicode="q" horiz-adv-x="644" 
d="M569 499v-709.001h-77v301c-43.333 -69.333 -109 -104 -197 -104c-72 0 -132 25 -180 75s-72 112.667 -72 188c0 74.667 24 136.834 72 186.501s108 74.5 180 74.5c87.333 0 153 -34 197 -102v90h77zM306 56.999c52 0 96.333 18.3301 133 54.9971s55 82.334 55 137.001
s-18.333 100.334 -55 137.001s-81 55 -133 55c-54.667 0 -99.5 -18 -134.5 -54s-52.5 -82 -52.5 -138c0 -55.333 17.5 -101.166 52.5 -137.499s79.833 -54.5 134.5 -54.5z" />
    <glyph glyph-name="r" unicode="r" horiz-adv-x="354" 
d="M152 413c15.333 34 38.332 59.333 68.999 76s67.334 22 110.001 16v-72c-56 7.33301 -99.833 -5.16699 -131.5 -37.5s-47.5 -86.5 -47.5 -162.5v-233h-77v499h77v-86z" />
    <glyph glyph-name="s" unicode="s" horiz-adv-x="510" 
d="M258 -13c-55.333 0 -104.167 14.501 -146.5 43.501s-69.833 64.833 -82.5 107.5l72 20c9.33301 -30 28.5 -54.833 57.5 -74.5s62.833 -29.5 101.5 -29.5c36.667 0 66.667 8 90 24s35 35.333 35 58c0 19.333 -5.66699 34.166 -17 44.499s-30 19.5 -56 27.5l-142 42
c-77.333 22.667 -116 63 -116 121c0 38 17.667 70.833 53 98.5s78.666 41.5 129.999 41.5s95.5 -11.667 132.5 -35s63.167 -53 78.5 -89l-70 -21c-9.33301 22.667 -26.666 41.667 -51.999 57s-55.333 23 -90 23c-31.333 0 -56.833 -7.66699 -76.5 -23
s-29.5 -32.333 -29.5 -51c0 -26.667 22.333 -46.667 67 -60l142 -42c38 -11.333 67.833 -26.833 89.5 -46.5s32.5 -47.5 32.5 -83.5c0 -44 -19.167 -80.5 -57.5 -109.5s-86.833 -43.5 -145.5 -43.5z" />
    <glyph glyph-name="t" unicode="t" horiz-adv-x="409" 
d="M370 15c-34 -14.667 -68.668 -21.999 -104.001 -21.999c-48.667 0 -85.167 14.167 -109.5 42.5s-36.5 67.166 -36.5 116.499v277h-99v70h99v172h77v-172h171v-70h-171v-277c0 -58.667 27 -88 81 -88c24.667 0 48.334 5.66699 71.001 17z" />
    <glyph glyph-name="u" unicode="u" 
d="M532 499v-499.001h-77v87c-40.667 -66.667 -102 -100 -184 -100c-62.667 0 -111.834 19.333 -147.501 58s-53.5 92.334 -53.5 161.001v293h77v-282c0 -49.333 12.167 -87.833 36.5 -115.5s58.833 -41.5 103.5 -41.5c50.667 0 91.334 17.333 122.001 52s46 80 46 136v251
h77z" />
    <glyph glyph-name="v" unicode="v" horiz-adv-x="541" 
d="M530 499l-217 -499h-85l-217 499h83l177 -415l176 415h83z" />
    <glyph glyph-name="w" unicode="w" horiz-adv-x="769" 
d="M757 499l-171 -499h-75l-126 384l-127 -384h-75l-172 499h81l131 -401l128 401h67l128 -401l131 401h80z" />
    <glyph glyph-name="x" unicode="x" horiz-adv-x="523" 
d="M420 0l-158 200l-159 -200h-92l199 252l-189 247h90l151 -194l150 194h90l-189 -247l199 -252h-92z" />
    <glyph glyph-name="y" unicode="y" horiz-adv-x="546" 
d="M535 499l-307 -709h-81l95 220l-231 489h85l185 -403l172 403h82z" />
    <glyph glyph-name="z" unicode="z" horiz-adv-x="516" 
d="M472 67v-67h-427v51l314 381h-308v67h412v-53l-313 -379h322z" />
    <glyph glyph-name="braceleft" unicode="{" horiz-adv-x="377" 
d="M237 424c0 -66 -25 -106.334 -75 -121.001c50 -15.333 75 -55.666 75 -120.999v-168c0 -58.667 25.333 -88 76 -88h29v-68h-44c-90 0 -135 49 -135 147v177c0 25.333 -8 46 -24 62s-37 24 -63 24h-21v70h21c26 0 47 7.83301 63 23.5s24 36.5 24 62.5v176
c0 98.667 45 148 135 148h44v-69h-29c-50.667 0 -76 -29.333 -76 -88v-167z" />
    <glyph glyph-name="bar" unicode="|" horiz-adv-x="210" 
d="M70 805h70v-930h-70v930z" />
    <glyph glyph-name="braceright" unicode="}" horiz-adv-x="377" 
d="M322 338v-69.999h-21c-26 0 -47 -8 -63 -24s-24 -36.667 -24 -62v-177c0 -98 -45 -147 -135 -147h-44v68h29c50.667 0 76 29.333 76 88v168c0 65.333 25 105.666 75 120.999c-50 14.667 -75 55 -75 121v167c0 58.667 -25.333 88 -76 88h-29v69h44
c90 0 135 -49.333 135 -148v-176c0 -26 8 -46.833 24 -62.5s37 -23.5 63 -23.5h21z" />
    <glyph glyph-name="asciitilde" unicode="~" horiz-adv-x="589" 
d="M60 304c0 34.667 9.83301 63.501 29.5 86.501s49.834 34.5 90.501 34.5c26 0 52.833 -6.83301 80.5 -20.5s53.5 -27.167 77.5 -40.5s44.667 -20 62 -20c40 0 60 24.667 60 74l69 -20c0 -34.667 -9.66699 -63.834 -29 -87.501s-49 -35.5 -89 -35.5
c-26.667 0 -53.834 6.83301 -81.501 20.5s-53.5 27.167 -77.5 40.5s-44.667 20 -62 20c-40.667 0 -61 -24 -61 -72z" />
    <glyph glyph-name="exclamdown" unicode="&#xa1;" horiz-adv-x="222" 
d="M111 505c16 0 29.333 -5.16699 40 -15.5s16 -23.5 16 -39.5c0 -15.333 -5.33301 -28.166 -16 -38.499s-24 -15.5 -40 -15.5s-29.333 5.16699 -40 15.5s-16 23.166 -16 38.499c0 16 5.33301 29.167 16 39.5s24 15.5 40 15.5zM153 -201h-88l13 507h63z" />
    <glyph glyph-name="cent" unicode="&#xa2;" horiz-adv-x="575" 
d="M305 157c39.333 0 73.5 9.83301 102.5 29.5s47.833 43.167 56.5 70.5l72 -20c-10 -35.333 -32.667 -67.5 -68 -96.5s-79 -46.167 -131 -51.5v-105h-68v105c-65.333 8.66699 -119 37.167 -161 85.5s-63 106.833 -63 175.5c0 68 20.833 126 62.5 174s95.5 76.333 161.5 85
v106h68v-106c51.333 -5.33301 94.833 -22.833 130.5 -52.5s58.5 -61.834 68.5 -96.501l-72 -21c-8.66699 26.667 -27.667 50.334 -57 71.001s-63.333 31 -102 31c-54 0 -98.167 -18.667 -132.5 -56s-51.5 -82.666 -51.5 -135.999c0 -52.667 17.167 -97.834 51.5 -135.501
s78.5 -56.5 132.5 -56.5z" />
    <glyph glyph-name="sterling" unicode="&#xa3;" horiz-adv-x="646" 
d="M608 74l-0.000976562 -74h-560v74h95v217h-77v66h77v159c0 63.333 18.333 112.333 55 147s85.334 52 146.001 52c58 0 105.833 -16.333 143.5 -49s61.167 -72.667 70.5 -120l-70 -20c-22 78 -70.333 117 -145 117c-38.667 0 -68.667 -11.5 -90 -34.5
s-32 -55.167 -32 -96.5v-155h255v-66h-255v-217h387z" />
    <glyph glyph-name="currency" unicode="&#xa4;" horiz-adv-x="616" 
d="M542 320c0 -52.667 -15.333 -99.667 -46 -141l80 -80l-47 -47l-78 80c-42 -31.333 -89.667 -47 -143 -47c-54 0 -101.333 15.667 -142 47l-79 -80l-47 47l80 80c-30 42 -45 89 -45 141c0 53.333 15.333 100.666 46 141.999l-81 79l47 47l80 -80c40 31.333 87 47 141 47
s101.333 -15.667 142 -47l79 80l47 -47l-80 -79c30.667 -41.333 46 -88.666 46 -141.999zM144 320c0 -46.667 15.667 -85.667 47 -117s70.333 -47 117 -47s85.834 15.667 117.501 47s47.834 70.333 48.501 117c-0.666992 46.667 -16.834 85.834 -48.501 117.501
s-70.834 47.5 -117.501 47.5s-85.667 -15.833 -117 -47.5s-47 -70.834 -47 -117.501z" />
    <glyph glyph-name="yen" unicode="&#xa5;" horiz-adv-x="670" 
d="M408 320h176v-53h-209v-67h209v-53h-209v-147h-80v147h-206v53h206v67h-206v53h173l-242 380h90l225 -358l225 358h90z" />
    <glyph glyph-name="brokenbar" unicode="&#xa6;" horiz-adv-x="210" 
d="M70 805h70v-360h-70v360zM70 235h70v-360h-70v360z" />
    <glyph glyph-name="section" unicode="&#xa7;" horiz-adv-x="553" 
d="M426 201c38 -24.667 57 -58 57 -100c0 -43.333 -19 -80 -57 -110s-86.667 -45 -146 -45c-53.333 0 -101.166 14.333 -143.499 43s-69.5 64 -81.5 106l71 21c10 -30.667 29.333 -55.667 58 -75s62.334 -29 101.001 -29c35.333 0.666992 64.5 9.66699 87.5 27
s34.5 36.666 34.5 57.999c0 18 -5.5 31.667 -16.5 41s-29.833 18.333 -56.5 27l-147 48c-82 25.333 -123 70 -123 134c0 25.333 8.16699 49 24.5 71s36.166 39.333 59.499 52c-37.333 24.667 -56 58 -56 100c0 39.333 17.667 73 53 101s79.333 42 132 42
c47.333 0 88.166 -11 122.499 -33s58.5 -50.667 72.5 -86l-70 -20c-9.33301 21.333 -24.833 38.833 -46.5 52.5s-48.167 20.5 -79.5 20.5c-35.333 0.666992 -62.5 -7.33301 -81.5 -24s-28.5 -33.667 -28.5 -51c0 -29.333 22.667 -52.666 68 -69.999l143 -48
c39.333 -13.333 69.333 -29.833 90 -49.5s31 -47.5 31 -83.5c0 -46 -24 -86 -72 -120zM360 229c41.333 25.333 62 54.998 62 88.998c0 19.333 -5.66699 34.333 -17 45s-30 20.334 -56 29.001l-136 46c-22 -9.33301 -39.667 -22 -53 -38s-20 -32.333 -20 -49
c0 -37.333 27.333 -63.666 82 -78.999z" />
    <glyph glyph-name="dieresis" unicode="&#xa8;" horiz-adv-x="279" 
d="M47 575c-13.333 0 -24.5 4.5 -33.5 13.5s-13.5 20.167 -13.5 33.5s4.5 24.333 13.5 33s20.167 13 33.5 13s24.5 -4.33301 33.5 -13s13.5 -19.667 13.5 -33s-4.5 -24.5 -13.5 -33.5s-20.167 -13.5 -33.5 -13.5zM232 575c-14 0 -25.333 4.5 -34 13.5s-13 20.167 -13 33.5
s4.33301 24.333 13 33s20 13 34 13c13.333 0 24.5 -4.33301 33.5 -13s13.5 -19.667 13.5 -33s-4.5 -24.5 -13.5 -33.5s-20.167 -13.5 -33.5 -13.5z" />
    <glyph glyph-name="copyright" unicode="&#xa9;" horiz-adv-x="755" 
d="M378 16c-95.333 0 -175.333 32.3311 -240 96.998s-97 144.334 -97 239.001c0 93.333 32.5 172 97.5 236s144.833 96 239.5 96c95.333 0 175.166 -31.833 239.499 -95.5s96.5 -142.5 96.5 -236.5c0 -95.333 -32.167 -175.166 -96.5 -239.499
s-144.166 -96.5 -239.499 -96.5zM378 68.998c80 0 147 27 201 81s81 121.333 81 202c0 80 -27 146.5 -81 199.5s-121 79.5 -201 79.5s-147.167 -26.5 -201.5 -79.5s-81.5 -119.5 -81.5 -199.5c0 -80.667 27.167 -148 81.5 -202s121.5 -81 201.5 -81zM382 177.998
c-49.333 0 -90.498 16.5 -123.498 49.5s-49.5 74.167 -49.5 123.5c0 48 16.5 88.333 49.5 121s73.833 49 122.5 49c40.667 0 75 -10.167 103 -30.5s46.667 -45.166 56 -74.499l-56 -13c-6 18.667 -18.333 34.167 -37 46.5s-40.334 18.5 -65.001 18.5
c-34.667 0 -62.667 -11.333 -84 -34s-32 -50.334 -32 -83.001c0 -33.333 10.667 -61.5 32 -84.5s49.333 -34.5 84 -34.5c25.333 0 47.166 6.16699 65.499 18.5s30.5 27.833 36.5 46.5l55 -15c-8.66699 -28.667 -27 -53.167 -55 -73.5s-62 -30.5 -102 -30.5z" />
    <glyph glyph-name="guillemotleft" unicode="&#xab;" horiz-adv-x="471" 
d="M149 320l100 -175h-78l-101 175l101 175h78zM301 320l100 -175h-77l-102 175l102 175h77z" />
    <glyph glyph-name="logicalnot" unicode="&#xac;" horiz-adv-x="568" 
d="M498 229h-69v145h-359v65h428v-210z" />
    <glyph glyph-name="registered" unicode="&#xae;" horiz-adv-x="755" 
d="M378 684c95.333 0 175.166 -32 239.499 -96s96.5 -143.333 96.5 -238s-32.167 -174 -96.5 -238s-144.166 -96 -239.499 -96s-175.333 32 -240 96s-97 143.333 -97 238s32.333 174 97 238s144.667 96 240 96zM378 67c80.667 0 147.834 27 201.501 81
s80.5 121.333 80.5 202s-26.833 148 -80.5 202s-120.834 81 -201.501 81s-148 -27 -202 -81s-81 -121.333 -81 -202s27 -148 81 -202s121.333 -81 202 -81zM523 410c0 -22 -6.66602 -42.333 -19.999 -61s-32 -31.667 -56 -39l79 -125h-65l-74 120h-79v-120h-56v332h160
c33.333 0 60.166 -10.833 80.499 -32.5s30.5 -46.5 30.5 -74.5zM308.001 355h100c17.333 0 31.5 5.33301 42.5 16s16.5 23.667 16.5 39s-5.33301 28.333 -16 39s-24.667 16 -42 16h-101v-110z" />
    <glyph glyph-name="macron" unicode="&#xaf;" horiz-adv-x="263" 
d="M0 652h263v-60h-263v60z" />
    <glyph glyph-name="degree" unicode="&#xb0;" horiz-adv-x="401" 
d="M201 433c-44.667 0 -82.5 15.167 -113.5 45.5s-46.5 67.166 -46.5 110.499c0 44 15.5 81 46.5 111s68.833 45 113.5 45s82.334 -15 113.001 -45s46 -67 46 -111c0 -43.333 -15.333 -80.166 -46 -110.499s-68.334 -45.5 -113.001 -45.5zM201 492
c27.333 0 50.333 9.5 69 28.5s28 41.833 28 68.5c0.666992 27.333 -8.33301 50.333 -27 69s-42 28 -70 28s-51.333 -9.33301 -70 -28s-28 -41.667 -28 -69c0 -26.667 9.33301 -49.5 28 -68.5s42 -28.5 70 -28.5z" />
    <glyph glyph-name="plusminus" unicode="&#xb1;" horiz-adv-x="553" 
d="M483 449v-65h-173v-150h-66v150h-174v65h174v149h66v-149h173zM70 168h413v-65h-413v65z" />
    <glyph glyph-name="two.sups" unicode="&#xb2;" horiz-adv-x="339" 
d="M312 506v-56h-289v43l160 153c20 19.333 34.333 35.333 43 48s13 26.334 13 41.001c0 20.667 -6.5 37.167 -19.5 49.5s-31.167 18.5 -54.5 18.5c-44.667 0 -72.334 -25 -83.001 -75l-59 16c4.66699 32 19.834 59.333 45.501 82s57.5 34 95.5 34
c42 0 75.833 -11 101.5 -33s38.5 -52 38.5 -90c0 -23.333 -5.83301 -43.833 -17.5 -61.5s-29.5 -37.834 -53.5 -60.501l-114 -109h193z" />
    <glyph glyph-name="three.sups" unicode="&#xb3;" horiz-adv-x="350" 
d="M212 696c33.333 -4 60.165 -17.167 80.498 -39.5s30.5 -49.833 30.5 -82.5c0 -37.333 -13.5 -68.833 -40.5 -94.5s-61.5 -38.5 -103.5 -38.5c-45.333 0 -81.166 11.667 -107.499 35s-42.5 51.666 -48.5 84.999l57 16c4 -23.333 14.833 -42.666 32.5 -57.999
s39.167 -23 64.5 -23c26 0 46.667 7.5 62 22.5s23 33.5 23 55.5s-7.5 40.333 -22.5 55s-36.5 22 -64.5 22c-5.33301 0 -14.666 -0.666992 -27.999 -2l-10 38l95 108h-197v55h274v-46z" />
    <glyph glyph-name="acute" unicode="&#xb4;" horiz-adv-x="168" 
d="M80 714h88l-97 -136h-71z" />
    <glyph glyph-name="paragraph" unicode="&#xb6;" horiz-adv-x="645" 
d="M578 627l-64 -0.000976562v-837h-73v837h-127v-837h-74v511c-57.333 0 -105 19 -143 57s-57 85 -57 141c0 56.667 19.667 104.334 59 143.001s88 58 146 58h333v-73z" />
    <glyph glyph-name="periodcentered" unicode="&#xb7;" horiz-adv-x="222" 
d="M111 235c-16 0 -29.333 5.33301 -40 16s-16 23.667 -16 39s5.33301 28.333 16 39s24 16 40 16s29.333 -5.33301 40 -16s16 -23.667 16 -39s-5.33301 -28.333 -16 -39s-24 -16 -40 -16z" />
    <glyph glyph-name="cedilla" unicode="&#xb8;" horiz-adv-x="209" 
d="M101 -222c-38.667 0 -72.332 10.668 -100.999 32.001l13 44c30.667 -21.333 61 -30 91 -26s45 16.667 45 38c0 17.333 -11.167 29.166 -33.5 35.499s-45.5 6.83301 -69.5 1.5l31 97h62l-18 -58c26.667 -2 48 -10.333 64 -25s24 -32.667 24 -54
c0 -26.667 -10.333 -47.5 -31 -62.5s-46.334 -22.5 -77.001 -22.5z" />
    <glyph glyph-name="one.sups" unicode="&#xb9;" horiz-adv-x="243" 
d="M185 850v-400h-62v328l-100 -48l-15 55l123 65h54z" />
    <glyph glyph-name="guillemotright" unicode="&#xbb;" horiz-adv-x="471" 
d="M249 320l-101 -175h-78l100 175l-100 175h78zM401 320l-101 -175h-78l100 175l-100 175h78z" />
    <glyph glyph-name="onequarter" unicode="&#xbc;" horiz-adv-x="776" 
d="M123 628l-100 -48l-15 55l123 65h54v-400h-62v328zM588 700l-437 -700h-65l437 700h65zM759 84h-52v-84h-60v84h-203v49l144 267h67l-139 -260h131v89h60v-89h52v-56z" />
    <glyph glyph-name="onehalf" unicode="&#xbd;" horiz-adv-x="770" 
d="M123 628l-100 -48l-15 55l123 65h54v-400h-62v328zM588 700l-437 -700h-65l437 700h65zM743 56v-56h-289v43l160 153c20 19.333 34.333 35.333 43 48s13 26.334 13 41.001c0 20.667 -6.5 37.167 -19.5 49.5s-31.167 18.5 -54.5 18.5c-44.667 0 -72.334 -25 -83.001 -75
l-59 16c4.66699 32 19.834 59.333 45.501 82s57.5 34 95.5 34c42 0 75.833 -11 101.5 -33s38.5 -52 38.5 -90c0 -23.333 -5.83301 -43.833 -17.5 -61.5s-29.5 -37.834 -53.5 -60.501l-114 -109h193z" />
    <glyph glyph-name="threequarters" unicode="&#xbe;" horiz-adv-x="883" 
d="M323 424c0 -37.333 -13.501 -68.833 -40.501 -94.5s-61.5 -38.5 -103.5 -38.5c-45.333 0 -81.166 11.667 -107.499 35s-42.5 51.666 -48.5 84.999l57 16c4 -23.333 14.833 -42.666 32.5 -57.999s39.167 -23 64.5 -23c26 0 46.667 7.5 62 22.5s23 33.5 23 55.5
s-7.5 40.333 -22.5 55s-36.5 22 -64.5 22c-5.33301 0 -14.666 -0.666992 -27.999 -2l-10 38l95 108h-197v55h274v-46l-97 -108c33.333 -4 60.166 -17.167 80.499 -39.5s30.5 -49.833 30.5 -82.5zM694.999 700l-437 -700h-65l437 700h65zM865.999 84h-52v-84h-60v84h-203v49
l144 267h67l-139 -260h131v89h60v-89h52v-56z" />
    <glyph glyph-name="questiondown" unicode="&#xbf;" horiz-adv-x="541" 
d="M276 505c16 0 29.333 -5.16699 40 -15.5s16 -23.5 16 -39.5c0 -15.333 -5.33301 -28.166 -16 -38.499s-24 -15.5 -40 -15.5s-29.333 5.16699 -40 15.5s-16 23.166 -16 38.499c0 16 5.33301 29.167 16 39.5s24 15.5 40 15.5zM312 306
c0 -33.333 -6.50098 -63.668 -19.501 -91.001s-28.667 -49.666 -47 -66.999s-36.666 -33.833 -54.999 -49.5s-34 -33 -47 -52s-19.5 -39.5 -19.5 -61.5c0 -37.333 12.667 -67.833 38 -91.5s59 -35.5 101 -35.5c42.667 0 78 12.167 106 36.5s47.333 57.5 58 99.5l70 -20
c-11.333 -54 -37 -98.833 -77 -134.5s-92.667 -53.5 -158 -53.5c-63.333 0 -115.333 18.333 -156 55s-61 83.667 -61 141c0 29.333 6.66699 56 20 80s29.5 44.333 48.5 61l56.5 49.5c18.667 16.333 34.667 35.833 48 58.5s20 47.667 20 75h74z" />
    <glyph glyph-name="Agrave" unicode="&#xc0;" horiz-adv-x="695" 
d="M320 779l-97 136h89l79 -136h-71zM523 188h-351l-76 -188h-85l287 700h99l287 -700h-85zM494 260l-146 360l-147 -360h293z" />
    <glyph glyph-name="Aacute" unicode="&#xc1;" horiz-adv-x="695" 
d="M374 779h-71l80 136h88zM523 188h-351l-76 -188h-85l287 700h99l287 -700h-85zM494 260l-146 360l-147 -360h293z" />
    <glyph glyph-name="Acircumflex" unicode="&#xc2;" horiz-adv-x="695" 
d="M277 777h-79l108 132h81l109 -132h-78l-71 91zM523 188h-351l-76 -188h-85l287 700h99l287 -700h-85zM494 260l-146 360l-147 -360h293z" />
    <glyph glyph-name="Atilde" unicode="&#xc3;" horiz-adv-x="695" 
d="M282 841c-18 0 -27.001 -18.667 -27.001 -56h-58c0 78.667 27 118 81 118c20 0 44.667 -10 74 -30s49.333 -30 60 -30c18 0 27 18.667 27 56h59c0 -78 -27 -117 -81 -117c-20 0 -44.667 9.83301 -74 29.5s-49.666 29.5 -60.999 29.5zM522.999 188h-351l-76 -188h-85
l287 700h99l287 -700h-85zM493.999 260l-146 360l-147 -360h293z" />
    <glyph glyph-name="Adieresis" unicode="&#xc4;" horiz-adv-x="695" 
d="M255 776c-13.333 0 -24.5 4.5 -33.5 13.5s-13.5 20.167 -13.5 33.5s4.5 24.333 13.5 33s20.167 13 33.5 13s24.5 -4.33301 33.5 -13s13.5 -19.667 13.5 -33s-4.5 -24.5 -13.5 -33.5s-20.167 -13.5 -33.5 -13.5zM440 776c-14 0 -25.333 4.5 -34 13.5s-13 20.167 -13 33.5
s4.33301 24.333 13 33s20 13 34 13c13.333 0 24.5 -4.33301 33.5 -13s13.5 -19.667 13.5 -33s-4.5 -24.5 -13.5 -33.5s-20.167 -13.5 -33.5 -13.5zM523 188h-351l-76 -188h-85l287 700h99l287 -700h-85zM494 260l-146 360l-147 -360h293z" />
    <glyph glyph-name="Aring" unicode="&#xc5;" horiz-adv-x="695" 
d="M347 753c-31.333 0 -57.666 10.333 -78.999 31s-32 46.334 -32 77.001s10.667 56.334 32 77.001s47.666 31 78.999 31c32 0 58.667 -10.333 80 -31s32 -46.334 32 -77.001s-10.667 -56.334 -32 -77.001s-48 -31 -80 -31zM347 917
c-17.333 0 -31.166 -5.16699 -41.499 -15.5s-15.5 -23.833 -15.5 -40.5s5.16699 -30.167 15.5 -40.5s24.166 -15.5 41.499 -15.5c18 0 32.167 5.16699 42.5 15.5s15.5 23.833 15.5 40.5s-5.16699 30.167 -15.5 40.5s-24.5 15.5 -42.5 15.5zM523 188h-351l-76 -188h-85
l287 700h99l287 -700h-85zM494 260l-146 360l-147 -360h293z" />
    <glyph glyph-name="AE" unicode="&#xc6;" horiz-adv-x="975" 
d="M554 627v-236h315v-70h-315v-248h365v-73h-443v189h-262l-114 -189h-89l426 700h483v-73h-366zM476 261v361l-218 -361h218z" />
    <glyph glyph-name="Ccedilla" unicode="&#xc7;" horiz-adv-x="780" 
d="M404 62c60.667 0 113.17 14.333 157.503 43s75.5 66 93.5 112l76 -20c-20.667 -56.667 -57.167 -104.334 -109.5 -143.001s-114.166 -60.667 -185.499 -66l-14 -46c26.667 -2 48 -10.333 64 -25s24 -32.667 24 -54c0 -26.667 -10.333 -47.5 -31 -62.5
s-46.334 -22.5 -77.001 -22.5c-38.667 0 -72.334 10.667 -101.001 32l13 44c30.667 -21.333 61 -30 91 -26s45 16.667 45 38c0 17.333 -11.167 29.166 -33.5 35.499s-45.5 6.83301 -69.5 1.5l27 85c-96 7.33301 -175.333 45.333 -238 114s-94 152 -94 250
c0 102 34.667 187.667 104 257s155.333 104 258 104c80 0 149.333 -19.833 208 -59.5s99 -90.167 121 -151.5l-78 -19c-18 45.333 -49.167 82.5 -93.5 111.5s-96.833 43.5 -157.5 43.5c-82.667 0 -150.334 -27.667 -203.001 -83s-79 -122.666 -79 -201.999
c0 -81.333 26.167 -150.166 78.5 -206.499s120.166 -84.5 203.499 -84.5z" />
    <glyph glyph-name="Egrave" unicode="&#xc8;" horiz-adv-x="623" 
d="M291 779l-97 136h89l79 -136h-71zM154 627v-236h363v-70h-363v-248h413v-73h-492v700h493v-73h-414z" />
    <glyph glyph-name="Eacute" unicode="&#xc9;" horiz-adv-x="623" 
d="M345 779h-71l80 136h88zM154 627v-236h363v-70h-363v-248h413v-73h-492v700h493v-73h-414z" />
    <glyph glyph-name="Ecircumflex" unicode="&#xca;" horiz-adv-x="623" 
d="M248 777h-79l108 132h81l109 -132h-78l-71 91zM154 627v-236h363v-70h-363v-248h413v-73h-492v700h493v-73h-414z" />
    <glyph glyph-name="Edieresis" unicode="&#xcb;" horiz-adv-x="623" 
d="M226 776c-13.333 0 -24.5 4.5 -33.5 13.5s-13.5 20.167 -13.5 33.5s4.5 24.333 13.5 33s20.167 13 33.5 13s24.5 -4.33301 33.5 -13s13.5 -19.667 13.5 -33s-4.5 -24.5 -13.5 -33.5s-20.167 -13.5 -33.5 -13.5zM411 776c-14 0 -25.333 4.5 -34 13.5s-13 20.167 -13 33.5
s4.33301 24.333 13 33s20 13 34 13c13.333 0 24.5 -4.33301 33.5 -13s13.5 -19.667 13.5 -33s-4.5 -24.5 -13.5 -33.5s-20.167 -13.5 -33.5 -13.5zM154 627v-236h363v-70h-363v-248h413v-73h-492v700h493v-73h-414z" />
    <glyph glyph-name="Igrave" unicode="&#xcc;" horiz-adv-x="230" 
d="M88 779l-97 136h89l79 -136h-71zM75 700h80v-700h-80v700z" />
    <glyph glyph-name="Iacute" unicode="&#xcd;" horiz-adv-x="230" 
d="M152 915h88l-97 -136h-71zM75 700h80v-700h-80v700z" />
    <glyph glyph-name="Icircumflex" unicode="&#xce;" horiz-adv-x="230" 
d="M265 777h-78l-71 91l-70 -91h-79l108 132h81zM75 700h80v-700h-80v700z" />
    <glyph glyph-name="Idieresis" unicode="&#xcf;" horiz-adv-x="230" 
d="M23 776c-13.333 0 -24.5 4.5 -33.5 13.5s-13.5 20.167 -13.5 33.5s4.5 24.333 13.5 33s20.167 13 33.5 13s24.5 -4.33301 33.5 -13s13.5 -19.667 13.5 -33s-4.5 -24.5 -13.5 -33.5s-20.167 -13.5 -33.5 -13.5zM208 776c-14 0 -25.333 4.5 -34 13.5s-13 20.167 -13 33.5
s4.33301 24.333 13 33s20 13 34 13c13.333 0 24.5 -4.33301 33.5 -13s13.5 -19.667 13.5 -33s-4.5 -24.5 -13.5 -33.5s-20.167 -13.5 -33.5 -13.5zM75 700h80v-700h-80v700z" />
    <glyph glyph-name="Eth" unicode="&#xd0;" horiz-adv-x="758" 
d="M372 700c106 0 189.833 -32.667 251.5 -98s92.5 -149.333 92.5 -252s-30.833 -186.667 -92.5 -252s-145.5 -98 -251.5 -98h-266v315h-71v69h71v316h266zM371 73c82.667 0 147.5 26 194.5 78s70.5 119 70.5 201c0 80 -23.5 146 -70.5 198s-111.833 78 -194.5 78h-186v-244
h217v-69h-217v-242h186z" />
    <glyph glyph-name="Ntilde" unicode="&#xd1;" horiz-adv-x="723" 
d="M297 841c-18 0 -27.001 -18.667 -27.001 -56h-58c0 78.667 27 118 81 118c20 0 44.667 -10 74 -30s49.333 -30 60 -30c18 0 27 18.667 27 56h59c0 -78 -27 -117 -81 -117c-20 0 -44.667 9.83301 -74 29.5s-49.666 29.5 -60.999 29.5zM647.999 700v-700h-69l-424 560v-560
h-80v700h69l425 -561v561h79z" />
    <glyph glyph-name="Ograve" unicode="&#xd2;" horiz-adv-x="806" 
d="M376 779l-97 136h89l79 -136h-71zM403 -13c-102.667 0 -188.5 35 -257.5 105s-103.5 156.667 -103.5 260c0 102 34.5 187.667 103.5 257s154.833 104 257.5 104s188.5 -34.667 257.5 -104s103.5 -155 103.5 -257c0 -103.333 -34.5 -190 -103.5 -260
s-154.833 -105 -257.5 -105zM403 61c82.667 0 150.167 28 202.5 84s78.5 125 78.5 207c0 80 -26.167 147.833 -78.5 203.5s-119.833 83.5 -202.5 83.5s-150.167 -27.833 -202.5 -83.5s-78.5 -123.5 -78.5 -203.5c0 -82 26.167 -151 78.5 -207s119.833 -84 202.5 -84z" />
    <glyph glyph-name="Oacute" unicode="&#xd3;" horiz-adv-x="806" 
d="M439 915h88l-97 -136h-71zM403 -13c-102.667 0 -188.5 35 -257.5 105s-103.5 156.667 -103.5 260c0 102 34.5 187.667 103.5 257s154.833 104 257.5 104s188.5 -34.667 257.5 -104s103.5 -155 103.5 -257c0 -103.333 -34.5 -190 -103.5 -260s-154.833 -105 -257.5 -105z
M403 61c82.667 0 150.167 28 202.5 84s78.5 125 78.5 207c0 80 -26.167 147.833 -78.5 203.5s-119.833 83.5 -202.5 83.5s-150.167 -27.833 -202.5 -83.5s-78.5 -123.5 -78.5 -203.5c0 -82 26.167 -151 78.5 -207s119.833 -84 202.5 -84z" />
    <glyph glyph-name="Ocircumflex" unicode="&#xd4;" horiz-adv-x="806" 
d="M334 777h-79l108 132h81l109 -132h-78l-71 91zM403 713c102.667 0 188.5 -34.667 257.5 -104s103.5 -155 103.5 -257c0 -103.333 -34.5 -190 -103.5 -260s-154.833 -105 -257.5 -105s-188.5 35 -257.5 105s-103.5 156.667 -103.5 260c0 102 34.5 187.667 103.5 257
s154.833 104 257.5 104zM403 61c82.667 0 150.167 28 202.5 84s78.5 125 78.5 207c0 80 -26.167 147.833 -78.5 203.5s-119.833 83.5 -202.5 83.5s-150.167 -27.833 -202.5 -83.5s-78.5 -123.5 -78.5 -203.5c0 -82 26.167 -151 78.5 -207s119.833 -84 202.5 -84z" />
    <glyph glyph-name="Otilde" unicode="&#xd5;" horiz-adv-x="806" 
d="M473 782c-20 0 -44.668 9.83301 -74.001 29.5s-49.666 29.5 -60.999 29.5c-18 0 -27 -18.667 -27 -56h-58c0 78.667 27 118 81 118c20 0 44.667 -10 74 -30s49.333 -30 60 -30c18 0 27 18.667 27 56h59c0 -78 -27 -117 -81 -117zM402.999 -13
c-102.667 0 -188.5 35 -257.5 105s-103.5 156.667 -103.5 260c0 102 34.5 187.667 103.5 257s154.833 104 257.5 104s188.5 -34.667 257.5 -104s103.5 -155 103.5 -257c0 -103.333 -34.5 -190 -103.5 -260s-154.833 -105 -257.5 -105zM402.999 61
c82.667 0 150.167 28 202.5 84s78.5 125 78.5 207c0 80 -26.167 147.833 -78.5 203.5s-119.833 83.5 -202.5 83.5s-150.167 -27.833 -202.5 -83.5s-78.5 -123.5 -78.5 -203.5c0 -82 26.167 -151 78.5 -207s119.833 -84 202.5 -84z" />
    <glyph glyph-name="Odieresis" unicode="&#xd6;" horiz-adv-x="806" 
d="M311 776c-13.333 0 -24.5 4.5 -33.5 13.5s-13.5 20.167 -13.5 33.5s4.5 24.333 13.5 33s20.167 13 33.5 13s24.5 -4.33301 33.5 -13s13.5 -19.667 13.5 -33s-4.5 -24.5 -13.5 -33.5s-20.167 -13.5 -33.5 -13.5zM496 776c-14 0 -25.333 4.5 -34 13.5s-13 20.167 -13 33.5
s4.33301 24.333 13 33s20 13 34 13c13.333 0 24.5 -4.33301 33.5 -13s13.5 -19.667 13.5 -33s-4.5 -24.5 -13.5 -33.5s-20.167 -13.5 -33.5 -13.5zM403 -13c-102.667 0 -188.5 35 -257.5 105s-103.5 156.667 -103.5 260c0 102 34.5 187.667 103.5 257s154.833 104 257.5 104
s188.5 -34.667 257.5 -104s103.5 -155 103.5 -257c0 -103.333 -34.5 -190 -103.5 -260s-154.833 -105 -257.5 -105zM403 61c82.667 0 150.167 28 202.5 84s78.5 125 78.5 207c0 80 -26.167 147.833 -78.5 203.5s-119.833 83.5 -202.5 83.5s-150.167 -27.833 -202.5 -83.5
s-78.5 -123.5 -78.5 -203.5c0 -82 26.167 -151 78.5 -207s119.833 -84 202.5 -84z" />
    <glyph glyph-name="multiply" unicode="&#xd7;" horiz-adv-x="503" 
d="M297 351l135 -135l-45 -47l-135 136l-135 -135l-47 46l136 135l-135 135l45 46l135 -135l136 135l46 -45z" />
    <glyph glyph-name="Oslash" unicode="&#xd8;" horiz-adv-x="806" 
d="M638 630c39.333 -33.333 70.167 -74 92.5 -122s33.5 -100 33.5 -156c0 -103.333 -34.5 -190 -103.5 -260s-154.833 -105 -257.5 -105c-66.667 0 -127.667 15.667 -183 47l-33 -47h-65l54 77c-42 33.333 -74.833 75 -98.5 125s-35.5 104.333 -35.5 163
c0 102 34.5 187.667 103.5 257s154.833 104 257.5 104c69.333 0 133 -17.333 191 -52l36 52h66zM122.001 352c0 -94 32.666 -169 97.999 -225l331 472c-43.333 26.667 -92.666 40 -147.999 40c-82.667 0 -150.167 -27.833 -202.5 -83.5s-78.5 -123.5 -78.5 -203.5zM403 61
c82.667 0 150.166 28 202.499 84s78.5 125 78.5 207c0 87.333 -30 159 -90 215l-331 -471c42.667 -23.333 89.334 -35 140.001 -35z" />
    <glyph glyph-name="Ugrave" unicode="&#xd9;" horiz-adv-x="708" 
d="M327 779l-97 136h89l79 -136h-71zM642 700l-0.000976562 -422c0 -88 -25.5 -158.5 -76.5 -211.5s-121.5 -79.5 -211.5 -79.5s-160.5 26.5 -211.5 79.5s-76.5 123.5 -76.5 211.5v422h81v-420c0 -66.667 17.833 -119.834 53.5 -159.501s86.834 -59.5 153.501 -59.5
s118 19.833 154 59.5s54 92.834 54 159.501v420h80z" />
    <glyph glyph-name="Uacute" unicode="&#xda;" horiz-adv-x="708" 
d="M381 779h-71l80 136h88zM642 700l-0.000976562 -422c0 -88 -25.5 -158.5 -76.5 -211.5s-121.5 -79.5 -211.5 -79.5s-160.5 26.5 -211.5 79.5s-76.5 123.5 -76.5 211.5v422h81v-420c0 -66.667 17.833 -119.834 53.5 -159.501s86.834 -59.5 153.501 -59.5
s118 19.833 154 59.5s54 92.834 54 159.501v420h80z" />
    <glyph glyph-name="Ucircumflex" unicode="&#xdb;" horiz-adv-x="708" 
d="M284 777h-79l108 132h81l109 -132h-78l-71 91zM642 700l-0.000976562 -422c0 -88 -25.5 -158.5 -76.5 -211.5s-121.5 -79.5 -211.5 -79.5s-160.5 26.5 -211.5 79.5s-76.5 123.5 -76.5 211.5v422h81v-420c0 -66.667 17.833 -119.834 53.5 -159.501
s86.834 -59.5 153.501 -59.5s118 19.833 154 59.5s54 92.834 54 159.501v420h80z" />
    <glyph glyph-name="Udieresis" unicode="&#xdc;" horiz-adv-x="708" 
d="M262 776c-13.333 0 -24.5 4.5 -33.5 13.5s-13.5 20.167 -13.5 33.5s4.5 24.333 13.5 33s20.167 13 33.5 13s24.5 -4.33301 33.5 -13s13.5 -19.667 13.5 -33s-4.5 -24.5 -13.5 -33.5s-20.167 -13.5 -33.5 -13.5zM447 776c-14 0 -25.333 4.5 -34 13.5s-13 20.167 -13 33.5
s4.33301 24.333 13 33s20 13 34 13c13.333 0 24.5 -4.33301 33.5 -13s13.5 -19.667 13.5 -33s-4.5 -24.5 -13.5 -33.5s-20.167 -13.5 -33.5 -13.5zM642 700l-0.000976562 -422c0 -88 -25.5 -158.5 -76.5 -211.5s-121.5 -79.5 -211.5 -79.5s-160.5 26.5 -211.5 79.5
s-76.5 123.5 -76.5 211.5v422h81v-420c0 -66.667 17.833 -119.834 53.5 -159.501s86.834 -59.5 153.501 -59.5s118 19.833 154 59.5s54 92.834 54 159.501v420h80z" />
    <glyph glyph-name="Yacute" unicode="&#xdd;" horiz-adv-x="652" 
d="M354 779h-71l80 136h88zM641 700l-275 -432v-268h-80v268l-275 432h91l224 -357l225 357h90z" />
    <glyph glyph-name="Thorn" unicode="&#xde;" horiz-adv-x="643" 
d="M384 586c70 0 125.667 -23.001 167 -69.001s62 -98.333 62 -157c0 -59.333 -20.833 -111.666 -62.5 -156.999s-98.5 -68 -170.5 -68h-226v-135h-79v700h79v-114h230zM378 206.999c48 0 86.333 15.168 115 45.501s43 66.166 43 107.499s-14.333 77.333 -43 108
s-65.667 46 -111 46h-228v-307h224z" />
    <glyph glyph-name="germandbls" unicode="&#xdf;" horiz-adv-x="590" 
d="M407 396c42 -14 75.166 -37.001 99.499 -69.001s36.5 -71.667 36.5 -119c0 -65.333 -21.667 -116.333 -65 -153s-101.333 -55 -174 -55h-68v70h67c50.667 0 90.5 12.5 119.5 37.5s43.5 59.167 43.5 102.5c0 44.667 -13.667 79.334 -41 104.001s-65.333 37 -114 37h-53v65
h22c43.333 0 78.166 12 104.499 36s39.5 55.667 39.5 95c0 36.667 -12 66.5 -36 89.5s-55.333 34.5 -94 34.5c-47.333 0 -83.666 -15.167 -108.999 -45.5s-38 -72.5 -38 -126.5v-499h-77v499c0 73.333 19.833 132 59.5 176s93.834 66 162.501 66
c60 0 109.667 -17.833 149 -53.5s59 -81.5 59 -137.5c0 -72 -31 -123.333 -93 -154z" />
    <glyph glyph-name="agrave" unicode="&#xe0;" horiz-adv-x="644" 
d="M281 578l-97 136h89l79 -136h-71zM295 -13c-72 0 -132 24.999 -180 74.999s-72 112.667 -72 188c0 74.667 24 136.834 72 186.501s108 74.5 180 74.5c87.333 0 153 -34 197 -102v90h77v-499h-77v91c-43.333 -69.333 -109 -104 -197 -104zM306 56.999
c52 0 96.333 18.3301 133 54.9971s55 82.334 55 137.001s-18.333 100.334 -55 137.001s-81 55 -133 55c-54.667 0 -99.5 -18 -134.5 -54s-52.5 -82 -52.5 -138c0 -55.333 17.5 -101.166 52.5 -137.499s79.833 -54.5 134.5 -54.5z" />
    <glyph glyph-name="aacute" unicode="&#xe1;" horiz-adv-x="644" 
d="M344 714h88l-97 -136h-71zM295 -13c-72 0 -132 24.999 -180 74.999s-72 112.667 -72 188c0 74.667 24 136.834 72 186.501s108 74.5 180 74.5c87.333 0 153 -34 197 -102v90h77v-499h-77v91c-43.333 -69.333 -109 -104 -197 -104zM306 56.999
c52 0 96.333 18.3301 133 54.9971s55 82.334 55 137.001s-18.333 100.334 -55 137.001s-81 55 -133 55c-54.667 0 -99.5 -18 -134.5 -54s-52.5 -82 -52.5 -138c0 -55.333 17.5 -101.166 52.5 -137.499s79.833 -54.5 134.5 -54.5z" />
    <glyph glyph-name="acircumflex" unicode="&#xe2;" horiz-adv-x="644" 
d="M238 576h-79l108 132h81l109 -132h-78l-71 91zM569 499v-499.001h-77v91c-43.333 -69.333 -109 -104 -197 -104c-72 0 -132 25 -180 75s-72 112.667 -72 188c0 74.667 24 136.834 72 186.501s108 74.5 180 74.5c87.333 0 153 -34 197 -102v90h77zM306 56.999
c52 0 96.333 18.3301 133 54.9971s55 82.334 55 137.001s-18.333 100.334 -55 137.001s-81 55 -133 55c-54.667 0 -99.5 -18 -134.5 -54s-52.5 -82 -52.5 -138c0 -55.333 17.5 -101.166 52.5 -137.499s79.833 -54.5 134.5 -54.5z" />
    <glyph glyph-name="atilde" unicode="&#xe3;" horiz-adv-x="644" 
d="M378 581c-20 0 -44.668 9.83301 -74.001 29.5s-49.666 29.5 -60.999 29.5c-18 0 -27 -18.667 -27 -56h-58c0 78.667 27 118 81 118c20 0 44.667 -10 74 -30s49.333 -30 60 -30c18 0 27 18.667 27 56h59c0 -78 -27 -117 -81 -117zM294.999 -13
c-72 0 -132 24.999 -180 74.999s-72 112.667 -72 188c0 74.667 24 136.834 72 186.501s108 74.5 180 74.5c87.333 0 153 -34 197 -102v90h77v-499h-77v91c-43.333 -69.333 -109 -104 -197 -104zM305.999 56.999c52 0 96.333 18.3301 133 54.9971s55 82.334 55 137.001
s-18.333 100.334 -55 137.001s-81 55 -133 55c-54.667 0 -99.5 -18 -134.5 -54s-52.5 -82 -52.5 -138c0 -55.333 17.5 -101.166 52.5 -137.499s79.833 -54.5 134.5 -54.5z" />
    <glyph glyph-name="adieresis" unicode="&#xe4;" horiz-adv-x="644" 
d="M216 575c-13.333 0 -24.5 4.5 -33.5 13.5s-13.5 20.167 -13.5 33.5s4.5 24.333 13.5 33s20.167 13 33.5 13s24.5 -4.33301 33.5 -13s13.5 -19.667 13.5 -33s-4.5 -24.5 -13.5 -33.5s-20.167 -13.5 -33.5 -13.5zM401 575c-14 0 -25.333 4.5 -34 13.5s-13 20.167 -13 33.5
s4.33301 24.333 13 33s20 13 34 13c13.333 0 24.5 -4.33301 33.5 -13s13.5 -19.667 13.5 -33s-4.5 -24.5 -13.5 -33.5s-20.167 -13.5 -33.5 -13.5zM295 -13c-72 0 -132 24.999 -180 74.999s-72 112.667 -72 188c0 74.667 24 136.834 72 186.501s108 74.5 180 74.5
c87.333 0 153 -34 197 -102v90h77v-499h-77v91c-43.333 -69.333 -109 -104 -197 -104zM306 56.999c52 0 96.333 18.3301 133 54.9971s55 82.334 55 137.001s-18.333 100.334 -55 137.001s-81 55 -133 55c-54.667 0 -99.5 -18 -134.5 -54s-52.5 -82 -52.5 -138
c0 -55.333 17.5 -101.166 52.5 -137.499s79.833 -54.5 134.5 -54.5z" />
    <glyph glyph-name="aring" unicode="&#xe5;" horiz-adv-x="644" 
d="M308 552c-31.333 0 -57.666 10.333 -78.999 31s-32 46.334 -32 77.001s10.667 56.334 32 77.001s47.666 31 78.999 31c32 0 58.667 -10.333 80 -31s32 -46.334 32 -77.001s-10.667 -56.334 -32 -77.001s-48 -31 -80 -31zM308 604c18 0 32.167 5.16699 42.5 15.5
s15.5 23.833 15.5 40.5s-5.16699 30.167 -15.5 40.5s-24.5 15.5 -42.5 15.5c-17.333 0 -31.166 -5.16699 -41.499 -15.5s-15.5 -23.833 -15.5 -40.5s5.16699 -30.167 15.5 -40.5s24.166 -15.5 41.499 -15.5zM295 -13c-72 0 -132 24.999 -180 74.999s-72 112.667 -72 188
c0 74.667 24 136.834 72 186.501s108 74.5 180 74.5c87.333 0 153 -34 197 -102v90h77v-499h-77v91c-43.333 -69.333 -109 -104 -197 -104zM306 56.999c52 0 96.333 18.3301 133 54.9971s55 82.334 55 137.001s-18.333 100.334 -55 137.001s-81 55 -133 55
c-54.667 0 -99.5 -18 -134.5 -54s-52.5 -82 -52.5 -138c0 -55.333 17.5 -101.166 52.5 -137.499s79.833 -54.5 134.5 -54.5z" />
    <glyph glyph-name="ae" unicode="&#xe6;" horiz-adv-x="1041" 
d="M999 258c0 -7.33301 -0.669922 -19.667 -2.00293 -37h-426c4.66699 -50 23.834 -90.167 57.501 -120.5s75.5 -45.5 125.5 -45.5c36.667 0 68.334 7.66699 95.001 23s46.334 34.666 59.001 57.999l71 -21c-19.333 -38 -47.5 -68.833 -84.5 -92.5s-82.5 -35.5 -136.5 -35.5
c-86 0 -150.667 33.333 -194 100v-87h-72v91c-43.333 -69.333 -109 -104 -197 -104c-72 0 -132 25 -180 75s-72 112.667 -72 188c0 74.667 24 136.834 72 186.501s108 74.5 180 74.5c87.333 0 153 -34 197 -102v90h72v-89c44 67.333 107.333 101 190 101
c74.667 0 134.167 -23.833 178.5 -71.5s66.5 -108.167 66.5 -181.5zM923.997 279.999c-3.33301 48.667 -20.333 88.166 -51 118.499s-71.667 45.5 -123 45.5c-49.333 0 -90.833 -16.167 -124.5 -48.5s-52.167 -71.166 -55.5 -116.499zM305.997 56.998
c52 0 96.333 18.3301 133 54.9971s55 82.334 55 137.001s-18.333 100.334 -55 137.001s-81 55 -133 55c-54.667 0 -99.5 -18 -134.5 -54s-52.5 -82 -52.5 -138c0 -55.333 17.5 -101.166 52.5 -137.499s79.833 -54.5 134.5 -54.5z" />
    <glyph glyph-name="ccedilla" unicode="&#xe7;" horiz-adv-x="577" 
d="M303 57c39.333 0 73.502 9.83496 102.502 29.502s47.833 43.167 56.5 70.5l72 -19c-10 -35.333 -32.5 -67.5 -67.5 -96.5s-77.833 -46.5 -128.5 -52.5l-15 -47c26.667 -2 48 -10.333 64 -25s24 -32.667 24 -54c0 -26.667 -10.333 -47.5 -31 -62.5
s-46.334 -22.5 -77.001 -22.5c-38.667 0 -72.334 10.667 -101.001 32l13 44c30.667 -21.333 61 -30 91 -26s45 16.667 45 38c0 17.333 -11.167 29.166 -33.5 35.499s-45.5 6.83301 -69.5 1.5l27 85c-67.333 6.66699 -122.833 34.5 -166.5 83.5s-65.5 108.833 -65.5 179.5
c0 74 24.667 135.833 74 185.5s111.333 74.5 186 74.5c59.333 0 109.833 -15.5 151.5 -46.5s68.167 -65.833 79.5 -104.5l-72 -21c-8.66699 27.333 -27.667 51.333 -57 72s-63.333 31 -102 31c-54.667 0 -99 -18.833 -133 -56.5s-51 -83.167 -51 -136.5
c0 -52.667 17.167 -97.834 51.5 -135.501s78.5 -56.5 132.5 -56.5z" />
    <glyph glyph-name="egrave" unicode="&#xe8;" horiz-adv-x="590" 
d="M272 578l-97 136h89l79 -136h-71zM306 -13c-77.333 0 -140.499 24 -189.499 72s-73.5 111.667 -73.5 191c0 74.667 23.667 136.834 71 186.501s108.333 74.5 183 74.5c77.333 0 138.333 -23.667 183 -71s67 -107 67 -179c0 -15.333 -0.666992 -27.333 -2 -36h-426
c3.33301 -50.667 21.666 -91.667 54.999 -123s77.333 -47 132 -47c40.667 0 75 9.16699 103 27.5s48.667 41.5 62 69.5l71 -21c-18.667 -40.667 -48 -74.834 -88 -102.501s-89.333 -41.5 -148 -41.5zM471.001 283c-3.33301 48 -20.333 86.667 -51 116s-71.667 44 -123 44
c-49.333 0 -90.5 -15.667 -123.5 -47s-51.167 -69.333 -54.5 -114z" />
    <glyph glyph-name="eacute" unicode="&#xe9;" horiz-adv-x="590" 
d="M335 714h88l-97 -136h-71zM306 -13c-77.333 0 -140.499 24 -189.499 72s-73.5 111.667 -73.5 191c0 74.667 23.667 136.834 71 186.501s108.333 74.5 183 74.5c77.333 0 138.333 -23.667 183 -71s67 -107 67 -179c0 -15.333 -0.666992 -27.333 -2 -36h-426
c3.33301 -50.667 21.666 -91.667 54.999 -123s77.333 -47 132 -47c40.667 0 75 9.16699 103 27.5s48.667 41.5 62 69.5l71 -21c-18.667 -40.667 -48 -74.834 -88 -102.501s-89.333 -41.5 -148 -41.5zM471.001 283c-3.33301 48 -20.333 86.667 -51 116s-71.667 44 -123 44
c-49.333 0 -90.5 -15.667 -123.5 -47s-51.167 -69.333 -54.5 -114z" />
    <glyph glyph-name="ecircumflex" unicode="&#xea;" horiz-adv-x="590" 
d="M229 576h-79l108 132h81l109 -132h-78l-71 91zM547 261c0 -15.333 -0.666016 -27.333 -1.99902 -36h-426c3.33301 -50.667 21.666 -91.667 54.999 -123s77.333 -47 132 -47c40.667 0 75 9.16699 103 27.5s48.667 41.5 62 69.5l71 -21
c-18.667 -40.667 -48 -74.834 -88 -102.501s-89.333 -41.5 -148 -41.5c-77.333 0 -140.5 24 -189.5 72s-73.5 111.667 -73.5 191c0 74.667 23.667 136.834 71 186.501s108.333 74.5 183 74.5c77.333 0 138.333 -23.667 183 -71s67 -107 67 -179zM471.001 283
c-3.33301 48 -20.333 86.667 -51 116s-71.667 44 -123 44c-49.333 0 -90.5 -15.667 -123.5 -47s-51.167 -69.333 -54.5 -114z" />
    <glyph glyph-name="edieresis" unicode="&#xeb;" horiz-adv-x="590" 
d="M206 575c-13.333 0 -24.5 4.5 -33.5 13.5s-13.5 20.167 -13.5 33.5s4.5 24.333 13.5 33s20.167 13 33.5 13s24.5 -4.33301 33.5 -13s13.5 -19.667 13.5 -33s-4.5 -24.5 -13.5 -33.5s-20.167 -13.5 -33.5 -13.5zM391 575c-14 0 -25.333 4.5 -34 13.5s-13 20.167 -13 33.5
s4.33301 24.333 13 33s20 13 34 13c13.333 0 24.5 -4.33301 33.5 -13s13.5 -19.667 13.5 -33s-4.5 -24.5 -13.5 -33.5s-20.167 -13.5 -33.5 -13.5zM306 -13c-77.333 0 -140.499 24 -189.499 72s-73.5 111.667 -73.5 191c0 74.667 23.667 136.834 71 186.501
s108.333 74.5 183 74.5c77.333 0 138.333 -23.667 183 -71s67 -107 67 -179c0 -15.333 -0.666992 -27.333 -2 -36h-426c3.33301 -50.667 21.666 -91.667 54.999 -123s77.333 -47 132 -47c40.667 0 75 9.16699 103 27.5s48.667 41.5 62 69.5l71 -21
c-18.667 -40.667 -48 -74.834 -88 -102.501s-89.333 -41.5 -148 -41.5zM471.001 283c-3.33301 48 -20.333 86.667 -51 116s-71.667 44 -123 44c-49.333 0 -90.5 -15.667 -123.5 -47s-51.167 -69.333 -54.5 -114z" />
    <glyph glyph-name="igrave" unicode="&#xec;" horiz-adv-x="228" 
d="M86 578l-97 136h89l79 -136h-71zM75 499h78v-499h-78v499z" />
    <glyph glyph-name="iacute" unicode="&#xed;" horiz-adv-x="228" 
d="M149 714h88l-97 -136h-71zM75 499h78v-499h-78v499z" />
    <glyph glyph-name="icircumflex" unicode="&#xee;" horiz-adv-x="228" 
d="M262 576h-78l-71 91l-70 -91h-79l108 132h81zM75 499h78v-499h-78v499z" />
    <glyph glyph-name="idieresis" unicode="&#xef;" horiz-adv-x="228" 
d="M36 575c-13.333 0 -24.5 4.5 -33.5 13.5s-13.5 20.167 -13.5 33.5s4.5 24.333 13.5 33s20.167 13 33.5 13c14 0 25.5 -4.33301 34.5 -13s13.5 -19.667 13.5 -33s-4.5 -24.5 -13.5 -33.5s-20.5 -13.5 -34.5 -13.5zM191 575c-13.333 0 -24.5 4.5 -33.5 13.5
s-13.5 20.167 -13.5 33.5s4.5 24.333 13.5 33s20.167 13 33.5 13s24.5 -4.33301 33.5 -13s13.5 -19.667 13.5 -33s-4.5 -24.5 -13.5 -33.5s-20.167 -13.5 -33.5 -13.5zM75 499h78v-499h-78v499z" />
    <glyph glyph-name="eth" unicode="&#xf0;" horiz-adv-x="611" 
d="M416 589c100 -108 150 -222.667 150 -344c0 -76.667 -24.333 -139 -73 -187s-111 -72 -187 -72c-74 0 -136 24 -186 72s-75 107.333 -75 178c0 71.333 24.333 129.166 73 173.499s109.667 66.5 183 66.5c57.333 0 105.333 -15.333 144 -46
c-26 48.667 -60.333 95.334 -103 140.001l-196 -49l-12 49l164 42c-32.667 28.667 -71 58 -115 88h107c29.333 -22 57.333 -45 84 -69l119 30l12 -50zM306 58c54.667 0 98.667 16.5 132 49.5s50 75.167 50 126.5c0 49.333 -16.667 90.333 -50 123s-77.333 49 -132 49
s-98.667 -16.167 -132 -48.5s-50 -72.833 -50 -121.5c0 -52 16.667 -94.667 50 -128s77.333 -50 132 -50z" />
    <glyph glyph-name="ntilde" unicode="&#xf1;" 
d="M243 640c-18 0 -27.001 -18.667 -27.001 -56h-58c0 78.667 27 118 81 118c20 0 44.667 -10 74 -30s49.333 -30 60 -30c18 0 27 18.667 27 56h59c0 -78 -27 -117 -81 -117c-20 0 -44.667 9.83301 -74 29.5s-49.666 29.5 -60.999 29.5zM336.999 511
c62 0 110.832 -19.333 146.499 -58s53.5 -92 53.5 -160v-293h-77v282c0 49.333 -12.167 87.833 -36.5 115.5s-58.833 41.5 -103.5 41.5c-50 0 -90.5 -17.333 -121.5 -52s-46.5 -80 -46.5 -136v-251h-77v499h77v-88c18.667 30 43.834 54.167 75.501 72.5
s68.167 27.5 109.5 27.5z" />
    <glyph glyph-name="ograve" unicode="&#xf2;" horiz-adv-x="613" 
d="M280 578l-97 136h89l79 -136h-71zM307 -13c-75.333 0 -138.166 25.167 -188.499 75.5s-75.5 112.833 -75.5 187.5s25.167 136.834 75.5 186.501s113.166 74.5 188.499 74.5s138 -24.833 188 -74.5s75 -111.834 75 -186.501s-25 -137.167 -75 -187.5
s-112.667 -75.5 -188 -75.5zM307 58c53.333 0 97.833 18.167 133.5 54.5s53.5 81.833 53.5 136.5s-17.833 100.334 -53.5 137.001s-80.167 55 -133.5 55c-54 0 -99 -18.333 -135 -55s-54 -82.334 -54 -137.001s18 -100.167 54 -136.5s81 -54.5 135 -54.5z" />
    <glyph glyph-name="oacute" unicode="&#xf3;" horiz-adv-x="613" 
d="M343 714h88l-97 -136h-71zM307 -13c-75.333 0 -138.166 25.167 -188.499 75.5s-75.5 112.833 -75.5 187.5s25.167 136.834 75.5 186.501s113.166 74.5 188.499 74.5s138 -24.833 188 -74.5s75 -111.834 75 -186.501s-25 -137.167 -75 -187.5s-112.667 -75.5 -188 -75.5z
M307 58c53.333 0 97.833 18.167 133.5 54.5s53.5 81.833 53.5 136.5s-17.833 100.334 -53.5 137.001s-80.167 55 -133.5 55c-54 0 -99 -18.333 -135 -55s-54 -82.334 -54 -137.001s18 -100.167 54 -136.5s81 -54.5 135 -54.5z" />
    <glyph glyph-name="ocircumflex" unicode="&#xf4;" horiz-adv-x="613" 
d="M237 576h-79l108 132h81l109 -132h-78l-71 91zM307 511c75.333 0 138 -24.833 188 -74.5s75 -111.834 75 -186.501s-25 -137.167 -75 -187.5s-112.667 -75.5 -188 -75.5s-138.166 25.167 -188.499 75.5s-75.5 112.833 -75.5 187.5s25.167 136.834 75.5 186.501
s113.166 74.5 188.499 74.5zM307 58c53.333 0 97.833 18.167 133.5 54.5s53.5 81.833 53.5 136.5s-17.833 100.334 -53.5 137.001s-80.167 55 -133.5 55c-54 0 -99 -18.333 -135 -55s-54 -82.334 -54 -137.001s18 -100.167 54 -136.5s81 -54.5 135 -54.5z" />
    <glyph glyph-name="otilde" unicode="&#xf5;" horiz-adv-x="613" 
d="M377 581c-20 0 -44.668 9.83301 -74.001 29.5s-49.666 29.5 -60.999 29.5c-18 0 -27 -18.667 -27 -56h-58c0 78.667 27 118 81 118c20 0 44.667 -10 74 -30s49.333 -30 60 -30c18 0 27 18.667 27 56h59c0 -78 -27 -117 -81 -117zM306.999 -13
c-75.333 0 -138.166 25.167 -188.499 75.5s-75.5 112.833 -75.5 187.5s25.167 136.834 75.5 186.501s113.166 74.5 188.499 74.5s138 -24.833 188 -74.5s75 -111.834 75 -186.501s-25 -137.167 -75 -187.5s-112.667 -75.5 -188 -75.5zM306.999 58
c53.333 0 97.833 18.167 133.5 54.5s53.5 81.833 53.5 136.5s-17.833 100.334 -53.5 137.001s-80.167 55 -133.5 55c-54 0 -99 -18.333 -135 -55s-54 -82.334 -54 -137.001s18 -100.167 54 -136.5s81 -54.5 135 -54.5z" />
    <glyph glyph-name="odieresis" unicode="&#xf6;" horiz-adv-x="613" 
d="M215 575c-13.333 0 -24.5 4.5 -33.5 13.5s-13.5 20.167 -13.5 33.5s4.5 24.333 13.5 33s20.167 13 33.5 13s24.5 -4.33301 33.5 -13s13.5 -19.667 13.5 -33s-4.5 -24.5 -13.5 -33.5s-20.167 -13.5 -33.5 -13.5zM400 575c-14 0 -25.333 4.5 -34 13.5s-13 20.167 -13 33.5
s4.33301 24.333 13 33s20 13 34 13c13.333 0 24.5 -4.33301 33.5 -13s13.5 -19.667 13.5 -33s-4.5 -24.5 -13.5 -33.5s-20.167 -13.5 -33.5 -13.5zM307 -13c-75.333 0 -138.166 25.167 -188.499 75.5s-75.5 112.833 -75.5 187.5s25.167 136.834 75.5 186.501
s113.166 74.5 188.499 74.5s138 -24.833 188 -74.5s75 -111.834 75 -186.501s-25 -137.167 -75 -187.5s-112.667 -75.5 -188 -75.5zM307 58c53.333 0 97.833 18.167 133.5 54.5s53.5 81.833 53.5 136.5s-17.833 100.334 -53.5 137.001s-80.167 55 -133.5 55
c-54 0 -99 -18.333 -135 -55s-54 -82.334 -54 -137.001s18 -100.167 54 -136.5s81 -54.5 135 -54.5z" />
    <glyph glyph-name="divide" unicode="&#xf7;" horiz-adv-x="580" 
d="M290 471c-14 0 -26 5.16699 -36 15.5s-15 22.166 -15 35.499s5 25 15 35s22 15 36 15s26 -5 36 -15s15 -21.667 15 -35s-5 -25.166 -15 -35.499s-22 -15.5 -36 -15.5zM70 383h440v-65h-440v65zM290 129c-14 0 -26 5.16699 -36 15.5s-15 22.166 -15 35.499s5 25 15 35
s22 15 36 15s26 -5 36 -15s15 -21.667 15 -35s-5 -25.166 -15 -35.499s-22 -15.5 -36 -15.5z" />
    <glyph glyph-name="oslash" unicode="&#xf8;" horiz-adv-x="613" 
d="M480 450c60 -50.667 90.001 -117.334 90.001 -200.001c0 -74.667 -25 -137.167 -75 -187.5s-112.667 -75.5 -188 -75.5c-46.667 0 -89.667 10.333 -129 31l-22 -31h-62l42 60c-62 50 -93 117.667 -93 203c0 74.667 25.167 136.834 75.5 186.501
s113.166 74.5 188.499 74.5c46.667 0 90.667 -10.667 132 -32l23 33h61zM118.001 249c0 -58 20 -105.332 60 -141.999l219 312c-28 14.667 -58 22 -90 22c-54 0 -99 -18.333 -135 -55s-54 -82.334 -54 -137.001zM307.001 58.001c53.333 0 97.833 18.167 133.5 54.5
s53.5 81.833 53.5 136.5c0 57.333 -19 104 -57 140l-217 -311c25.333 -13.333 54.333 -20 87 -20z" />
    <glyph glyph-name="ugrave" unicode="&#xf9;" 
d="M277 578l-97 136h89l79 -136h-71zM532 499v-499.001h-77v87c-40.667 -66.667 -102 -100 -184 -100c-62.667 0 -111.834 19.333 -147.501 58s-53.5 92.334 -53.5 161.001v293h77v-282c0 -49.333 12.167 -87.833 36.5 -115.5s58.833 -41.5 103.5 -41.5
c50.667 0 91.334 17.333 122.001 52s46 80 46 136v251h77z" />
    <glyph glyph-name="uacute" unicode="&#xfa;" 
d="M331 578h-71l80 136h88zM532 499v-499.001h-77v87c-40.667 -66.667 -102 -100 -184 -100c-62.667 0 -111.834 19.333 -147.501 58s-53.5 92.334 -53.5 161.001v293h77v-282c0 -49.333 12.167 -87.833 36.5 -115.5s58.833 -41.5 103.5 -41.5
c50.667 0 91.334 17.333 122.001 52s46 80 46 136v251h77z" />
    <glyph glyph-name="ucircumflex" unicode="&#xfb;" 
d="M234 576h-79l108 132h81l109 -132h-78l-71 91zM532 499v-499.001h-77v87c-40.667 -66.667 -102 -100 -184 -100c-62.667 0 -111.834 19.333 -147.501 58s-53.5 92.334 -53.5 161.001v293h77v-282c0 -49.333 12.167 -87.833 36.5 -115.5s58.833 -41.5 103.5 -41.5
c50.667 0 91.334 17.333 122.001 52s46 80 46 136v251h77z" />
    <glyph glyph-name="udieresis" unicode="&#xfc;" 
d="M211 575c-13.333 0 -24.5 4.5 -33.5 13.5s-13.5 20.167 -13.5 33.5s4.5 24.333 13.5 33s20.167 13 33.5 13s24.5 -4.33301 33.5 -13s13.5 -19.667 13.5 -33s-4.5 -24.5 -13.5 -33.5s-20.167 -13.5 -33.5 -13.5zM396 575c-14 0 -25.333 4.5 -34 13.5s-13 20.167 -13 33.5
s4.33301 24.333 13 33s20 13 34 13c13.333 0 24.5 -4.33301 33.5 -13s13.5 -19.667 13.5 -33s-4.5 -24.5 -13.5 -33.5s-20.167 -13.5 -33.5 -13.5zM532 499v-499.001h-77v87c-40.667 -66.667 -102 -100 -184 -100c-62.667 0 -111.834 19.333 -147.501 58
s-53.5 92.334 -53.5 161.001v293h77v-282c0 -49.333 12.167 -87.833 36.5 -115.5s58.833 -41.5 103.5 -41.5c50.667 0 91.334 17.333 122.001 52s46 80 46 136v251h77z" />
    <glyph glyph-name="yacute" unicode="&#xfd;" horiz-adv-x="546" 
d="M305 578h-71l80 136h88zM535 499l-307 -709h-81l95 220l-231 489h85l185 -403l172 403h82z" />
    <glyph glyph-name="thorn" unicode="&#xfe;" horiz-adv-x="644" 
d="M349 511c72 0 131.999 -24.832 179.999 -74.499s72 -111.834 72 -186.501c0 -75.333 -24 -138 -72 -188s-108 -75 -180 -75c-44 0 -82.833 9.16699 -116.5 27.5s-60.5 43.833 -80.5 76.5v-301h-77v940h77v-321c42.667 68 108.334 102 197.001 102zM337.999 57.001
c54.667 0 99.5 18.1699 134.5 54.5029s52.5 82.166 52.5 137.499c0 56 -17.5 102 -52.5 138s-79.833 54 -134.5 54c-52 0 -96.333 -18.333 -133 -55s-55 -82.334 -55 -137.001s18.333 -100.334 55 -137.001s81 -55 133 -55z" />
    <glyph glyph-name="ydieresis" unicode="&#xff;" horiz-adv-x="546" 
d="M186 575c-13.333 0 -24.5 4.5 -33.5 13.5s-13.5 20.167 -13.5 33.5s4.5 24.333 13.5 33s20.167 13 33.5 13s24.5 -4.33301 33.5 -13s13.5 -19.667 13.5 -33s-4.5 -24.5 -13.5 -33.5s-20.167 -13.5 -33.5 -13.5zM371 575c-14 0 -25.333 4.5 -34 13.5s-13 20.167 -13 33.5
s4.33301 24.333 13 33s20 13 34 13c13.333 0 24.5 -4.33301 33.5 -13s13.5 -19.667 13.5 -33s-4.5 -24.5 -13.5 -33.5s-20.167 -13.5 -33.5 -13.5zM535 499l-307 -709h-81l95 220l-231 489h85l185 -403l172 403h82z" />
    <glyph glyph-name="Amacron" unicode="&#x100;" horiz-adv-x="695" 
d="M479 793h-263v60h263v-60zM523 188h-351l-76 -188h-85l287 700h99l287 -700h-85zM494 260l-146 360l-147 -360h293z" />
    <glyph glyph-name="amacron" unicode="&#x101;" horiz-adv-x="644" 
d="M177 652h263v-60h-263v60zM295 -13c-72 0 -132 24.999 -180 74.999s-72 112.667 -72 188c0 74.667 24 136.834 72 186.501s108 74.5 180 74.5c87.333 0 153 -34 197 -102v90h77v-499h-77v91c-43.333 -69.333 -109 -104 -197 -104zM306 56.999
c52 0 96.333 18.3301 133 54.9971s55 82.334 55 137.001s-18.333 100.334 -55 137.001s-81 55 -133 55c-54.667 0 -99.5 -18 -134.5 -54s-52.5 -82 -52.5 -138c0 -55.333 17.5 -101.166 52.5 -137.499s79.833 -54.5 134.5 -54.5z" />
    <glyph glyph-name="Abreve" unicode="&#x102;" horiz-adv-x="695" 
d="M347 766c-47.333 0 -83.833 12.667 -109.5 38s-38.5 57.333 -38.5 96h65c0.666992 -24 7.66699 -43.333 21 -58s34 -22 62 -22s48.833 7.5 62.5 22.5s20.5 34.167 20.5 57.5h65c0 -38.667 -12.833 -70.667 -38.5 -96s-62.167 -38 -109.5 -38zM523 188h-351l-76 -188h-85
l287 700h99l287 -700h-85zM494 260l-146 360l-147 -360h293z" />
    <glyph glyph-name="abreve" unicode="&#x103;" horiz-adv-x="644" 
d="M308 565c-47.333 0 -83.833 12.667 -109.5 38s-38.5 57.333 -38.5 96h65c0.666992 -24 7.66699 -43.333 21 -58s34 -22 62 -22s48.833 7.5 62.5 22.5s20.5 34.167 20.5 57.5h65c0 -38.667 -12.833 -70.667 -38.5 -96s-62.167 -38 -109.5 -38zM295 -13
c-72 0 -132 24.999 -180 74.999s-72 112.667 -72 188c0 74.667 24 136.834 72 186.501s108 74.5 180 74.5c87.333 0 153 -34 197 -102v90h77v-499h-77v91c-43.333 -69.333 -109 -104 -197 -104zM306 56.999c52 0 96.333 18.3301 133 54.9971s55 82.334 55 137.001
s-18.333 100.334 -55 137.001s-81 55 -133 55c-54.667 0 -99.5 -18 -134.5 -54s-52.5 -82 -52.5 -138c0 -55.333 17.5 -101.166 52.5 -137.499s79.833 -54.5 134.5 -54.5z" />
    <glyph glyph-name="Aogonek" unicode="&#x104;" horiz-adv-x="695" 
d="M723 -186c-21.333 -24.667 -49.999 -36.999 -85.999 -36.999c-30 0 -54.167 8.16699 -72.5 24.5s-27.5 38.833 -27.5 67.5c0 21.333 7.66699 43.666 23 66.999s35 44.666 59 63.999h-20l-76 188h-351l-76 -188h-85l287 700h99l287 -700
c-54 -45.333 -81 -85.666 -81 -120.999c0 -13.333 3.66699 -23.833 11 -31.5s17.666 -11.5 30.999 -11.5c24.667 0 45 10.667 61 32zM494.001 260.001l-146 360l-147 -360h293z" />
    <glyph glyph-name="aogonek" unicode="&#x105;" horiz-adv-x="644" 
d="M608 -186c-21.333 -24.667 -49.999 -37 -85.999 -37c-30 0 -54.167 8.16699 -72.5 24.5s-27.5 38.833 -27.5 67.5c0 21.333 7.66699 43.666 23 66.999s35 44.666 59 63.999h-12v91c-43.333 -69.333 -109 -104 -197 -104c-72 0 -132 25 -180 75s-72 112.667 -72 188
c0 74.667 24 136.834 72 186.501s108 74.5 180 74.5c87.333 0 153 -34 197 -102v90h77v-499c-54 -45.333 -81 -85.666 -81 -120.999c0 -13.333 3.66699 -23.833 11 -31.5s17.666 -11.5 30.999 -11.5c24.667 0 45 10.667 61 32zM306.001 57c52 0 96.333 18.3301 133 54.9971
s55 82.334 55 137.001s-18.333 100.334 -55 137.001s-81 55 -133 55c-54.667 0 -99.5 -18 -134.5 -54s-52.5 -82 -52.5 -138c0 -55.333 17.5 -101.166 52.5 -137.499s79.833 -54.5 134.5 -54.5z" />
    <glyph glyph-name="Cacute" unicode="&#x106;" horiz-adv-x="780" 
d="M440 915h88l-97 -136h-71zM405 -13c-103.333 0 -189.665 34.9971 -258.998 104.997s-104 156.667 -104 260c0 102 34.667 187.667 104 257s155.333 104 258 104c80 0 149.333 -19.833 208 -59.5s99 -90.167 121 -151.5l-78 -19c-18 45.333 -49.167 82.5 -93.5 111.5
s-96.833 43.5 -157.5 43.5c-82.667 0 -150.334 -27.667 -203.001 -83s-79 -122.666 -79 -201.999c0 -81.333 26.167 -150.166 78.5 -206.499s120.166 -84.5 203.499 -84.5c60.667 0 113.167 14.333 157.5 43s75.5 66 93.5 112l76 -20
c-22.667 -61.333 -63 -111.666 -121 -150.999s-126.333 -59 -205 -59z" />
    <glyph glyph-name="cacute" unicode="&#x107;" horiz-adv-x="577" 
d="M339 714h88l-97 -136h-71zM303 -13c-74.667 0 -136.668 25.1689 -186.001 75.502s-74 113.166 -74 188.499c0 74 24.667 135.833 74 185.5s111.333 74.5 186 74.5c59.333 0 109.833 -15.5 151.5 -46.5s68.167 -65.833 79.5 -104.5l-72 -21
c-8.66699 27.333 -27.667 51.333 -57 72s-63.333 31 -102 31c-54.667 0 -99 -18.833 -133 -56.5s-51 -83.167 -51 -136.5c0 -52.667 17.167 -97.834 51.5 -135.501s78.5 -56.5 132.5 -56.5c39.333 0 73.5 9.83301 102.5 29.5s47.833 43.167 56.5 70.5l72 -19
c-11.333 -39.333 -37.666 -74.333 -78.999 -105s-92 -46 -152 -46z" />
    <glyph glyph-name="Cdotaccent" unicode="&#x10a;" horiz-adv-x="780" 
d="M404 776c-15.333 0 -28.166 5 -38.499 15s-15.5 22.667 -15.5 38c0 14.667 5.16699 27 15.5 37s23.166 15 38.499 15s28.166 -5 38.499 -15s15.5 -22.333 15.5 -37c0 -15.333 -5.16699 -28 -15.5 -38s-23.166 -15 -38.499 -15zM405 -13
c-103.333 0 -189.665 34.9971 -258.998 104.997s-104 156.667 -104 260c0 102 34.667 187.667 104 257s155.333 104 258 104c80 0 149.333 -19.833 208 -59.5s99 -90.167 121 -151.5l-78 -19c-18 45.333 -49.167 82.5 -93.5 111.5s-96.833 43.5 -157.5 43.5
c-82.667 0 -150.334 -27.667 -203.001 -83s-79 -122.666 -79 -201.999c0 -81.333 26.167 -150.166 78.5 -206.499s120.166 -84.5 203.499 -84.5c60.667 0 113.167 14.333 157.5 43s75.5 66 93.5 112l76 -20c-22.667 -61.333 -63 -111.666 -121 -150.999
s-126.333 -59 -205 -59z" />
    <glyph glyph-name="cdotaccent" unicode="&#x10b;" horiz-adv-x="577" 
d="M303 575c-15.333 0 -28.166 5 -38.499 15s-15.5 22.667 -15.5 38c0 14.667 5.16699 27 15.5 37s23.166 15 38.499 15s28.166 -5 38.499 -15s15.5 -22.333 15.5 -37c0 -15.333 -5.16699 -28 -15.5 -38s-23.166 -15 -38.499 -15zM303 -13
c-74.667 0 -136.668 25.1689 -186.001 75.502s-74 113.166 -74 188.499c0 74 24.667 135.833 74 185.5s111.333 74.5 186 74.5c59.333 0 109.833 -15.5 151.5 -46.5s68.167 -65.833 79.5 -104.5l-72 -21c-8.66699 27.333 -27.667 51.333 -57 72s-63.333 31 -102 31
c-54.667 0 -99 -18.833 -133 -56.5s-51 -83.167 -51 -136.5c0 -52.667 17.167 -97.834 51.5 -135.501s78.5 -56.5 132.5 -56.5c39.333 0 73.5 9.83301 102.5 29.5s47.833 43.167 56.5 70.5l72 -19c-11.333 -39.333 -37.666 -74.333 -78.999 -105s-92 -46 -152 -46z" />
    <glyph glyph-name="Ccaron" unicode="&#x10c;" horiz-adv-x="780" 
d="M255 909h79l70 -91l71 91h78l-109 -132h-81zM404 62c60.667 0 113.168 14.3301 157.501 42.9971s75.5 66 93.5 112l76 -20c-22.667 -61.333 -63 -111.666 -121 -150.999s-126.333 -59 -205 -59c-103.333 0 -189.666 35 -258.999 105s-104 156.667 -104 260
c0 102 34.667 187.667 104 257s155.333 104 258 104c80 0 149.333 -19.833 208 -59.5s99 -90.167 121 -151.5l-78 -19c-18 45.333 -49.167 82.5 -93.5 111.5s-96.833 43.5 -157.5 43.5c-82.667 0 -150.334 -27.667 -203.001 -83s-79 -122.666 -79 -201.999
c0 -81.333 26.167 -150.166 78.5 -206.499s120.166 -84.5 203.499 -84.5z" />
    <glyph glyph-name="ccaron" unicode="&#x10d;" horiz-adv-x="577" 
d="M154 708h79l70 -91l71 91h78l-109 -132h-81zM303 57c39.333 0 73.499 9.83496 102.499 29.502s47.833 43.167 56.5 70.5l72 -19c-11.333 -39.333 -37.666 -74.333 -78.999 -105s-92 -46 -152 -46c-74.667 0 -136.667 25.167 -186 75.5s-74 113.166 -74 188.499
c0 74 24.667 135.833 74 185.5s111.333 74.5 186 74.5c59.333 0 109.833 -15.5 151.5 -46.5s68.167 -65.833 79.5 -104.5l-72 -21c-8.66699 27.333 -27.667 51.333 -57 72s-63.333 31 -102 31c-54.667 0 -99 -18.833 -133 -56.5s-51 -83.167 -51 -136.5
c0 -52.667 17.167 -97.834 51.5 -135.501s78.5 -56.5 132.5 -56.5z" />
    <glyph glyph-name="Dcaron" unicode="&#x10e;" horiz-adv-x="727" 
d="M192 909h79l70 -91l71 91h78l-109 -132h-81zM341 700c106 0 189.833 -32.667 251.5 -98s92.5 -149.333 92.5 -252s-30.833 -186.667 -92.5 -252s-145.5 -98 -251.5 -98h-266v700h266zM340 73c83.333 0 148.333 26 195 78s70 119 70 201c0 80 -23.5 146 -70.5 198
s-111.833 78 -194.5 78h-186v-555h186z" />
    <glyph glyph-name="dcaron" unicode="&#x10f;" horiz-adv-x="721" 
d="M569 730v-730.001h-77v91c-43.333 -69.333 -109 -104 -197 -104c-72 0 -132 25 -180 75s-72 112.667 -72 188c0 74.667 24 136.834 72 186.501s108 74.5 180 74.5c87.333 0 153 -34 197 -102v321h77zM727 729.999l-29 -182h-60l13 182h76zM306 56.999
c52 0 96.333 18.3301 133 54.9971s55 82.334 55 137.001s-18.333 100.334 -55 137.001s-81 55 -133 55c-54.667 0 -99.5 -18 -134.5 -54s-52.5 -82 -52.5 -138c0 -55.333 17.5 -101.166 52.5 -137.499s79.833 -54.5 134.5 -54.5z" />
    <glyph glyph-name="Dcroat" unicode="&#x110;" horiz-adv-x="758" 
d="M372 700c106 0 189.833 -32.667 251.5 -98s92.5 -149.333 92.5 -252s-30.833 -186.667 -92.5 -252s-145.5 -98 -251.5 -98h-266v315h-71v69h71v316h266zM371 73c82.667 0 147.5 26 194.5 78s70.5 119 70.5 201c0 80 -23.5 146 -70.5 198s-111.833 78 -194.5 78h-186v-244
h217v-69h-217v-242h186z" />
    <glyph glyph-name="dcroat" unicode="&#x111;" horiz-adv-x="653" 
d="M642 592l-73 -0.000976562v-592h-77v91c-43.333 -69.333 -109 -104 -197 -104c-72 0 -132 25 -180 75s-72 112.667 -72 188c0 74.667 24 136.834 72 186.501s108 74.5 180 74.5c87.333 0 153 -34 197 -102v183h-190v54h190v84h77v-84h73v-54zM306 56.999
c52 0 96.333 18.3301 133 54.9971s55 82.334 55 137.001s-18.333 100.334 -55 137.001s-81 55 -133 55c-54.667 0 -99.5 -18 -134.5 -54s-52.5 -82 -52.5 -138c0 -55.333 17.5 -101.166 52.5 -137.499s79.833 -54.5 134.5 -54.5z" />
    <glyph glyph-name="Emacron" unicode="&#x112;" horiz-adv-x="623" 
d="M450 793h-263v60h263v-60zM154 627v-236h363v-70h-363v-248h413v-73h-492v700h493v-73h-414z" />
    <glyph glyph-name="emacron" unicode="&#x113;" horiz-adv-x="590" 
d="M168 652h263v-60h-263v60zM306 -13c-77.333 0 -140.499 24 -189.499 72s-73.5 111.667 -73.5 191c0 74.667 23.667 136.834 71 186.501s108.333 74.5 183 74.5c77.333 0 138.333 -23.667 183 -71s67 -107 67 -179c0 -15.333 -0.666992 -27.333 -2 -36h-426
c3.33301 -50.667 21.666 -91.667 54.999 -123s77.333 -47 132 -47c40.667 0 75 9.16699 103 27.5s48.667 41.5 62 69.5l71 -21c-18.667 -40.667 -48 -74.834 -88 -102.501s-89.333 -41.5 -148 -41.5zM471.001 283c-3.33301 48 -20.333 86.667 -51 116s-71.667 44 -123 44
c-49.333 0 -90.5 -15.667 -123.5 -47s-51.167 -69.333 -54.5 -114z" />
    <glyph glyph-name="Edotaccent" unicode="&#x116;" horiz-adv-x="623" 
d="M318 776c-15.333 0 -28.166 5 -38.499 15s-15.5 22.667 -15.5 38c0 14.667 5.16699 27 15.5 37s23.166 15 38.499 15s28.166 -5 38.499 -15s15.5 -22.333 15.5 -37c0 -15.333 -5.16699 -28 -15.5 -38s-23.166 -15 -38.499 -15zM154 627v-236h363v-70h-363v-248h413v-73
h-492v700h493v-73h-414z" />
    <glyph glyph-name="edotaccent" unicode="&#x117;" horiz-adv-x="590" 
d="M299 575c-15.333 0 -28.166 5 -38.499 15s-15.5 22.667 -15.5 38c0 14.667 5.16699 27 15.5 37s23.166 15 38.499 15s28.166 -5 38.499 -15s15.5 -22.333 15.5 -37c0 -15.333 -5.16699 -28 -15.5 -38s-23.166 -15 -38.499 -15zM306 -13
c-77.333 0 -140.499 24 -189.499 72s-73.5 111.667 -73.5 191c0 74.667 23.667 136.834 71 186.501s108.333 74.5 183 74.5c77.333 0 138.333 -23.667 183 -71s67 -107 67 -179c0 -15.333 -0.666992 -27.333 -2 -36h-426c3.33301 -50.667 21.666 -91.667 54.999 -123
s77.333 -47 132 -47c40.667 0 75 9.16699 103 27.5s48.667 41.5 62 69.5l71 -21c-18.667 -40.667 -48 -74.834 -88 -102.501s-89.333 -41.5 -148 -41.5zM471.001 283c-3.33301 48 -20.333 86.667 -51 116s-71.667 44 -123 44c-49.333 0 -90.5 -15.667 -123.5 -47
s-51.167 -69.333 -54.5 -114z" />
    <glyph glyph-name="Eogonek" unicode="&#x118;" horiz-adv-x="623" 
d="M606 -186c-21.333 -24.667 -49.999 -36.999 -85.999 -36.999c-30 0 -54.167 8.16699 -72.5 24.5s-27.5 38.833 -27.5 67.5c0 21.333 7.66699 43.666 23 66.999s35 44.666 59 63.999h-427v700h493v-73h-414v-236h363v-70h-363v-248h413v-73
c-54 -45.333 -81 -85.666 -81 -120.999c0 -13.333 3.66699 -23.833 11 -31.5s17.666 -11.5 30.999 -11.5c24.667 0 45 10.667 61 32z" />
    <glyph glyph-name="eogonek" unicode="&#x119;" horiz-adv-x="590" 
d="M547 261c0 -15.333 -0.665039 -27.334 -1.99805 -36.001h-426c3.33301 -50.667 21.666 -91.667 54.999 -123s77.333 -47 132 -47c40.667 0 75 9.16699 103 27.5s48.667 41.5 62 69.5l71 -21c-20.667 -44 -51.667 -79.333 -93 -106c-68 -54 -102 -102.667 -102 -146
c0 -13.333 3.66699 -23.833 11 -31.5s17.666 -11.5 30.999 -11.5c24.667 0 45 10.667 61 32l17 -54c-21.333 -24.667 -50 -37 -86 -37c-30 0 -54.167 8.16699 -72.5 24.5s-27.5 38.833 -27.5 67.5c0 38.667 22.667 79 68 121c-14 -2 -28.333 -3 -43 -3
c-77.333 0 -140.5 24 -189.5 72s-73.5 111.667 -73.5 191c0 74.667 23.667 136.834 71 186.501s108.333 74.5 183 74.5c77.333 0 138.333 -23.667 183 -71s67 -107 67 -179zM471.002 282.999c-3.33301 48 -20.333 86.667 -51 116s-71.667 44 -123 44
c-49.333 0 -90.5 -15.667 -123.5 -47s-51.167 -69.333 -54.5 -114z" />
    <glyph glyph-name="Ecaron" unicode="&#x11a;" horiz-adv-x="623" 
d="M169 909h79l70 -91l71 91h78l-109 -132h-81zM154 627v-236h363v-70h-363v-248h413v-73h-492v700h493v-73h-414z" />
    <glyph glyph-name="ecaron" unicode="&#x11b;" horiz-adv-x="590" 
d="M150 708h79l70 -91l71 91h78l-109 -132h-81zM547 261c0 -15.333 -0.666016 -27.333 -1.99902 -36h-426c3.33301 -50.667 21.666 -91.667 54.999 -123s77.333 -47 132 -47c40.667 0 75 9.16699 103 27.5s48.667 41.5 62 69.5l71 -21
c-18.667 -40.667 -48 -74.834 -88 -102.501s-89.333 -41.5 -148 -41.5c-77.333 0 -140.5 24 -189.5 72s-73.5 111.667 -73.5 191c0 74.667 23.667 136.834 71 186.501s108.333 74.5 183 74.5c77.333 0 138.333 -23.667 183 -71s67 -107 67 -179zM471.001 283
c-3.33301 48 -20.333 86.667 -51 116s-71.667 44 -123 44c-49.333 0 -90.5 -15.667 -123.5 -47s-51.167 -69.333 -54.5 -114z" />
    <glyph glyph-name="Gbreve" unicode="&#x11e;" horiz-adv-x="799" 
d="M399 766c-47.333 0 -83.833 12.667 -109.5 38s-38.5 57.333 -38.5 96h65c0.666992 -24 7.66699 -43.333 21 -58s34 -22 62 -22s48.833 7.5 62.5 22.5s20.5 34.167 20.5 57.5h65c0 -38.667 -12.833 -70.667 -38.5 -96s-62.167 -38 -109.5 -38zM757 328
c-0.666992 -105.333 -33.668 -188.502 -99.001 -249.502s-148.666 -91.5 -249.999 -91.5c-104 0 -191 34.833 -261 104.5s-105 156.5 -105 260.5c0 102 34.667 187.667 104 257s155.333 104 258 104c78.667 0 147 -19.167 205 -57.5s99 -88.166 123 -149.499l-75 -20
c-20 46 -51.833 82.833 -95.5 110.5s-95.834 41.5 -156.501 41.5c-83.333 0 -151.333 -27.667 -204 -83s-79 -122.666 -79 -201.999c0 -81.333 26.5 -150.333 79.5 -207s122.833 -85 209.5 -85c76 0 138.333 21.833 187 65.5s75.334 102.167 80.001 175.5h-275v69h354v-43z
" />
    <glyph glyph-name="gbreve" unicode="&#x11f;" horiz-adv-x="642" 
d="M310 565c-47.333 0 -83.833 12.667 -109.5 38s-38.5 57.333 -38.5 96h65c0.666992 -24 7.66699 -43.333 21 -58s34 -22 62 -22s48.833 7.5 62.5 22.5s20.5 34.167 20.5 57.5h65c0 -38.667 -12.833 -70.667 -38.5 -96s-62.167 -38 -109.5 -38zM567 499
l-0.000976562 -482.002c0 -69.333 -23 -126.666 -69 -171.999s-105.333 -68 -178 -68c-109.333 0 -188.333 43.667 -237 131l68 25c35.333 -59.333 92 -89 170 -89c52 0 93 16.333 123 49s45.667 74 47 124v85c-43.333 -64 -108.666 -96 -195.999 -96
c-72.667 0 -132.834 24.167 -180.501 72.5s-71.5 108.5 -71.5 180.5c0 72.667 23.833 132.834 71.5 180.501s107.834 71.5 180.501 71.5c88 0 153.333 -31.667 196 -95v83h76zM305.999 75.998c52 0 96 17.499 132 52.499s54 78.167 54 129.5c0 52 -18 95.5 -54 130.5
s-80 52.5 -132 52.5c-54.667 0 -99.5 -17.167 -134.5 -51.5s-52.5 -78.166 -52.5 -131.499c0 -52.667 17.5 -96.167 52.5 -130.5s79.833 -51.5 134.5 -51.5z" />
    <glyph glyph-name="Gdotaccent" unicode="&#x120;" horiz-adv-x="799" 
d="M399 776c-15.333 0 -28.166 5 -38.499 15s-15.5 22.667 -15.5 38c0 14.667 5.16699 27 15.5 37s23.166 15 38.499 15s28.166 -5 38.499 -15s15.5 -22.333 15.5 -37c0 -15.333 -5.16699 -28 -15.5 -38s-23.166 -15 -38.499 -15zM757 328
c-0.666992 -105.333 -33.668 -188.502 -99.001 -249.502s-148.666 -91.5 -249.999 -91.5c-104 0 -191 34.833 -261 104.5s-105 156.5 -105 260.5c0 102 34.667 187.667 104 257s155.333 104 258 104c78.667 0 147 -19.167 205 -57.5s99 -88.166 123 -149.499l-75 -20
c-20 46 -51.833 82.833 -95.5 110.5s-95.834 41.5 -156.501 41.5c-83.333 0 -151.333 -27.667 -204 -83s-79 -122.666 -79 -201.999c0 -81.333 26.5 -150.333 79.5 -207s122.833 -85 209.5 -85c76 0 138.333 21.833 187 65.5s75.334 102.167 80.001 175.5h-275v69h354v-43z
" />
    <glyph glyph-name="gdotaccent" unicode="&#x121;" horiz-adv-x="642" 
d="M310 575c-15.333 0 -28.166 5 -38.499 15s-15.5 22.667 -15.5 38c0 14.667 5.16699 27 15.5 37s23.166 15 38.499 15s28.166 -5 38.499 -15s15.5 -22.333 15.5 -37c0 -15.333 -5.16699 -28 -15.5 -38s-23.166 -15 -38.499 -15zM567 499l-0.000976562 -482.002
c0 -69.333 -23 -126.666 -69 -171.999s-105.333 -68 -178 -68c-109.333 0 -188.333 43.667 -237 131l68 25c35.333 -59.333 92 -89 170 -89c52 0 93 16.333 123 49s45.667 74 47 124v85c-43.333 -64 -108.666 -96 -195.999 -96c-72.667 0 -132.834 24.167 -180.501 72.5
s-71.5 108.5 -71.5 180.5c0 72.667 23.833 132.834 71.5 180.501s107.834 71.5 180.501 71.5c88 0 153.333 -31.667 196 -95v83h76zM305.999 75.998c52 0 96 17.499 132 52.499s54 78.167 54 129.5c0 52 -18 95.5 -54 130.5s-80 52.5 -132 52.5
c-54.667 0 -99.5 -17.167 -134.5 -51.5s-52.5 -78.166 -52.5 -131.499c0 -52.667 17.5 -96.167 52.5 -130.5s79.833 -51.5 134.5 -51.5z" />
    <glyph glyph-name="uni0122" unicode="&#x122;" horiz-adv-x="799" 
d="M757 328c-0.666992 -105.333 -33.668 -188.502 -99.001 -249.502s-148.666 -91.5 -249.999 -91.5c-104 0 -191 34.833 -261 104.5s-105 156.5 -105 260.5c0 102 34.667 187.667 104 257s155.333 104 258 104c78.667 0 147 -19.167 205 -57.5s99 -88.166 123 -149.499
l-75 -20c-20 46 -51.833 82.833 -95.5 110.5s-95.834 41.5 -156.501 41.5c-83.333 0 -151.333 -27.667 -204 -83s-79 -122.666 -79 -201.999c0 -81.333 26.5 -150.333 79.5 -207s122.833 -85 209.5 -85c76 0 138.333 21.833 187 65.5s75.334 102.167 80.001 175.5h-275v69
h354v-43zM366.999 -71.002h75l-28 -179h-60z" />
    <glyph glyph-name="uni0123" unicode="&#x123;" horiz-adv-x="642" 
d="M345 581h-75l28 179h60zM567 499l-0.000976562 -482.002c0 -69.333 -23 -126.666 -69 -171.999s-105.333 -68 -178 -68c-109.333 0 -188.333 43.667 -237 131l68 25c35.333 -59.333 92 -89 170 -89c52 0 93 16.333 123 49s45.667 74 47 124v85
c-43.333 -64 -108.666 -96 -195.999 -96c-72.667 0 -132.834 24.167 -180.501 72.5s-71.5 108.5 -71.5 180.5c0 72.667 23.833 132.834 71.5 180.501s107.834 71.5 180.501 71.5c88 0 153.333 -31.667 196 -95v83h76zM305.999 75.998c52 0 96 17.499 132 52.499
s54 78.167 54 129.5c0 52 -18 95.5 -54 130.5s-80 52.5 -132 52.5c-54.667 0 -99.5 -17.167 -134.5 -51.5s-52.5 -78.166 -52.5 -131.499c0 -52.667 17.5 -96.167 52.5 -130.5s79.833 -51.5 134.5 -51.5z" />
    <glyph glyph-name="Hbar" unicode="&#x126;" horiz-adv-x="745" 
d="M728 519h-71v-519h-80v321h-408v-321h-80v519h-71v58h71v123h80v-123h408v123h80v-123h71v-58zM577 519h-408v-126h408v126z" />
    <glyph glyph-name="hbar" unicode="&#x127;" horiz-adv-x="614" 
d="M344 511c62 0 110.832 -19.333 146.499 -58s53.5 -92 53.5 -160v-293h-77v282c0 49.333 -12.167 87.833 -36.5 115.5s-58.833 41.5 -103.5 41.5c-50 0 -90.5 -17.333 -121.5 -52s-46.5 -80 -46.5 -136v-251h-77v592h-71v54h71v84h77v-84h192v-54h-192v-181
c18.667 30 43.834 54.167 75.501 72.5s68.167 27.5 109.5 27.5z" />
    <glyph glyph-name="Imacron" unicode="&#x12a;" horiz-adv-x="230" 
d="M-16 853h263v-60h-263v60zM75 700h80v-700h-80v700z" />
    <glyph glyph-name="imacron" unicode="&#x12b;" horiz-adv-x="228" 
d="M-18 652h263v-60h-263v60zM75 499h78v-499h-78v499z" />
    <glyph glyph-name="Iogonek" unicode="&#x12e;" horiz-adv-x="230" 
d="M207 -186c-20 -24.667 -49 -37 -87 -37c-29.333 0 -53 8.16699 -71 24.5s-27 38.5 -27 66.5c0 42 22.333 86 67 132h-14v700h80v-700c-44.667 -46 -67 -86 -67 -120c0 -29.333 13.333 -44 40 -44c24 0 45 10.667 63 32z" />
    <glyph glyph-name="iogonek" unicode="&#x12f;" horiz-adv-x="228" 
d="M113 575c-15.333 0 -28.166 5 -38.499 15s-15.5 22.667 -15.5 38c0 14.667 5.16699 27 15.5 37s23.166 15 38.499 15s28.166 -5 38.499 -15s15.5 -22.333 15.5 -37c0 -15.333 -5.16699 -28 -15.5 -38s-23.166 -15 -38.499 -15zM205 -186c-20 -24.667 -49 -37 -87 -37
c-29.333 0 -53 8.16699 -71 24.5s-27 38.5 -27 66.5c0 42 22.333 86 67 132h-12v499h78v-499c-44.667 -46 -67 -86 -67 -120c0 -29.333 13.333 -44 40 -44c24 0 45 10.667 63 32z" />
    <glyph glyph-name="Idotaccent" unicode="&#x130;" horiz-adv-x="230" 
d="M116 776c-15.333 0 -28.166 5 -38.499 15s-15.5 22.667 -15.5 38c0 14.667 5.16699 27 15.5 37s23.166 15 38.499 15s28.166 -5 38.499 -15s15.5 -22.333 15.5 -37c0 -15.333 -5.16699 -28 -15.5 -38s-23.166 -15 -38.499 -15zM75 700h80v-700h-80v700z" />
    <glyph glyph-name="dotlessi" unicode="&#x131;" horiz-adv-x="228" 
d="M75 499h78v-499h-78v499z" />
    <glyph glyph-name="uni0136" unicode="&#x136;" horiz-adv-x="678" 
d="M658 0h-98l-270 330l-135 -147v-183h-80v700h80v-410l375 410h102l-289 -314zM304 -71h75l-28 -179h-60z" />
    <glyph glyph-name="uni0137" unicode="&#x137;" horiz-adv-x="526" 
d="M511 0h-91l-192 230l-76 -79v-151h-77v730h77v-480l238 249h95l-207 -217zM250 -71h75l-28 -179h-60z" />
    <glyph glyph-name="Lacute" unicode="&#x139;" horiz-adv-x="571" 
d="M156 779h-71l80 136h88zM543 73v-73h-468v700h80v-627h388z" />
    <glyph glyph-name="lacute" unicode="&#x13a;" horiz-adv-x="227" 
d="M150 945h88l-97 -136h-71zM75 730h77v-730h-77v730z" />
    <glyph glyph-name="uni013B" unicode="&#x13b;" horiz-adv-x="571" 
d="M543 73v-73h-468v700h80v-627h388zM273 -71h75l-28 -179h-60z" />
    <glyph glyph-name="uni013C" unicode="&#x13c;" horiz-adv-x="227" 
d="M75 730h77v-730h-77v730zM76 -71h75l-28 -179h-60z" />
    <glyph glyph-name="Lcaron" unicode="&#x13d;" horiz-adv-x="578" 
d="M543 73v-73h-468v700h80v-627h388zM507 526h-60l11 174h78z" />
    <glyph glyph-name="lcaron" unicode="&#x13e;" horiz-adv-x="314" 
d="M75 730h77v-730h-77v730zM233 730h76l-28 -182h-60z" />
    <glyph glyph-name="Lslash" unicode="&#x141;" horiz-adv-x="603" 
d="M575 73v-73h-468v276l-77 -33v71l77 33v353h80v-318l210 90v-70l-210 -91v-238h388z" />
    <glyph glyph-name="lslash" unicode="&#x142;" horiz-adv-x="276" 
d="M266 436l-89 -41v-394h-77v358l-90 -42v69l90 42v303h77v-267l89 42v-70z" />
    <glyph glyph-name="Nacute" unicode="&#x143;" horiz-adv-x="723" 
d="M389 779h-71l80 136h88zM648 700v-700h-69l-424 560v-560h-80v700h69l425 -561v561h79z" />
    <glyph glyph-name="nacute" unicode="&#x144;" 
d="M335 578h-71l80 136h88zM337 511c62 0 110.832 -19.333 146.499 -58s53.5 -92 53.5 -160v-293h-77v282c0 49.333 -12.167 87.833 -36.5 115.5s-58.833 41.5 -103.5 41.5c-50 0 -90.5 -17.333 -121.5 -52s-46.5 -80 -46.5 -136v-251h-77v499h77v-88
c18.667 30 43.834 54.167 75.501 72.5s68.167 27.5 109.5 27.5z" />
    <glyph glyph-name="uni0145" unicode="&#x145;" horiz-adv-x="723" 
d="M648 700v-700h-69l-424 560v-560h-80v700h69l425 -561v561h79zM329 -71h75l-28 -179h-60z" />
    <glyph glyph-name="uni0146" unicode="&#x146;" 
d="M337 511c62 0 110.832 -19.333 146.499 -58s53.5 -92 53.5 -160v-293h-77v282c0 49.333 -12.167 87.833 -36.5 115.5s-58.833 41.5 -103.5 41.5c-50 0 -90.5 -17.333 -121.5 -52s-46.5 -80 -46.5 -136v-251h-77v499h77v-88c18.667 30 43.834 54.167 75.501 72.5
s68.167 27.5 109.5 27.5zM273.999 -71h75l-28 -179h-60z" />
    <glyph glyph-name="Ncaron" unicode="&#x147;" horiz-adv-x="723" 
d="M213 909h79l70 -91l71 91h78l-109 -132h-81zM648 700v-700h-69l-424 560v-560h-80v700h69l425 -561v561h79z" />
    <glyph glyph-name="ncaron" unicode="&#x148;" 
d="M160 708h79l70 -91l71 91h78l-109 -132h-81zM337 511c62 0 110.832 -19.333 146.499 -58s53.5 -92 53.5 -160v-293h-77v282c0 49.333 -12.167 87.833 -36.5 115.5s-58.833 41.5 -103.5 41.5c-50 0 -90.5 -17.333 -121.5 -52s-46.5 -80 -46.5 -136v-251h-77v499h77v-88
c18.667 30 43.834 54.167 75.501 72.5s68.167 27.5 109.5 27.5z" />
    <glyph glyph-name="Eng" unicode="&#x14a;" horiz-adv-x="723" 
d="M648 700l-0.000976562 -738c0 -54.667 -12.333 -97.167 -37 -127.5s-62 -45.5 -112 -45.5c-24.667 0 -51.667 6.66699 -81 20l18 64c18.667 -10.667 38.334 -16 59.001 -16c49.333 0 74 33.667 74 101v55l-414 547v-560h-80v700h69l425 -561v561h79z" />
    <glyph glyph-name="eng" unicode="&#x14b;" 
d="M337 511c62 0 110.832 -19.333 146.499 -58s53.5 -92 53.5 -160v-340c0 -55.333 -12.333 -98.5 -37 -129.5s-62 -46.5 -112 -46.5c-27.333 0 -54.333 6.66699 -81 20l18 64c17.333 -10.667 36.333 -16 57 -16c52 0 78 34.667 78 104v333
c0 49.333 -12.167 87.833 -36.5 115.5s-58.833 41.5 -103.5 41.5c-50 0 -90.5 -17.333 -121.5 -52s-46.5 -80 -46.5 -136v-251h-77v499h77v-88c18.667 30 43.834 54.167 75.501 72.5s68.167 27.5 109.5 27.5z" />
    <glyph glyph-name="Omacron" unicode="&#x14c;" horiz-adv-x="806" 
d="M272 853h263v-60h-263v60zM403 -13c-102.667 0 -188.5 35 -257.5 105s-103.5 156.667 -103.5 260c0 102 34.5 187.667 103.5 257s154.833 104 257.5 104s188.5 -34.667 257.5 -104s103.5 -155 103.5 -257c0 -103.333 -34.5 -190 -103.5 -260s-154.833 -105 -257.5 -105z
M403 61c82.667 0 150.167 28 202.5 84s78.5 125 78.5 207c0 80 -26.167 147.833 -78.5 203.5s-119.833 83.5 -202.5 83.5s-150.167 -27.833 -202.5 -83.5s-78.5 -123.5 -78.5 -203.5c0 -82 26.167 -151 78.5 -207s119.833 -84 202.5 -84z" />
    <glyph glyph-name="omacron" unicode="&#x14d;" horiz-adv-x="613" 
d="M176 652h263v-60h-263v60zM307 -13c-75.333 0 -138.166 25.167 -188.499 75.5s-75.5 112.833 -75.5 187.5s25.167 136.834 75.5 186.501s113.166 74.5 188.499 74.5s138 -24.833 188 -74.5s75 -111.834 75 -186.501s-25 -137.167 -75 -187.5s-112.667 -75.5 -188 -75.5z
M307 58c53.333 0 97.833 18.167 133.5 54.5s53.5 81.833 53.5 136.5s-17.833 100.334 -53.5 137.001s-80.167 55 -133.5 55c-54 0 -99 -18.333 -135 -55s-54 -82.334 -54 -137.001s18 -100.167 54 -136.5s81 -54.5 135 -54.5z" />
    <glyph glyph-name="Ohungarumlaut" unicode="&#x150;" horiz-adv-x="806" 
d="M356 915h78l-83 -136h-72zM518 915h78l-92 -136h-72zM403 -13c-102.667 0 -188.5 35 -257.5 105s-103.5 156.667 -103.5 260c0 102 34.5 187.667 103.5 257s154.833 104 257.5 104s188.5 -34.667 257.5 -104s103.5 -155 103.5 -257c0 -103.333 -34.5 -190 -103.5 -260
s-154.833 -105 -257.5 -105zM403 61c82.667 0 150.167 28 202.5 84s78.5 125 78.5 207c0 80 -26.167 147.833 -78.5 203.5s-119.833 83.5 -202.5 83.5s-150.167 -27.833 -202.5 -83.5s-78.5 -123.5 -78.5 -203.5c0 -82 26.167 -151 78.5 -207s119.833 -84 202.5 -84z" />
    <glyph glyph-name="ohungarumlaut" unicode="&#x151;" horiz-adv-x="613" 
d="M260 714h78l-83 -136h-72zM422 714h78l-92 -136h-72zM307 -13c-75.333 0 -138.166 25.167 -188.499 75.5s-75.5 112.833 -75.5 187.5s25.167 136.834 75.5 186.501s113.166 74.5 188.499 74.5s138 -24.833 188 -74.5s75 -111.834 75 -186.501s-25 -137.167 -75 -187.5
s-112.667 -75.5 -188 -75.5zM307 58c53.333 0 97.833 18.167 133.5 54.5s53.5 81.833 53.5 136.5s-17.833 100.334 -53.5 137.001s-80.167 55 -133.5 55c-54 0 -99 -18.333 -135 -55s-54 -82.334 -54 -137.001s18 -100.167 54 -136.5s81 -54.5 135 -54.5z" />
    <glyph glyph-name="OE" unicode="&#x152;" horiz-adv-x="1002" 
d="M582 627v-236h314v-70h-314v-248h364v-73h-558c-106.667 0 -191 32.667 -253 98s-93 149.333 -93 252s31 186.667 93 252s146.333 98 253 98h559v-73h-365zM502 73v554h-114c-82.667 0 -147.667 -25.833 -195 -77.5s-71 -117.5 -71 -197.5c0 -82 23.5 -149 70.5 -201
s112.167 -78 195.5 -78h114z" />
    <glyph glyph-name="oe" unicode="&#x153;" horiz-adv-x="1041" 
d="M998 258c0 -15.333 -0.666016 -27.667 -1.99902 -37h-425c5.33301 -50 24.666 -90.167 57.999 -120.5s75 -45.5 125 -45.5c36.667 0 68.334 7.66699 95.001 23s46.334 34.666 59.001 57.999l71 -21c-18 -36.667 -46.167 -67.167 -84.5 -91.5s-84.833 -36.5 -139.5 -36.5
c-52 0 -97.333 11.833 -136 35.5s-68 55.5 -88 95.5c-22 -40 -52.667 -71.667 -92 -95s-83.333 -35 -132 -35c-75.333 0 -138.166 25 -188.499 75s-75.5 112.667 -75.5 188c0 74.667 25.167 136.834 75.5 186.501s113.166 74.5 188.499 74.5
c49.333 0 93.666 -11.667 132.999 -35s69.666 -55 90.999 -95c21.333 40 50.833 71.5 88.5 94.5s80.834 34.5 129.501 34.5c77.333 0 138.166 -23.833 182.499 -71.5s66.5 -108.167 66.5 -181.5zM924.001 279.999c-4 49.333 -21.335 88.999 -52.002 118.999
s-71.667 45 -123 45c-49.333 0 -90.666 -16.167 -123.999 -48.5s-51.666 -71.166 -54.999 -116.499zM306.999 58.998c53.333 0 97.833 18.333 133.5 55s53.5 82 53.5 136s-17.833 99.5 -53.5 136.5s-80.167 55.5 -133.5 55.5c-54 0 -99 -18.5 -135 -55.5
s-54 -82.5 -54 -136.5s18 -99.333 54 -136s81 -55 135 -55z" />
    <glyph glyph-name="Racute" unicode="&#x154;" horiz-adv-x="676" 
d="M353 779h-71l80 136h88zM359 275l-205 -0.000976562v-275h-79v700h324c68 0 122 -21.667 162 -65s60 -92.666 60 -147.999c0 -49.333 -15.5 -93.833 -46.5 -133.5s-73.833 -64.5 -128.5 -74.5l188 -279h-92zM154 345.999l242 -0.000976562
c44.667 0 80.5 13.833 107.5 41.5s40.5 60.834 40.5 99.501c0 38 -13.5 71 -40.5 99s-62.5 42 -106.5 42h-243v-282z" />
    <glyph glyph-name="racute" unicode="&#x155;" horiz-adv-x="354" 
d="M226 578h-71l80 136h88zM152 413c15.333 34 38.332 59.333 68.999 76s67.334 22 110.001 16v-72c-56 7.33301 -99.833 -5.16699 -131.5 -37.5s-47.5 -86.5 -47.5 -162.5v-233h-77v499h77v-86z" />
    <glyph glyph-name="uni0156" unicode="&#x156;" horiz-adv-x="676" 
d="M634 0l-92 -0.000976562l-183 275h-205v-275h-79v700h324c68 0 122 -21.667 162 -65s60 -92.666 60 -147.999c0 -49.333 -15.5 -93.833 -46.5 -133.5s-73.833 -64.5 -128.5 -74.5zM154 345.999l242 -0.000976562c44.667 0 80.5 13.833 107.5 41.5
s40.5 60.834 40.5 99.501c0 38 -13.5 71 -40.5 99s-62.5 42 -106.5 42h-243v-282zM307 -71.002h75l-28 -179h-60z" />
    <glyph glyph-name="uni0157" unicode="&#x157;" horiz-adv-x="354" 
d="M152 413c15.333 34 38.332 59.333 68.999 76s67.334 22 110.001 16v-72c-56 7.33301 -99.833 -5.16699 -131.5 -37.5s-47.5 -86.5 -47.5 -162.5v-233h-77v499h77v-86zM76.999 -71h75l-28 -179h-60z" />
    <glyph glyph-name="Rcaron" unicode="&#x158;" horiz-adv-x="676" 
d="M177 909h79l70 -91l71 91h78l-109 -132h-81zM359 275l-205 -0.000976562v-275h-79v700h324c68 0 122 -21.667 162 -65s60 -92.666 60 -147.999c0 -49.333 -15.5 -93.833 -46.5 -133.5s-73.833 -64.5 -128.5 -74.5l188 -279h-92zM154 345.999l242 -0.000976562
c44.667 0 80.5 13.833 107.5 41.5s40.5 60.834 40.5 99.501c0 38 -13.5 71 -40.5 99s-62.5 42 -106.5 42h-243v-282z" />
    <glyph glyph-name="rcaron" unicode="&#x159;" horiz-adv-x="354" 
d="M50 708h79l70 -91l71 91h78l-109 -132h-81zM152 413c15.333 34 38.332 59.333 68.999 76s67.334 22 110.001 16v-72c-56 7.33301 -99.833 -5.16699 -131.5 -37.5s-47.5 -86.5 -47.5 -162.5v-233h-77v499h77v-86z" />
    <glyph glyph-name="Sacute" unicode="&#x15a;" horiz-adv-x="661" 
d="M358 915h88l-97 -136h-71zM344 -13c-76 0 -141.666 20.332 -196.999 60.999s-92.666 90.334 -111.999 149.001l76 23c16 -46.667 45.167 -85.167 87.5 -115.5s92.166 -45.5 149.499 -45.5c54 0 98 13.167 132 39.5s51 56.833 51 91.5
c0 27.333 -9.66699 50.166 -29 68.499s-52.333 34.833 -99 49.5l-175 56c-103.333 33.333 -155 88 -155 164c0 50.667 22.333 94.167 67 130.5s100.334 54.5 167.001 54.5c69.333 0 128.833 -16 178.5 -48s85.167 -72.667 106.5 -122l-74 -23
c-17.333 37.333 -44.333 66.833 -81 88.5s-80.334 32.5 -131.001 32.5c-44.667 0 -81.334 -11 -110.001 -33s-43 -48 -43 -78c0 -23.333 8.33301 -42.666 25 -57.999s44.667 -29.333 84 -42l170 -54c60 -19.333 104.667 -42.333 134 -69s44 -64.334 44 -113.001
c0 -57.333 -25 -106.166 -75 -146.499s-113.667 -60.5 -191 -60.5z" />
    <glyph glyph-name="sacute" unicode="&#x15b;" horiz-adv-x="510" 
d="M275 714h88l-97 -136h-71zM258 -13c-55.333 0 -104.167 14.501 -146.5 43.501s-69.833 64.833 -82.5 107.5l72 20c9.33301 -30 28.5 -54.833 57.5 -74.5s62.833 -29.5 101.5 -29.5c36.667 0 66.667 8 90 24s35 35.333 35 58c0 19.333 -5.66699 34.166 -17 44.499
s-30 19.5 -56 27.5l-142 42c-77.333 22.667 -116 63 -116 121c0 38 17.667 70.833 53 98.5s78.666 41.5 129.999 41.5s95.5 -11.667 132.5 -35s63.167 -53 78.5 -89l-70 -21c-9.33301 22.667 -26.666 41.667 -51.999 57s-55.333 23 -90 23
c-31.333 0 -56.833 -7.66699 -76.5 -23s-29.5 -32.333 -29.5 -51c0 -26.667 22.333 -46.667 67 -60l142 -42c38 -11.333 67.833 -26.833 89.5 -46.5s32.5 -47.5 32.5 -83.5c0 -44 -19.167 -80.5 -57.5 -109.5s-86.833 -43.5 -145.5 -43.5z" />
    <glyph glyph-name="Scedilla" unicode="&#x15e;" horiz-adv-x="661" 
d="M610 194c0 -54 -22.665 -100.83 -67.998 -140.497s-103.666 -61.5 -174.999 -65.5l-14 -46c26.667 -2 48 -10.333 64 -25s24 -32.667 24 -54c0 -26.667 -10.333 -47.5 -31 -62.5s-46.334 -22.5 -77.001 -22.5c-38.667 0 -72.334 10.667 -101.001 32l13 44
c30.667 -21.333 61 -30 91 -26s45 16.667 45 38c0 17.333 -11.167 29.166 -33.5 35.499s-45.5 6.83301 -69.5 1.5l27 86c-66 6.66699 -123.167 29.667 -171.5 69s-81.166 85.666 -98.499 138.999l76 23c16 -46.667 45.167 -85.167 87.5 -115.5s92.166 -45.5 149.499 -45.5
c54 0 98 13.167 132 39.5s51 56.833 51 91.5c0 27.333 -9.66699 50.166 -29 68.499s-52.333 34.833 -99 49.5l-175 56c-103.333 33.333 -155 88 -155 164c0 50.667 22.333 94.167 67 130.5s100.334 54.5 167.001 54.5c69.333 0 128.833 -16 178.5 -48
s85.167 -72.667 106.5 -122l-74 -23c-17.333 37.333 -44.333 66.833 -81 88.5s-80.334 32.5 -131.001 32.5c-44.667 0 -81.334 -11 -110.001 -33s-43 -48 -43 -78c0 -23.333 8.33301 -42.666 25 -57.999s44.667 -29.333 84 -42l170 -54c60 -19.333 104.667 -42.333 134 -69
s44 -64.334 44 -113.001z" />
    <glyph glyph-name="scedilla" unicode="&#x15f;" horiz-adv-x="510" 
d="M461 140c0 -42 -17.666 -77.3301 -52.999 -105.997s-80.666 -44.334 -135.999 -47.001l-14 -45c26.667 -2 48 -10.333 64 -25s24 -32.667 24 -54c0 -26.667 -10.333 -47.5 -31 -62.5s-46.334 -22.5 -77.001 -22.5c-38.667 0 -72.334 10.667 -101.001 32l13 44
c30.667 -21.333 61 -30 91 -26s45 16.667 45 38c0 17.333 -11.167 29.166 -33.5 35.499s-45.5 6.83301 -69.5 1.5l28 88c-44.667 8 -83.5 25.5 -116.5 52.5s-54.833 58.5 -65.5 94.5l72 20c9.33301 -30 28.5 -54.833 57.5 -74.5s62.833 -29.5 101.5 -29.5
c36.667 0 66.667 8 90 24s35 35.333 35 58c0 19.333 -5.66699 34.166 -17 44.499s-30 19.5 -56 27.5l-142 42c-77.333 22.667 -116 63 -116 121c0 38 17.667 70.833 53 98.5s78.666 41.5 129.999 41.5s95.5 -11.667 132.5 -35s63.167 -53 78.5 -89l-70 -21
c-9.33301 22.667 -26.666 41.667 -51.999 57s-55.333 23 -90 23c-31.333 0 -56.833 -7.66699 -76.5 -23s-29.5 -32.333 -29.5 -51c0 -26.667 22.333 -46.667 67 -60l142 -42c38 -11.333 67.833 -26.833 89.5 -46.5s32.5 -47.5 32.5 -83.5z" />
    <glyph glyph-name="Scaron" unicode="&#x160;" horiz-adv-x="661" 
d="M173 909h79l70 -91l71 91h78l-109 -132h-81zM432 376c60 -19.333 104.668 -42.334 134.001 -69.001s44 -64.334 44 -113.001c0 -57.333 -25 -106.166 -75 -146.499s-113.667 -60.5 -191 -60.5c-76 0 -141.667 20.333 -197 61s-92.666 90.334 -111.999 149.001l76 23
c16 -46.667 45.167 -85.167 87.5 -115.5s92.166 -45.5 149.499 -45.5c54 0 98 13.167 132 39.5s51 56.833 51 91.5c0 27.333 -9.66699 50.166 -29 68.499s-52.333 34.833 -99 49.5l-175 56c-103.333 33.333 -155 88 -155 164c0 50.667 22.333 94.167 67 130.5
s100.334 54.5 167.001 54.5c69.333 0 128.833 -16 178.5 -48s85.167 -72.667 106.5 -122l-74 -23c-17.333 37.333 -44.333 66.833 -81 88.5s-80.334 32.5 -131.001 32.5c-44.667 0 -81.334 -11 -110.001 -33s-43 -48 -43 -78c0 -23.333 8.33301 -42.666 25 -57.999
s44.667 -29.333 84 -42z" />
    <glyph glyph-name="scaron" unicode="&#x161;" horiz-adv-x="510" 
d="M91 708h79l70 -91l71 91h78l-109 -132h-81zM339 270c38 -11.333 67.832 -26.832 89.499 -46.499s32.5 -47.5 32.5 -83.5c0 -44 -19.167 -80.5 -57.5 -109.5s-86.833 -43.5 -145.5 -43.5c-55.333 0 -104.166 14.5 -146.499 43.5s-69.833 64.833 -82.5 107.5l72 20
c9.33301 -30 28.5 -54.833 57.5 -74.5s62.833 -29.5 101.5 -29.5c36.667 0 66.667 8 90 24s35 35.333 35 58c0 19.333 -5.66699 34.166 -17 44.499s-30 19.5 -56 27.5l-142 42c-77.333 22.667 -116 63 -116 121c0 38 17.667 70.833 53 98.5s78.666 41.5 129.999 41.5
s95.5 -11.667 132.5 -35s63.167 -53 78.5 -89l-70 -21c-9.33301 22.667 -26.666 41.667 -51.999 57s-55.333 23 -90 23c-31.333 0 -56.833 -7.66699 -76.5 -23s-29.5 -32.333 -29.5 -51c0 -26.667 22.333 -46.667 67 -60z" />
    <glyph glyph-name="uni0162" unicode="&#x162;" horiz-adv-x="627" 
d="M354 0l-17.998 -57.999c26.667 -2 48 -10.333 64 -25s24 -32.667 24 -54c0 -26.667 -10.333 -47.5 -31 -62.5s-46.334 -22.5 -77.001 -22.5c-38.667 0 -72.334 10.667 -101.001 32l13 44c30.667 -21.333 61 -30 91 -26s45 16.667 45 38
c0 17.333 -11.167 29.166 -33.5 35.499s-45.5 6.83301 -69.5 1.5l31 97h-18v627h-259v73h597v-73h-258v-627z" />
    <glyph glyph-name="uni0163" unicode="&#x163;" horiz-adv-x="409" 
d="M271 -58c26.667 -2 48.001 -10.333 64.001 -25s24 -32.667 24 -54c0 -26.667 -10.333 -47.5 -31 -62.5s-46.334 -22.5 -77.001 -22.5c-38.667 0 -72.334 10.667 -101.001 32l13 44c30.667 -21.333 61 -30 91 -26s45 16.667 45 38c0 17.333 -11.167 29.166 -33.5 35.499
s-45.5 6.83301 -69.5 1.5l30 94c-70.667 14.667 -106 66.334 -106 155.001v277h-99v70h99v172h77v-172h171v-70h-171v-277c0 -58.667 27 -88 81 -88c24.667 0 48.334 5.66699 71.001 17l21 -66c-28 -12 -55.667 -19 -83 -21z" />
    <glyph glyph-name="Tcaron" unicode="&#x164;" horiz-adv-x="627" 
d="M165 909h79l70 -91l71 91h78l-109 -132h-81zM612 627h-258v-627h-80v627h-259v73h597v-73z" />
    <glyph glyph-name="tcaron" unicode="&#x165;" horiz-adv-x="416" 
d="M319 556h-59l10 161h75zM370 15c-34 -14.667 -68.668 -21.999 -104.001 -21.999c-48.667 0 -85.167 14.167 -109.5 42.5s-36.5 67.166 -36.5 116.499v277h-99v70h99v172h77v-172h171v-70h-171v-277c0 -58.667 27 -88 81 -88c24.667 0 48.334 5.66699 71.001 17z" />
    <glyph glyph-name="Tbar" unicode="&#x166;" horiz-adv-x="627" 
d="M354 627v-249h166v-65h-166v-313h-80v313h-179v65h179v249h-259v73h597v-73h-258z" />
    <glyph glyph-name="tbar" unicode="&#x167;" horiz-adv-x="410" 
d="M371 15c-35.333 -14.667 -70.334 -21.999 -105.001 -21.999c-48.667 0 -85.167 14.167 -109.5 42.5s-36.5 67.166 -36.5 116.499v118h-91v57h91v110h-99v62h99v172h77v-172h172v-62h-172v-110h149v-57h-149v-118c0 -58.667 27.333 -88 82 -88
c24.667 0 48.334 5.66699 71.001 17z" />
    <glyph glyph-name="Umacron" unicode="&#x16a;" horiz-adv-x="708" 
d="M486 793h-263v60h263v-60zM642 700l-0.000976562 -422c0 -88 -25.5 -158.5 -76.5 -211.5s-121.5 -79.5 -211.5 -79.5s-160.5 26.5 -211.5 79.5s-76.5 123.5 -76.5 211.5v422h81v-420c0 -66.667 17.833 -119.834 53.5 -159.501s86.834 -59.5 153.501 -59.5
s118 19.833 154 59.5s54 92.834 54 159.501v420h80z" />
    <glyph glyph-name="umacron" unicode="&#x16b;" 
d="M436 592h-263v60h263v-60zM532 499v-499.001h-77v87c-40.667 -66.667 -102 -100 -184 -100c-62.667 0 -111.834 19.333 -147.501 58s-53.5 92.334 -53.5 161.001v293h77v-282c0 -49.333 12.167 -87.833 36.5 -115.5s58.833 -41.5 103.5 -41.5
c50.667 0 91.334 17.333 122.001 52s46 80 46 136v251h77z" />
    <glyph glyph-name="Uring" unicode="&#x16e;" horiz-adv-x="708" 
d="M354 753c-31.333 0 -57.666 10.333 -78.999 31s-32 46.334 -32 77.001s10.667 56.334 32 77.001s47.666 31 78.999 31c32 0 58.667 -10.333 80 -31s32 -46.334 32 -77.001s-10.667 -56.334 -32 -77.001s-48 -31 -80 -31zM354 917
c-17.333 0 -31.166 -5.16699 -41.499 -15.5s-15.5 -23.833 -15.5 -40.5s5.16699 -30.167 15.5 -40.5s24.166 -15.5 41.499 -15.5c18 0 32.167 5.16699 42.5 15.5s15.5 23.833 15.5 40.5s-5.16699 30.167 -15.5 40.5s-24.5 15.5 -42.5 15.5zM642 700l-0.000976562 -422
c0 -88 -25.5 -158.5 -76.5 -211.5s-121.5 -79.5 -211.5 -79.5s-160.5 26.5 -211.5 79.5s-76.5 123.5 -76.5 211.5v422h81v-420c0 -66.667 17.833 -119.834 53.5 -159.501s86.834 -59.5 153.501 -59.5s118 19.833 154 59.5s54 92.834 54 159.501v420h80z" />
    <glyph glyph-name="uring" unicode="&#x16f;" 
d="M304 552c-31.333 0 -57.666 10.333 -78.999 31s-32 46.334 -32 77.001s10.667 56.334 32 77.001s47.666 31 78.999 31c32 0 58.667 -10.333 80 -31s32 -46.334 32 -77.001s-10.667 -56.334 -32 -77.001s-48 -31 -80 -31zM304 716
c-17.333 0 -31.166 -5.16699 -41.499 -15.5s-15.5 -23.833 -15.5 -40.5s5.16699 -30.167 15.5 -40.5s24.166 -15.5 41.499 -15.5c18 0 32.167 5.16699 42.5 15.5s15.5 23.833 15.5 40.5s-5.16699 30.167 -15.5 40.5s-24.5 15.5 -42.5 15.5zM532 499v-499.001h-77v87
c-40.667 -66.667 -102 -100 -184 -100c-62.667 0 -111.834 19.333 -147.501 58s-53.5 92.334 -53.5 161.001v293h77v-282c0 -49.333 12.167 -87.833 36.5 -115.5s58.833 -41.5 103.5 -41.5c50.667 0 91.334 17.333 122.001 52s46 80 46 136v251h77z" />
    <glyph glyph-name="Uhungarumlaut" unicode="&#x170;" horiz-adv-x="708" 
d="M302 779h-72l77 136h78zM383 779l86 136h78l-92 -136h-72zM642 700l-0.000976562 -422c0 -88 -25.5 -158.5 -76.5 -211.5s-121.5 -79.5 -211.5 -79.5s-160.5 26.5 -211.5 79.5s-76.5 123.5 -76.5 211.5v422h81v-420c0 -66.667 17.833 -119.834 53.5 -159.501
s86.834 -59.5 153.501 -59.5s118 19.833 154 59.5s54 92.834 54 159.501v420h80z" />
    <glyph glyph-name="uhungarumlaut" unicode="&#x171;" 
d="M252 578h-72l77 136h78zM333 578l86 136h78l-92 -136h-72zM532 499v-499.001h-77v87c-40.667 -66.667 -102 -100 -184 -100c-62.667 0 -111.834 19.333 -147.501 58s-53.5 92.334 -53.5 161.001v293h77v-282c0 -49.333 12.167 -87.833 36.5 -115.5
s58.833 -41.5 103.5 -41.5c50.667 0 91.334 17.333 122.001 52s46 80 46 136v251h77z" />
    <glyph glyph-name="Uogonek" unicode="&#x172;" horiz-adv-x="708" 
d="M642 700v-422c0 -113.333 -40.333 -196 -121 -248c-33.333 -25.333 -60 -51.333 -80 -78s-30 -50.334 -30 -71.001c0 -13.333 3.66699 -23.833 11 -31.5s17.666 -11.5 30.999 -11.5c22.667 0 43 10.667 61 32l16 -53c-20 -24.667 -48.667 -37 -86 -37
c-30 0 -54 8.16699 -72 24.5s-27 38.833 -27 67.5c0 38.667 22 78.334 66 119.001c-16 -2.66699 -35 -4 -57 -4c-90 0 -160.5 26.5 -211.5 79.5s-76.5 123.5 -76.5 211.5v422h81v-420c0 -66.667 17.833 -119.834 53.5 -159.501s86.834 -59.5 153.501 -59.5
s118 19.833 154 59.5s54 92.834 54 159.501v420h80z" />
    <glyph glyph-name="uogonek" unicode="&#x173;" 
d="M571 -186c-20 -24.667 -48.665 -37 -85.998 -37c-29.333 0 -53.166 8.16699 -71.499 24.5s-27.5 38.833 -27.5 67.5c0 20.667 7.66699 42.834 23 66.501s34.666 45.167 57.999 64.5h-12v87c-40.667 -66.667 -102 -100 -184 -100c-62.667 0 -111.834 19.333 -147.501 58
s-53.5 92.334 -53.5 161.001v293h77v-282c0 -49.333 12.167 -87.833 36.5 -115.5s58.833 -41.5 103.5 -41.5c50.667 0 91.334 17.333 122.001 52s46 80 46 136v251h77v-499c-24 -20.667 -43.333 -41.834 -58 -63.501s-22 -40.834 -22 -57.501
c0 -13.333 3.66699 -23.833 11 -31.5s17.666 -11.5 30.999 -11.5c23.333 0 43.666 10.667 60.999 32z" />
    <glyph glyph-name="Wcircumflex" unicode="&#x174;" horiz-adv-x="986" 
d="M423 777h-79l108 132h81l109 -132h-78l-71 91zM971 700l-220 -700h-83l-175 570l-175 -570h-83l-220 700h83l179 -587l179 587h73l179 -587l180 587h83z" />
    <glyph glyph-name="wcircumflex" unicode="&#x175;" horiz-adv-x="769" 
d="M314 576h-79l108 132h81l109 -132h-78l-71 91zM757 499l-171 -499h-75l-126 384l-127 -384h-75l-172 499h81l131 -401l128 401h67l128 -401l131 401h80z" />
    <glyph glyph-name="Ycircumflex" unicode="&#x176;" horiz-adv-x="652" 
d="M257 777h-79l108 132h81l109 -132h-78l-71 91zM641 700l-275 -432v-268h-80v268l-275 432h91l224 -357l225 357h90z" />
    <glyph glyph-name="ycircumflex" unicode="&#x177;" horiz-adv-x="546" 
d="M209 576h-79l108 132h81l109 -132h-78l-71 91zM535 499l-307 -709h-81l95 220l-231 489h85l185 -403l172 403h82z" />
    <glyph glyph-name="Ydieresis" unicode="&#x178;" horiz-adv-x="652" 
d="M234 776c-13.333 0 -24.5 4.5 -33.5 13.5s-13.5 20.167 -13.5 33.5s4.5 24.333 13.5 33s20.167 13 33.5 13s24.5 -4.33301 33.5 -13s13.5 -19.667 13.5 -33s-4.5 -24.5 -13.5 -33.5s-20.167 -13.5 -33.5 -13.5zM419 776c-14 0 -25.333 4.5 -34 13.5s-13 20.167 -13 33.5
s4.33301 24.333 13 33s20 13 34 13c13.333 0 24.5 -4.33301 33.5 -13s13.5 -19.667 13.5 -33s-4.5 -24.5 -13.5 -33.5s-20.167 -13.5 -33.5 -13.5zM641 700l-275 -432v-268h-80v268l-275 432h91l224 -357l225 357h90z" />
    <glyph glyph-name="Zacute" unicode="&#x179;" horiz-adv-x="625" 
d="M345 779h-71l80 136h88zM588 72v-72h-547v53l427 575h-416v72h525v-54l-425 -574h436z" />
    <glyph glyph-name="zacute" unicode="&#x17a;" horiz-adv-x="516" 
d="M286 578h-71l80 136h88zM472 67v-67h-427v51l314 381h-308v67h412v-53l-313 -379h322z" />
    <glyph glyph-name="Zdotaccent" unicode="&#x17b;" horiz-adv-x="625" 
d="M318 776c-15.333 0 -28.166 5 -38.499 15s-15.5 22.667 -15.5 38c0 14.667 5.16699 27 15.5 37s23.166 15 38.499 15s28.166 -5 38.499 -15s15.5 -22.333 15.5 -37c0 -15.333 -5.16699 -28 -15.5 -38s-23.166 -15 -38.499 -15zM588 72v-72h-547v53l427 575h-416v72h525
v-54l-425 -574h436z" />
    <glyph glyph-name="zdotaccent" unicode="&#x17c;" horiz-adv-x="516" 
d="M259 575c-15.333 0 -28.166 5 -38.499 15s-15.5 22.667 -15.5 38c0 14.667 5.16699 27 15.5 37s23.166 15 38.499 15s28.166 -5 38.499 -15s15.5 -22.333 15.5 -37c0 -15.333 -5.16699 -28 -15.5 -38s-23.166 -15 -38.499 -15zM472 67v-67h-427v51l314 381h-308v67h412
v-53l-313 -379h322z" />
    <glyph glyph-name="Zcaron" unicode="&#x17d;" horiz-adv-x="625" 
d="M169 909h79l70 -91l71 91h78l-109 -132h-81zM588 72v-72h-547v53l427 575h-416v72h525v-54l-425 -574h436z" />
    <glyph glyph-name="zcaron" unicode="&#x17e;" horiz-adv-x="516" 
d="M110 708h79l70 -91l71 91h78l-109 -132h-81zM472 67v-67h-427v51l314 381h-308v67h412v-53l-313 -379h322z" />
    <glyph glyph-name="florin" unicode="&#x192;" horiz-adv-x="502" 
d="M379 674c-48 0 -76.666 -39 -85.999 -117l-18 -134h144v-64h-152l-44 -327c-15.333 -125.333 -67 -188 -155 -188c-41.333 0 -74 12.667 -98 38l29 60c18 -19.333 40.667 -29 68 -29c46 0 74 39.667 84 119l43 327h-128v64h136l18 134c15.333 124 68 186 158 186
c43.333 0 78.666 -12 105.999 -36l-30 -62c-19.333 19.333 -44.333 29 -75 29z" />
    <glyph glyph-name="uni0218" unicode="&#x218;" horiz-adv-x="661" 
d="M344 -13c-76 0 -141.666 20.332 -196.999 60.999s-92.666 90.334 -111.999 149.001l76 23c16 -46.667 45.167 -85.167 87.5 -115.5s92.166 -45.5 149.499 -45.5c54 0 98 13.167 132 39.5s51 56.833 51 91.5c0 27.333 -9.66699 50.166 -29 68.499s-52.333 34.833 -99 49.5
l-175 56c-103.333 33.333 -155 88 -155 164c0 50.667 22.333 94.167 67 130.5s100.334 54.5 167.001 54.5c69.333 0 128.833 -16 178.5 -48s85.167 -72.667 106.5 -122l-74 -23c-17.333 37.333 -44.333 66.833 -81 88.5s-80.334 32.5 -131.001 32.5
c-44.667 0 -81.334 -11 -110.001 -33s-43 -48 -43 -78c0 -23.333 8.33301 -42.666 25 -57.999s44.667 -29.333 84 -42l170 -54c60 -19.333 104.667 -42.333 134 -69s44 -64.334 44 -113.001c0 -57.333 -25 -106.166 -75 -146.499s-113.667 -60.5 -191 -60.5z
M302.001 -71.001h75l-28 -179h-60z" />
    <glyph glyph-name="uni0219" unicode="&#x219;" horiz-adv-x="510" 
d="M258 -13c-55.333 0 -104.167 14.501 -146.5 43.501s-69.833 64.833 -82.5 107.5l72 20c9.33301 -30 28.5 -54.833 57.5 -74.5s62.833 -29.5 101.5 -29.5c36.667 0 66.667 8 90 24s35 35.333 35 58c0 19.333 -5.66699 34.166 -17 44.499s-30 19.5 -56 27.5l-142 42
c-77.333 22.667 -116 63 -116 121c0 38 17.667 70.833 53 98.5s78.666 41.5 129.999 41.5s95.5 -11.667 132.5 -35s63.167 -53 78.5 -89l-70 -21c-9.33301 22.667 -26.666 41.667 -51.999 57s-55.333 23 -90 23c-31.333 0 -56.833 -7.66699 -76.5 -23
s-29.5 -32.333 -29.5 -51c0 -26.667 22.333 -46.667 67 -60l142 -42c38 -11.333 67.833 -26.833 89.5 -46.5s32.5 -47.5 32.5 -83.5c0 -44 -19.167 -80.5 -57.5 -109.5s-86.833 -43.5 -145.5 -43.5zM206.999 -70.999h75l-28 -179h-60z" />
    <glyph glyph-name="uni021A" unicode="&#x21a;" horiz-adv-x="627" 
d="M612 627h-258v-627h-80v627h-259v73h597v-73zM281 -71h74l-27 -179h-60z" />
    <glyph glyph-name="uni021B" unicode="&#x21b;" horiz-adv-x="409" 
d="M370 15c-34 -14.667 -68.668 -21.999 -104.001 -21.999c-48.667 0 -85.167 14.167 -109.5 42.5s-36.5 67.166 -36.5 116.499v277h-99v70h99v172h77v-172h171v-70h-171v-277c0 -58.667 27 -88 81 -88c24.667 0 48.334 5.66699 71.001 17zM213.999 -70.999h75l-28 -179h-60
z" />
    <glyph glyph-name="circumflex" unicode="&#x2c6;" horiz-adv-x="298" 
d="M220 576l-71 91l-70 -91h-79l108 132h81l109 -132h-78z" />
    <glyph glyph-name="caron" unicode="&#x2c7;" horiz-adv-x="298" 
d="M298 708l-109 -132h-81l-108 132h79l70 -91l71 91h78z" />
    <glyph glyph-name="breve" unicode="&#x2d8;" horiz-adv-x="296" 
d="M148 565c-47.333 0 -83.833 12.667 -109.5 38s-38.5 57.333 -38.5 96h65c0.666992 -24 7.66699 -43.333 21 -58s34 -22 62 -22s48.833 7.5 62.5 22.5s20.5 34.167 20.5 57.5h65c0 -38.667 -12.833 -70.667 -38.5 -96s-62.167 -38 -109.5 -38z" />
    <glyph glyph-name="dotaccent" unicode="&#x2d9;" horiz-adv-x="108" 
d="M54 590c-15.333 0 -28.166 5 -38.499 15s-15.5 22.667 -15.5 38s5.16699 28 15.5 38s23.166 15 38.499 15s28.166 -5 38.499 -15s15.5 -22.667 15.5 -38s-5.16699 -28 -15.5 -38s-23.166 -15 -38.499 -15z" />
    <glyph glyph-name="ring" unicode="&#x2da;" horiz-adv-x="223" 
d="M111 552c-31.333 0 -57.666 10.333 -78.999 31s-32 46.334 -32 77.001s10.667 56.334 32 77.001s47.666 31 78.999 31c32 0 58.667 -10.333 80 -31s32 -46.334 32 -77.001s-10.667 -56.334 -32 -77.001s-48 -31 -80 -31zM111 604c18 0 32.167 5.16699 42.5 15.5
s15.5 23.833 15.5 40.5s-5.16699 30.167 -15.5 40.5s-24.5 15.5 -42.5 15.5c-17.333 0 -31.166 -5.16699 -41.499 -15.5s-15.5 -23.833 -15.5 -40.5s5.16699 -30.167 15.5 -40.5s24.166 -15.5 41.499 -15.5z" />
    <glyph glyph-name="ogonek" unicode="&#x2db;" horiz-adv-x="185" 
d="M99 -223c-29.333 0 -53.1641 8.16797 -71.4971 24.501s-27.5 38.833 -27.5 67.5c0 20.667 7.66699 42.834 23 66.501s34.666 45.167 57.999 64.5h65c-24 -20.667 -43.333 -41.834 -58 -63.501s-22 -40.834 -22 -57.501c0 -13.333 3.66699 -23.833 11 -31.5
s17.666 -11.5 30.999 -11.5c23.333 0 43.666 10.667 60.999 32l16 -54c-20 -24.667 -48.667 -37 -86 -37z" />
    <glyph glyph-name="tilde" unicode="&#x2dc;" horiz-adv-x="301" 
d="M220 581c-20 0 -44.668 9.83301 -74.001 29.5s-49.666 29.5 -60.999 29.5c-18 0 -27 -18.667 -27 -56h-58c0 78.667 27 118 81 118c20 0 44.667 -10 74 -30s49.333 -30 60 -30c18 0 27 18.667 27 56h59c0 -78 -27 -117 -81 -117z" />
    <glyph glyph-name="hungarumlaut" unicode="&#x2dd;" horiz-adv-x="317" 
d="M77 714h78l-83 -136h-72zM239 714h78l-92 -136h-72z" />
    <glyph glyph-name="gravecomb" unicode="&#x300;" horiz-adv-x="0" 
d="M-71 578l-97 136h89l79 -136h-71z" />
    <glyph glyph-name="acutecomb" unicode="&#x301;" horiz-adv-x="0" 
d="M-88 714h88l-97 -136h-71z" />
    <glyph glyph-name="uni0302" unicode="&#x302;" horiz-adv-x="0" 
d="M-78 576l-71 91l-70 -91h-79l108 132h81l109 -132h-78z" />
    <glyph glyph-name="tildecomb" unicode="&#x303;" horiz-adv-x="0" 
d="M-81 581c-20 0 -44.668 9.83301 -74.001 29.5s-49.666 29.5 -60.999 29.5c-18 0 -27 -18.667 -27 -56h-58c0 78.667 27 118 81 118c20 0 44.667 -10 74 -30s49.333 -30 60 -30c18 0 27 18.667 27 56h60c0 -78 -27.333 -117 -82 -117z" />
    <glyph glyph-name="uni0304" unicode="&#x304;" horiz-adv-x="0" 
d="M-263 652h264v-60h-264v60z" />
    <glyph glyph-name="uni0306" unicode="&#x306;" horiz-adv-x="0" 
d="M-148 565c-47.333 0 -83.833 12.667 -109.5 38s-38.5 57.333 -38.5 96h65c0.666992 -24 7.66699 -43.333 21 -58s34 -22 62 -22s48.833 7.5 62.5 22.5s20.5 34.167 20.5 57.5h65c0 -38.667 -12.833 -70.667 -38.5 -96s-62.167 -38 -109.5 -38z" />
    <glyph glyph-name="uni0307" unicode="&#x307;" horiz-adv-x="0" 
d="M-54 575c-15.333 0 -28.166 5 -38.499 15s-15.5 22.667 -15.5 38c0 14.667 5.16699 27 15.5 37s23.166 15 38.499 15s28.166 -5 38.499 -15s15.5 -22.333 15.5 -37c0 -15.333 -5.16699 -28 -15.5 -38s-23.166 -15 -38.499 -15z" />
    <glyph glyph-name="uni0308" unicode="&#x308;" horiz-adv-x="0" 
d="M-232 575c-13.333 0 -24.5 4.5 -33.5 13.5s-13.5 20.167 -13.5 33.5s4.5 24.333 13.5 33s20.167 13 33.5 13s24.5 -4.33301 33.5 -13s13.5 -19.667 13.5 -33s-4.5 -24.5 -13.5 -33.5s-20.167 -13.5 -33.5 -13.5zM-47 575c-14 0 -25.333 4.5 -34 13.5s-13 20.167 -13 33.5
s4.33301 24.333 13 33s20 13 34 13c13.333 0 24.5 -4.33301 33.5 -13s13.5 -19.667 13.5 -33s-4.5 -24.5 -13.5 -33.5s-20.167 -13.5 -33.5 -13.5z" />
    <glyph glyph-name="uni030A" unicode="&#x30a;" horiz-adv-x="0" 
d="M-112 552c-31.333 0 -57.666 10.333 -78.999 31s-32 46.334 -32 77.001s10.667 56.334 32 77.001s47.666 31 78.999 31c32 0 58.833 -10.333 80.5 -31s32.5 -46.334 32.5 -77.001s-10.833 -56.334 -32.5 -77.001s-48.5 -31 -80.5 -31zM-112 604
c18 0 32.167 5.16699 42.5 15.5s15.5 23.833 15.5 40.5s-5.16699 30.167 -15.5 40.5s-24.5 15.5 -42.5 15.5c-17.333 0 -31.166 -5.16699 -41.499 -15.5s-15.5 -23.833 -15.5 -40.5s5.16699 -30.167 15.5 -40.5s24.166 -15.5 41.499 -15.5z" />
    <glyph glyph-name="uni030B" unicode="&#x30b;" horiz-adv-x="0" 
d="M-240 714h78l-83 -136h-72zM-78 714h79l-93 -136h-72z" />
    <glyph glyph-name="uni030C" unicode="&#x30c;" horiz-adv-x="0" 
d="M0 708l-109 -132h-81l-108 132h79l70 -91l71 91h78z" />
    <glyph glyph-name="uni0312" unicode="&#x312;" horiz-adv-x="0" 
d="M-13 581h-75l28 179h60z" />
    <glyph glyph-name="uni0326" unicode="&#x326;" horiz-adv-x="0" 
d="M-75 -71h75l-28 -179h-60z" />
    <glyph glyph-name="uni0327" unicode="&#x327;" horiz-adv-x="0" 
d="M-108 -222c-38.667 0 -72.332 10.668 -100.999 32.001l13 44c30.667 -21.333 61 -30 91 -26s45 16.667 45 38c0 17.333 -11.167 29.166 -33.5 35.499s-45.5 6.83301 -69.5 1.5l31 97h62l-18 -58c26.667 -2 48 -10.333 64 -25s24 -32.667 24 -54
c0 -26.667 -10.333 -47.5 -31 -62.5s-46.334 -22.5 -77.001 -22.5z" />
    <glyph glyph-name="uni0328" unicode="&#x328;" horiz-adv-x="0" 
d="M-86 -223c-29.333 0 -53.1641 8.16797 -71.4971 24.501s-27.5 38.833 -27.5 67.5c0 20.667 7.66699 42.834 23 66.501s34.666 45.167 57.999 64.5h65c-24 -20.667 -43.333 -41.834 -58 -63.501s-22 -40.834 -22 -57.501c0 -13.333 3.66699 -23.833 11 -31.5
s17.666 -11.5 30.999 -11.5c23.333 0 43.666 10.667 60.999 32l16 -54c-20 -24.667 -48.667 -37 -86 -37z" />
    <glyph glyph-name="uni0394" unicode="&#x394;" horiz-adv-x="693" 
d="M682 0h-671l286 700h99zM568 72l-221 549l-222 -549h443z" />
    <glyph glyph-name="uni03A9" unicode="&#x3a9;" horiz-adv-x="823" 
d="M778 363c0 -63.333 -14.668 -119.833 -44.001 -169.5s-69.666 -90.167 -120.999 -121.5h158v-72h-284v72c62.667 21.333 113.667 57.833 153 109.5s59 110.167 59 175.5c0 78.667 -27 145.167 -81 199.5s-122.667 81.5 -206 81.5s-152.166 -27.333 -206.499 -82
s-81.5 -121 -81.5 -199c0 -65.333 19.667 -123.833 59 -175.5s90.333 -88.167 153 -109.5v-72h-283v72h156c-50.667 31.333 -90.667 71.833 -120 121.5s-44 106.167 -44 169.5c0 98 34.833 180.833 104.5 248.5s157.167 101.5 262.5 101.5s192.666 -33.833 261.999 -101.5
s104 -150.5 104 -248.5z" />
    <glyph glyph-name="uni03BC" unicode="&#x3bc;" horiz-adv-x="646" 
d="M637 -1c-20.667 -8 -40.668 -12 -60.001 -12c-62.667 0 -100 29 -112 87c-42 -58 -101.667 -87 -179 -87c-53.333 0 -98 17.333 -134 52v-249h-77v709h77v-282c0 -48 12.667 -86.167 38 -114.5s59.333 -42.5 102 -42.5c50.667 0 91.334 17.333 122.001 52s46 80 46 136
v251h77v-376c0 -44.667 15 -67 45 -67c11.333 0 24 2.33301 38 7z" />
    <glyph glyph-name="pi" unicode="&#x3c0;" horiz-adv-x="649" 
d="M509 439l-0.000976562 -316c0 -42.667 14.667 -64 44 -64c14 0 26.333 2.66699 37 8l18 -63c-19.333 -8.66699 -39.666 -13 -60.999 -13c-75.333 0 -113 44 -113 132v316h-225v-439h-75v439h-104v70h588v-70h-109z" />
    <glyph glyph-name="uni0401" unicode="&#x401;" horiz-adv-x="623" 
d="M221 776c-13.333 0 -24.5 4.5 -33.5 13.5s-13.5 20.167 -13.5 33.5s4.5 24.333 13.5 33s20.167 13 33.5 13s24.5 -4.33301 33.5 -13s13.5 -19.667 13.5 -33s-4.5 -24.5 -13.5 -33.5s-20.167 -13.5 -33.5 -13.5zM406 776c-14 0 -25.333 4.5 -34 13.5s-13 20.167 -13 33.5
s4.33301 24.333 13 33s20 13 34 13c13.333 0 24.5 -4.33301 33.5 -13s13.5 -19.667 13.5 -33s-4.5 -24.5 -13.5 -33.5s-20.167 -13.5 -33.5 -13.5zM154 627v-236h363v-70h-363v-248h413v-73h-492v700h493v-73h-414z" />
    <glyph glyph-name="uni0410" unicode="&#x410;" horiz-adv-x="695" 
d="M523 188h-351l-76 -188h-85l287 700h99l287 -700h-85zM494 260l-146 360l-147 -360h293z" />
    <glyph glyph-name="uni0411" unicode="&#x411;" horiz-adv-x="643" 
d="M380 451c72 0 128.833 -22.5 170.5 -67.5s62.5 -97.5 62.5 -157.5c0 -58.667 -20.667 -111 -62 -157s-97 -69 -167 -69h-309v700h470v-73h-391v-176h226zM382 73c44.667 0 81.5 15.1689 110.5 45.502s43.5 66.166 43.5 107.499s-14.333 77.166 -43 107.499
s-67 45.5 -115 45.5h-224v-306h228z" />
    <glyph glyph-name="uni0412" unicode="&#x412;" horiz-adv-x="685" 
d="M513 366c39.333 -13.333 69.998 -35.167 91.998 -65.5s33 -65.833 33 -106.5c0 -56 -20 -102.333 -60 -139s-94.333 -55 -163 -55h-340v700h317c62.667 0 114.334 -17 155.001 -51s61.334 -77.667 62.001 -131c0.666992 -71.333 -31.333 -122 -96 -152zM153.998 628.999
l0.00195312 -236.999h244c40 0 72.167 11.5 96.5 34.5s36.166 51.167 35.499 84.5c0 34.667 -12.833 63.167 -38.5 85.5s-59.834 33.166 -102.501 32.499h-235zM412 71c44.667 0 80.333 12.5 107 37.5s40 55.5 40 91.5c0 34 -13 63.667 -39 89s-61.333 38 -106 38h-260v-256
h258z" />
    <glyph glyph-name="uni0413" unicode="&#x413;" horiz-adv-x="588" 
d="M573 627h-418v-627h-80v700h498v-73z" />
    <glyph glyph-name="uni0414" unicode="&#x414;" horiz-adv-x="798" 
d="M706 72h72v-212h-72v140h-614v-140h-72v212h73l257 628h99zM177 72h445l-222 548z" />
    <glyph glyph-name="uni0415" unicode="&#x415;" horiz-adv-x="623" 
d="M154 627v-236h363v-70h-363v-248h413v-73h-492v700h493v-73h-414z" />
    <glyph glyph-name="uni0416" unicode="&#x416;" horiz-adv-x="908" 
d="M573 386l315 -386h-98l-270 330l-26 -28v-302h-80v302l-26 28l-270 -330h-98l315 386l-289 314h102l266 -291v291h80v-291l266 291h102z" />
    <glyph glyph-name="uni0417" unicode="&#x417;" horiz-adv-x="584" 
d="M86 578c16 42.667 41.668 75.8311 77.001 99.498s78.333 35.5 129 35.5c60 0 109.667 -17.167 149 -51.5s59 -78.5 59 -132.5c0 -69.333 -31 -118.666 -93 -147.999c42 -13.333 75.167 -35 99.5 -65s36.5 -67.333 36.5 -112c0 -60.667 -23.333 -112 -70 -154
s-105 -63 -175 -63c-73.333 0 -132.333 18.333 -177 55s-73 81.334 -85 134.001l73 19c8 -39.333 28.667 -71.5 62 -96.5s75 -37.5 125 -37.5c52 0 93.5 13.833 124.5 41.5s46.167 61.5 45.5 101.5c-0.666992 42.667 -14.667 75.667 -42 99s-65 35 -113 35h-53v63h22
c43.333 0 78.166 11.5 104.499 34.5s39.5 53.167 39.5 90.5c0 34.667 -12 62.667 -36 84s-55.333 32 -94 32c-69.333 0 -114.333 -28.667 -135 -86z" />
    <glyph glyph-name="uni0418" unicode="&#x418;" horiz-adv-x="723" 
d="M648 0h-79v561l-425 -561h-69v700h80v-560l424 560h69v-700z" />
    <glyph glyph-name="uni0419" unicode="&#x419;" horiz-adv-x="723" 
d="M362 766c-47.333 0 -83.833 12.667 -109.5 38s-38.5 57.333 -38.5 96h65c0.666992 -24 7.66699 -43.333 21 -58s34 -22 62 -22s48.833 7.5 62.5 22.5s20.5 34.167 20.5 57.5h65c0 -38.667 -12.833 -70.667 -38.5 -96s-62.167 -38 -109.5 -38zM648 0h-79v561l-425 -561
h-69v700h80v-560l424 560h69v-700z" />
    <glyph glyph-name="uni041A" unicode="&#x41a;" horiz-adv-x="678" 
d="M290 330l-135 -147v-183h-80v700h80v-410l375 410h102l-289 -314l315 -386h-98z" />
    <glyph glyph-name="uni041B" unicode="&#x41b;" horiz-adv-x="695" 
d="M96 0h-85l287 700h99l287 -700h-85l-251 620z" />
    <glyph glyph-name="uni041C" unicode="&#x41c;" horiz-adv-x="823" 
d="M748 700v-700h-79v563l-257 -364l-257 364v-563h-80v700h76l261 -373l260 373h76z" />
    <glyph glyph-name="uni041D" unicode="&#x41d;" horiz-adv-x="718" 
d="M643 700v-700h-80v321h-408v-321h-80v700h80v-307h408v307h80z" />
    <glyph glyph-name="uni041E" unicode="&#x41e;" horiz-adv-x="806" 
d="M403 -13c-102.667 0 -188.5 35 -257.5 105s-103.5 156.667 -103.5 260c0 102 34.5 187.667 103.5 257s154.833 104 257.5 104s188.5 -34.667 257.5 -104s103.5 -155 103.5 -257c0 -103.333 -34.5 -190 -103.5 -260s-154.833 -105 -257.5 -105zM403 61
c82.667 0 150.167 28 202.5 84s78.5 125 78.5 207c0 80 -26.167 147.833 -78.5 203.5s-119.833 83.5 -202.5 83.5s-150.167 -27.833 -202.5 -83.5s-78.5 -123.5 -78.5 -203.5c0 -82 26.167 -151 78.5 -207s119.833 -84 202.5 -84z" />
    <glyph glyph-name="uni041F" unicode="&#x41f;" horiz-adv-x="718" 
d="M643 700v-700h-80v628h-408v-628h-80v700h568z" />
    <glyph glyph-name="uni0420" unicode="&#x420;" horiz-adv-x="643" 
d="M384 700c70 0 125.667 -23 167 -69s62 -98.333 62 -157c0 -60 -20.833 -112.5 -62.5 -157.5s-98.5 -67.5 -170.5 -67.5h-226v-249h-79v700h309zM378 321c48 0 86.333 15.1689 115 45.502s43 66.166 43 107.499s-14.5 77.166 -43.5 107.499s-65.833 45.5 -110.5 45.5h-228
v-306h224z" />
    <glyph glyph-name="uni0421" unicode="&#x421;" horiz-adv-x="780" 
d="M405 -13c-103.333 0 -189.665 34.9971 -258.998 104.997s-104 156.667 -104 260c0 102 34.667 187.667 104 257s155.333 104 258 104c80 0 149.333 -19.833 208 -59.5s99 -90.167 121 -151.5l-78 -19c-18 45.333 -49.167 82.5 -93.5 111.5s-96.833 43.5 -157.5 43.5
c-82.667 0 -150.334 -27.667 -203.001 -83s-79 -122.666 -79 -201.999c0 -81.333 26.167 -150.166 78.5 -206.499s120.166 -84.5 203.499 -84.5c60.667 0 113.167 14.333 157.5 43s75.5 66 93.5 112l76 -20c-22.667 -61.333 -63 -111.666 -121 -150.999
s-126.333 -59 -205 -59z" />
    <glyph glyph-name="uni0422" unicode="&#x422;" horiz-adv-x="627" 
d="M612 627h-258v-627h-80v627h-259v73h597v-73z" />
    <glyph glyph-name="uni0423" unicode="&#x423;" horiz-adv-x="676" 
d="M591 700l89.998 -0.00292969l-287 -567c-27.333 -55.333 -55.333 -94.666 -84 -117.999s-62.667 -32.666 -102 -27.999c-41.333 4.66699 -72.666 20 -93.999 46l41 69c20 -24.667 42 -37 66 -37c18.667 0 33.834 4.33301 45.501 13s24.5 25.334 38.5 50.001l-291 572h89
l246 -486z" />
    <glyph glyph-name="uni0424" unicode="&#x424;" horiz-adv-x="920" 
d="M536 700c229.333 0 344 -96.667 344 -290s-114.667 -290 -344 -290h-37v-120h-77v120h-38c-229.333 0 -344 96.667 -344 290s114.667 290 344 290h152zM385 193l37 -0.00195312v435h-37c-88 0 -154.167 -17.167 -198.5 -51.5s-66.5 -89.166 -66.5 -164.499
c0 -77.333 22.167 -133.166 66.5 -167.499s110.5 -51.5 198.5 -51.5zM535 192.998c88 0 154.167 17.1689 198.5 51.502s66.5 90.166 66.5 167.499c0 75.333 -22.167 130.166 -66.5 164.499s-110.5 51.5 -198.5 51.5h-36v-435h36z" />
    <glyph glyph-name="uni0425" unicode="&#x425;" horiz-adv-x="682" 
d="M565 0l-224 296l-224 -296h-97l266 353l-260 347h97l218 -290l218 290h97l-260 -347l266 -353h-97z" />
    <glyph glyph-name="uni0426" unicode="&#x426;" horiz-adv-x="788" 
d="M643 72h85v-212h-72v140h-581v700h80v-628h408v628h80v-628z" />
    <glyph glyph-name="uni0427" unicode="&#x427;" horiz-adv-x="707" 
d="M565 700l76.999 0.000976562v-700h-77v273c-44.667 -66 -115 -99 -211 -99c-90 0 -160.5 26.5 -211.5 79.5s-76.5 123.5 -76.5 211.5v235h81v-233c0 -66.667 17.833 -119.834 53.5 -159.501s86.834 -59.5 153.501 -59.5s118.5 20 155.5 60s55.5 93 55.5 159v233z" />
    <glyph glyph-name="uni0428" unicode="&#x428;" horiz-adv-x="910" 
d="M754 700h81v-700h-760v700h80v-628h270l-1 628h81v-628h250z" />
    <glyph glyph-name="uni0429" unicode="&#x429;" horiz-adv-x="986" 
d="M835 72h91v-212h-72v140h-779v700h80v-628h270l-1 628h81v-628h250l-1 628h81v-628z" />
    <glyph glyph-name="uni042A" unicode="&#x42a;" horiz-adv-x="672" 
d="M409 451c72 0 128.833 -22.5 170.5 -67.5s62.5 -97.5 62.5 -157.5c0 -58.667 -20.667 -111 -62 -157s-97 -69 -167 -69h-309v629h-84v72h161v-1h2v-249h226zM411 73c44.667 0 81.5 15.1689 110.5 45.502s43.5 66.166 43.5 107.499s-14.333 77.166 -43 107.499
s-67 45.5 -115 45.5h-224v-306h228z" />
    <glyph glyph-name="uni042B" unicode="&#x42b;" horiz-adv-x="870" 
d="M384 0h-309v700h79v-249h226c72 0 128.833 -22.5 170.5 -67.5s62.5 -97.5 62.5 -157.5c0 -58.667 -20.667 -111 -62 -157s-97 -69 -167 -69zM718 700h77v-700h-77v700zM378 379l-224 0.00195312v-306h228c44.667 0 81.5 15.167 110.5 45.5s43.5 66.166 43.5 107.499
s-14.333 77.166 -43 107.499s-67 45.5 -115 45.5z" />
    <glyph glyph-name="uni042C" unicode="&#x42c;" horiz-adv-x="643" 
d="M384 0h-309v700h79v-249h226c72 0 128.833 -22.5 170.5 -67.5s62.5 -97.5 62.5 -157.5c0 -58.667 -20.667 -111 -62 -157s-97 -69 -167 -69zM378 379l-224 0.00195312v-306h228c44.667 0 81.5 15.167 110.5 45.5s43.5 66.166 43.5 107.499s-14.333 77.166 -43 107.499
s-67 45.5 -115 45.5z" />
    <glyph glyph-name="uni042D" unicode="&#x42d;" horiz-adv-x="780" 
d="M376 713c102.667 0 188.666 -34.666 257.999 -103.999s104 -155 104 -257c0 -103.333 -34.667 -190 -104 -260s-155.666 -105 -258.999 -105c-78.667 0 -147 19.667 -205 59s-98.333 89.666 -121 150.999l76 20c18 -46 49.167 -83.333 93.5 -112s96.833 -43 157.5 -43
c77.333 0 141.5 24.667 192.5 74s80.167 111 87.5 185h-350v70h350c-8.66699 70.667 -38.5 129.5 -89.5 176.5s-114.5 70.5 -190.5 70.5c-60.667 0 -113.167 -14.5 -157.5 -43.5s-75.5 -66.167 -93.5 -111.5l-78 19c22 61.333 62.333 111.833 121 151.5s128 59.5 208 59.5z
" />
    <glyph glyph-name="uni042E" unicode="&#x42e;" horiz-adv-x="1033" 
d="M630 713c102.667 0 188.502 -34.667 257.502 -104s103.5 -155 103.5 -257c0 -103.333 -34.5 -190 -103.5 -260s-154.833 -105 -257.5 -105c-97.333 0 -179.833 31.5 -247.5 94.5s-105.167 142.833 -112.5 239.5h-118v-321h-77v700h77v-307h119
c9.33301 92.667 47.666 169.167 114.999 229.5s148.666 90.5 243.999 90.5zM630.002 61c82.667 0 150.167 28 202.5 84s78.5 125 78.5 207c0 80 -26.167 147.833 -78.5 203.5s-119.833 83.5 -202.5 83.5s-150.167 -27.833 -202.5 -83.5s-78.5 -123.5 -78.5 -203.5
c0 -82 26.167 -151 78.5 -207s119.833 -84 202.5 -84z" />
    <glyph glyph-name="uni042F" unicode="&#x42f;" horiz-adv-x="676" 
d="M317 275l-183 -274.999h-92l188 279c-54.667 10 -97.5 34.833 -128.5 74.5s-46.5 84.167 -46.5 133.5c0 55.333 20 104.666 60 147.999s94 65 162 65h324v-700h-79v275h-205zM522 346.001v282.001h-243c-44 0 -79.5 -14 -106.5 -42s-40.5 -61 -40.5 -99
c0 -38.667 13.5 -71.834 40.5 -99.501s62.833 -41.5 107.5 -41.5h242z" />
    <glyph glyph-name="uni0430" unicode="&#x430;" horiz-adv-x="644" 
d="M295 -13c-72 0 -132 24.999 -180 74.999s-72 112.667 -72 188c0 74.667 24 136.834 72 186.501s108 74.5 180 74.5c87.333 0 153 -34 197 -102v90h77v-499h-77v91c-43.333 -69.333 -109 -104 -197 -104zM306 56.999c52 0 96.333 18.3301 133 54.9971
s55 82.334 55 137.001s-18.333 100.334 -55 137.001s-81 55 -133 55c-54.667 0 -99.5 -18 -134.5 -54s-52.5 -82 -52.5 -138c0 -55.333 17.5 -101.166 52.5 -137.499s79.833 -54.5 134.5 -54.5z" />
    <glyph glyph-name="uni0431" unicode="&#x431;" horiz-adv-x="608" 
d="M314 493c72.667 0 132.834 -24.168 180.501 -72.501s71.5 -108.5 71.5 -180.5c0 -73.333 -23.667 -133.666 -71 -180.999s-107.666 -71 -180.999 -71c-82 0 -147.833 25 -197.5 75s-74.5 115 -74.5 195v204c0 74 22.833 134.167 68.5 180.5s105.167 69.5 178.5 69.5h201
v-70h-201c-52.667 0 -94.334 -16.5 -125.001 -49.5s-46 -76.5 -46 -130.5v-65c43.333 64 108.666 96 195.999 96zM303 57.999c54.667 0 99.5 17.168 134.5 51.501s52.5 78.166 52.5 131.499c0 52.667 -17.5 96.167 -52.5 130.5s-79.833 51.5 -134.5 51.5
c-52 0 -96 -17.5 -132 -52.5s-54 -78.167 -54 -129.5c0 -52 18 -95.5 54 -130.5s80 -52.5 132 -52.5z" />
    <glyph glyph-name="uni0432" unicode="&#x432;" horiz-adv-x="507" 
d="M369 278c26.667 -7.33301 49.167 -22.499 67.5 -45.499s27.5 -47.5 27.5 -73.5c0 -48 -15.833 -86.5 -47.5 -115.5s-72.167 -43.5 -121.5 -43.5h-220v499h216c41.333 0 75.5 -11.833 102.5 -35.5s40.5 -53.834 40.5 -90.501c0 -42 -21.667 -73.667 -65 -95zM152 434.001
l0.000976562 -134h131c19.333 0 37.166 7.16699 53.499 21.5s24.5 32.5 24.5 54.5c0 16.667 -7 30.5 -21 41.5s-30.333 16.5 -49 16.5h-139zM295.001 65.001c26.667 0 49.332 8.33301 67.999 25s27.667 39.667 27 69c-0.666992 24 -9.16699 44 -25.5 60
s-36.166 24 -59.499 24h-153v-178h143z" />
    <glyph glyph-name="uni0433" unicode="&#x433;" horiz-adv-x="403" 
d="M392 499v-70h-240v-429h-77v499h317z" />
    <glyph glyph-name="uni0434" unicode="&#x434;" horiz-adv-x="621" 
d="M540 70h53v-190h-77v120h-413v-120h-75v190h53l187 429h85zM164 70h293l-146 345z" />
    <glyph glyph-name="uni0435" unicode="&#x435;" horiz-adv-x="590" 
d="M306 -13c-77.333 0 -140.499 24 -189.499 72s-73.5 111.667 -73.5 191c0 74.667 23.667 136.834 71 186.501s108.333 74.5 183 74.5c77.333 0 138.333 -23.667 183 -71s67 -107 67 -179c0 -15.333 -0.666992 -27.333 -2 -36h-426
c3.33301 -50.667 21.666 -91.667 54.999 -123s77.333 -47 132 -47c40.667 0 75 9.16699 103 27.5s48.667 41.5 62 69.5l71 -21c-18.667 -40.667 -48 -74.834 -88 -102.501s-89.333 -41.5 -148 -41.5zM471.001 283c-3.33301 48 -20.333 86.667 -51 116s-71.667 44 -123 44
c-49.333 0 -90.5 -15.667 -123.5 -47s-51.167 -69.333 -54.5 -114z" />
    <glyph glyph-name="uni0436" unicode="&#x436;" horiz-adv-x="723" 
d="M475 282l233 -282h-91l-192 230l-25 -26v-204h-77v204l-25 26l-192 -230h-91l233 282l-207 217h95l187 -196v196h77v-196l187 196h95z" />
    <glyph glyph-name="uni0437" unicode="&#x437;" horiz-adv-x="432" 
d="M59 414c12 30.667 30.6689 54.5 56.002 71.5s56.333 25.5 93 25.5c43.333 0 79.166 -12.333 107.499 -37s42.5 -56.334 42.5 -95.001c0 -44.667 -22.667 -78 -68 -100c28 -8 51.5 -23.833 70.5 -47.5s28.5 -49.5 28.5 -77.5c0 -50.667 -16.5 -91.167 -49.5 -121.5
s-75.5 -45.5 -127.5 -45.5c-52.667 0 -95 13.167 -127 39.5s-52.667 58.5 -62 96.5l79 21c5.33301 -23.333 18.666 -44 39.999 -62s44.333 -27 69 -27c28.667 0 52.834 8.83301 72.501 26.5s29.167 41.834 28.5 72.501c-0.666992 26 -9.83398 48.333 -27.501 67
s-38.5 28 -62.5 28h-38v53h15c20 0 38.667 7.5 56 22.5s26 34.167 26 57.5c0 18 -7.33301 32.667 -22 44s-31.667 17 -51 17c-16.667 0 -32 -4.83301 -46 -14.5s-23.333 -23.5 -28 -41.5z" />
    <glyph glyph-name="uni0438" unicode="&#x438;" horiz-adv-x="565" 
d="M75 0v499h77v-363l276 363h67v-499h-77v364l-276 -364h-67z" />
    <glyph glyph-name="uni0439" unicode="&#x439;" horiz-adv-x="565" 
d="M283 565c-47.333 0 -83.833 12.667 -109.5 38s-38.5 57.333 -38.5 96h65c0.666992 -24 7.66699 -43.333 21 -58s34 -22 62 -22s48.833 7.5 62.5 22.5s20.5 34.167 20.5 57.5h65c0 -38.667 -12.833 -70.667 -38.5 -96s-62.167 -38 -109.5 -38zM75 0v499h77v-363l276 363
h67v-499h-77v364l-276 -364h-67z" />
    <glyph glyph-name="uni043A" unicode="&#x43a;" horiz-adv-x="526" 
d="M228 230l-76 -79v-151h-77v499h77v-249l238 249h95l-207 -217l233 -282h-91z" />
    <glyph glyph-name="uni043B" unicode="&#x43b;" horiz-adv-x="541" 
d="M530 0h-83l-176 415l-177 -415h-83l217 499h85z" />
    <glyph glyph-name="uni043C" unicode="&#x43c;" horiz-adv-x="669" 
d="M594 499v-499h-77v322l-140 -322h-85l-140 322v-322h-77v499h83l177 -415l176 415h83z" />
    <glyph glyph-name="uni043D" unicode="&#x43d;" horiz-adv-x="565" 
d="M418 499h77v-499h-77v225h-266v-225h-77v499h77v-204h266v204z" />
    <glyph glyph-name="uni043E" unicode="&#x43e;" horiz-adv-x="613" 
d="M307 -13c-75.333 0 -138.166 25.167 -188.499 75.5s-75.5 112.833 -75.5 187.5s25.167 136.834 75.5 186.501s113.166 74.5 188.499 74.5s138 -24.833 188 -74.5s75 -111.834 75 -186.501s-25 -137.167 -75 -187.5s-112.667 -75.5 -188 -75.5zM307 58
c53.333 0 97.833 18.167 133.5 54.5s53.5 81.833 53.5 136.5s-17.833 100.334 -53.5 137.001s-80.167 55 -133.5 55c-54 0 -99 -18.333 -135 -55s-54 -82.334 -54 -137.001s18 -100.167 54 -136.5s81 -54.5 135 -54.5z" />
    <glyph glyph-name="uni043F" unicode="&#x43f;" horiz-adv-x="570" 
d="M495 499v-499h-77v429h-266v-429h-77v499h420z" />
    <glyph glyph-name="uni0440" unicode="&#x440;" horiz-adv-x="644" 
d="M349 511c72 0 131.999 -24.832 179.999 -74.499s72 -111.834 72 -186.501c0 -75.333 -24 -138 -72 -188s-108 -75 -180 -75c-44 0 -82.833 9.16699 -116.5 27.5s-60.5 43.833 -80.5 76.5v-301h-77v709h77v-90c42.667 68 108.334 102 197.001 102zM337.999 57.001
c54.667 0 99.5 18.1699 134.5 54.5029s52.5 82.166 52.5 137.499c0 56 -17.5 102 -52.5 138s-79.833 54 -134.5 54c-52 0 -96.333 -18.333 -133 -55s-55 -82.334 -55 -137.001s18.333 -100.334 55 -137.001s81 -55 133 -55z" />
    <glyph glyph-name="uni0441" unicode="&#x441;" horiz-adv-x="577" 
d="M303 -13c-74.667 0 -136.668 25.1689 -186.001 75.502s-74 113.166 -74 188.499c0 74 24.667 135.833 74 185.5s111.333 74.5 186 74.5c59.333 0 109.833 -15.5 151.5 -46.5s68.167 -65.833 79.5 -104.5l-72 -21c-8.66699 27.333 -27.667 51.333 -57 72
s-63.333 31 -102 31c-54.667 0 -99 -18.833 -133 -56.5s-51 -83.167 -51 -136.5c0 -52.667 17.167 -97.834 51.5 -135.501s78.5 -56.5 132.5 -56.5c39.333 0 73.5 9.83301 102.5 29.5s47.833 43.167 56.5 70.5l72 -19c-11.333 -39.333 -37.666 -74.333 -78.999 -105
s-92 -46 -152 -46z" />
    <glyph glyph-name="uni0442" unicode="&#x442;" horiz-adv-x="453" 
d="M432 499v-70h-167v-429h-77v429h-167v70h411z" />
    <glyph glyph-name="uni0443" unicode="&#x443;" horiz-adv-x="546" 
d="M535 499l-307 -709h-81l95 220l-231 489h85l185 -403l172 403h82z" />
    <glyph glyph-name="uni0444" unicode="&#x444;" horiz-adv-x="805" 
d="M451 511c207.333 0 311 -87.333 311 -262s-103.667 -262 -311 -262h-10v-159h-77v159h-10c-207.333 0 -311 87.333 -311 262s103.667 262 311 262h10v160h77v-160h10zM355 56h8.99902v387h-9c-79.333 0 -138.666 -15 -177.999 -45s-59 -79 -59 -147
c0 -70 19.5 -120 58.5 -150s98.5 -45 178.5 -45zM449.999 56c80 0 139.333 15 178 45s58 80 58 150c0 68 -19.5 117 -58.5 147s-98.167 45 -177.5 45h-9v-387h9z" />
    <glyph glyph-name="uni0445" unicode="&#x445;" horiz-adv-x="523" 
d="M420 0l-158 200l-159 -200h-92l199 252l-189 247h90l151 -194l150 194h90l-189 -247l199 -252h-92z" />
    <glyph glyph-name="uni0446" unicode="&#x446;" horiz-adv-x="618" 
d="M495 70h58v-190h-77v120h-401v499h77v-429h266v429h77v-429z" />
    <glyph glyph-name="uni0447" unicode="&#x447;" horiz-adv-x="600" 
d="M532 499v-499.001h-77v227c-40.667 -66.667 -102 -100 -184 -100c-62.667 0 -111.834 19.333 -147.501 58s-53.5 92.334 -53.5 161.001v153h77v-142c0 -49.333 12.167 -87.833 36.5 -115.5s58.833 -41.5 103.5 -41.5c50.667 0 91.334 17.333 122.001 52s46 80 46 136v111
h77z" />
    <glyph glyph-name="uni0448" unicode="&#x448;" horiz-adv-x="852" 
d="M715 499h77v-499h-717v499h77v-429h243v429h77v-429h243v429z" />
    <glyph glyph-name="uni0449" unicode="&#x449;" horiz-adv-x="915" 
d="M792 70h58v-190h-77v120h-698v499h77v-429h243v429h77v-429h243v429h77v-429z" />
    <glyph glyph-name="uni044A" unicode="&#x44a;" horiz-adv-x="517" 
d="M292 340c54 0 97.833 -17.168 131.5 -51.501s50.5 -73.5 50.5 -117.5c0 -43.333 -16.667 -82.666 -50 -117.999s-76.333 -53 -129 -53h-220v429h-79v70h156v-159h140zM294 69.999c32.667 0 59.167 9.33301 79.5 28s30.5 43 30.5 73s-10 54 -30 72s-47.667 27 -83 27h-139
v-200h142z" />
    <glyph glyph-name="uni044B" unicode="&#x44b;" horiz-adv-x="678" 
d="M295 0l-220 -0.000976562v499h77v-159h140c54 0 97.833 -17.167 131.5 -51.5s50.5 -73.5 50.5 -117.5c0 -43.333 -16.667 -82.666 -50 -117.999s-76.333 -53 -129 -53zM541 -0.000976562v499h77v-499h-77zM291 269.999h-139v-200h142c32.667 0 59.167 9.33301 79.5 28
s30.5 43 30.5 73s-10 54 -30 72s-47.667 27 -83 27z" />
    <glyph glyph-name="uni044C" unicode="&#x44c;" horiz-adv-x="517" 
d="M295 0l-220 -0.000976562v499h77v-159h140c54 0 97.833 -17.167 131.5 -51.5s50.5 -73.5 50.5 -117.5c0 -43.333 -16.667 -82.666 -50 -117.999s-76.333 -53 -129 -53zM291 269.999h-139v-200h142c32.667 0 59.167 9.33301 79.5 28s30.5 43 30.5 73s-10 54 -30 72
s-47.667 27 -83 27z" />
    <glyph glyph-name="uni044D" unicode="&#x44d;" horiz-adv-x="577" 
d="M274 511c74.667 0 136.666 -24.834 185.999 -74.501s74 -111.5 74 -185.5c0 -75.333 -24.667 -138.166 -74 -188.499s-111.333 -75.5 -186 -75.5c-60 0 -110.667 15.333 -152 46s-67.666 65.667 -78.999 105l72 19c8.66699 -27.333 27.5 -50.833 56.5 -70.5
s63.167 -29.5 102.5 -29.5c48 0 88.333 15 121 45s52.667 67.667 60 113h-271v70h271c-8 45.333 -28.167 82.833 -60.5 112.5s-72.5 44.5 -120.5 44.5c-38.667 0 -72.667 -10.333 -102 -31s-48.333 -44.667 -57 -72l-72 21c11.333 38.667 37.833 73.5 79.5 104.5
s92.167 46.5 151.5 46.5z" />
    <glyph glyph-name="uni044E" unicode="&#x44e;" horiz-adv-x="820" 
d="M514 511c75.333 0 138.001 -24.832 188.001 -74.499s75 -111.834 75 -186.501s-25 -137.167 -75 -187.5s-112.667 -75.5 -188 -75.5c-69.333 0 -128.333 21.5 -177 64.5s-77 97.833 -85 164.5h-100v-216h-77v499h77v-213h100c8.66699 66 37.167 120 85.5 162
s107.166 63 176.499 63zM514.001 58.001c53.333 0 97.833 18.167 133.5 54.5s53.5 81.833 53.5 136.5s-17.833 100.334 -53.5 137.001s-80.167 55 -133.5 55c-54 0 -99 -18.333 -135 -55s-54 -82.334 -54 -137.001s18 -100.167 54 -136.5s81 -54.5 135 -54.5z" />
    <glyph glyph-name="uni044F" unicode="&#x44f;" horiz-adv-x="534" 
d="M254 499h220v-499h-77v159h-120l-127 -159h-92l134 169c-36 12.667 -64.5 33.834 -85.5 63.501s-31.5 61.5 -31.5 95.5c0 43.333 16.667 82.666 50 117.999s76.333 53 129 53zM397 229v200h-142c-32.667 0 -59.167 -9.33301 -79.5 -28s-30.5 -43 -30.5 -73s10 -54 30 -72
s47.667 -27 83 -27h139z" />
    <glyph glyph-name="uni0451" unicode="&#x451;" horiz-adv-x="590" 
d="M204 575c-13.333 0 -24.5 4.5 -33.5 13.5s-13.5 20.167 -13.5 33.5s4.5 24.333 13.5 33s20.167 13 33.5 13s24.5 -4.33301 33.5 -13s13.5 -19.667 13.5 -33s-4.5 -24.5 -13.5 -33.5s-20.167 -13.5 -33.5 -13.5zM389 575c-14 0 -25.333 4.5 -34 13.5s-13 20.167 -13 33.5
s4.33301 24.333 13 33s20 13 34 13c13.333 0 24.5 -4.33301 33.5 -13s13.5 -19.667 13.5 -33s-4.5 -24.5 -13.5 -33.5s-20.167 -13.5 -33.5 -13.5zM306 -13c-77.333 0 -140.499 24 -189.499 72s-73.5 111.667 -73.5 191c0 74.667 23.667 136.834 71 186.501
s108.333 74.5 183 74.5c77.333 0 138.333 -23.667 183 -71s67 -107 67 -179c0 -15.333 -0.666992 -27.333 -2 -36h-426c3.33301 -50.667 21.666 -91.667 54.999 -123s77.333 -47 132 -47c40.667 0 75 9.16699 103 27.5s48.667 41.5 62 69.5l71 -21
c-18.667 -40.667 -48 -74.834 -88 -102.501s-89.333 -41.5 -148 -41.5zM471.001 283c-3.33301 48 -20.333 86.667 -51 116s-71.667 44 -123 44c-49.333 0 -90.5 -15.667 -123.5 -47s-51.167 -69.333 -54.5 -114z" />
    <glyph glyph-name="Wgrave" unicode="&#x1e80;" horiz-adv-x="986" 
d="M466 779l-97 136h89l79 -136h-71zM971 700l-220 -700h-83l-175 570l-175 -570h-83l-220 700h83l179 -587l179 587h73l179 -587l180 587h83z" />
    <glyph glyph-name="wgrave" unicode="&#x1e81;" horiz-adv-x="769" 
d="M357 578l-97 136h89l79 -136h-71zM757 499l-171 -499h-75l-126 384l-127 -384h-75l-172 499h81l131 -401l128 401h67l128 -401l131 401h80z" />
    <glyph glyph-name="Wacute" unicode="&#x1e82;" horiz-adv-x="986" 
d="M520 779h-71l80 136h88zM971 700l-220 -700h-83l-175 570l-175 -570h-83l-220 700h83l179 -587l179 587h73l179 -587l180 587h83z" />
    <glyph glyph-name="wacute" unicode="&#x1e83;" horiz-adv-x="769" 
d="M411 578h-71l80 136h88zM757 499l-171 -499h-75l-126 384l-127 -384h-75l-172 499h81l131 -401l128 401h67l128 -401l131 401h80z" />
    <glyph glyph-name="Wdieresis" unicode="&#x1e84;" horiz-adv-x="986" 
d="M401 776c-13.333 0 -24.5 4.5 -33.5 13.5s-13.5 20.167 -13.5 33.5s4.5 24.333 13.5 33s20.167 13 33.5 13s24.5 -4.33301 33.5 -13s13.5 -19.667 13.5 -33s-4.5 -24.5 -13.5 -33.5s-20.167 -13.5 -33.5 -13.5zM586 776c-14 0 -25.333 4.5 -34 13.5s-13 20.167 -13 33.5
s4.33301 24.333 13 33s20 13 34 13c13.333 0 24.5 -4.33301 33.5 -13s13.5 -19.667 13.5 -33s-4.5 -24.5 -13.5 -33.5s-20.167 -13.5 -33.5 -13.5zM971 700l-220 -700h-83l-175 570l-175 -570h-83l-220 700h83l179 -587l179 587h73l179 -587l180 587h83z" />
    <glyph glyph-name="wdieresis" unicode="&#x1e85;" horiz-adv-x="769" 
d="M292 575c-13.333 0 -24.5 4.5 -33.5 13.5s-13.5 20.167 -13.5 33.5s4.5 24.333 13.5 33s20.167 13 33.5 13s24.5 -4.33301 33.5 -13s13.5 -19.667 13.5 -33s-4.5 -24.5 -13.5 -33.5s-20.167 -13.5 -33.5 -13.5zM477 575c-14 0 -25.333 4.5 -34 13.5s-13 20.167 -13 33.5
s4.33301 24.333 13 33s20 13 34 13c13.333 0 24.5 -4.33301 33.5 -13s13.5 -19.667 13.5 -33s-4.5 -24.5 -13.5 -33.5s-20.167 -13.5 -33.5 -13.5zM757 499l-171 -499h-75l-126 384l-127 -384h-75l-172 499h81l131 -401l128 401h67l128 -401l131 401h80z" />
    <glyph glyph-name="Ygrave" unicode="&#x1ef2;" horiz-adv-x="652" 
d="M300 779l-97 136h89l79 -136h-71zM641 700l-275 -432v-268h-80v268l-275 432h91l224 -357l225 357h90z" />
    <glyph glyph-name="ygrave" unicode="&#x1ef3;" horiz-adv-x="546" 
d="M251 578l-97 136h89l79 -136h-71zM535 499l-307 -709h-81l95 220l-231 489h85l185 -403l172 403h82z" />
    <glyph glyph-name="endash" unicode="&#x2013;" horiz-adv-x="625" 
d="M70 343h485v-66h-485v66z" />
    <glyph glyph-name="emdash" unicode="&#x2014;" horiz-adv-x="925" 
d="M70 343h785v-66h-785v66z" />
    <glyph glyph-name="quoteleft" unicode="&#x2018;" horiz-adv-x="241" 
d="M143 460h-88l66 240h65z" />
    <glyph glyph-name="quoteright" unicode="&#x2019;" horiz-adv-x="241" 
d="M98 700h88l-65 -240h-66z" />
    <glyph glyph-name="quotesinglbase" unicode="&#x201a;" horiz-adv-x="241" 
d="M98 103h88l-65 -240h-66z" />
    <glyph glyph-name="quotedblleft" unicode="&#x201c;" horiz-adv-x="393" 
d="M143 460h-88l66 240h65zM295 460h-88l66 240h65z" />
    <glyph glyph-name="quotedblright" unicode="&#x201d;" horiz-adv-x="393" 
d="M98 700h88l-65 -240h-66zM251 700h87l-65 -240h-66z" />
    <glyph glyph-name="quotedblbase" unicode="&#x201e;" horiz-adv-x="393" 
d="M98 103h88l-65 -240h-66zM251 103h87l-65 -240h-66z" />
    <glyph glyph-name="dagger" unicode="&#x2020;" horiz-adv-x="503" 
d="M213 477h-168v71h168v182h77v-182h168v-71h-168v-477h-77v477z" />
    <glyph glyph-name="daggerdbl" unicode="&#x2021;" horiz-adv-x="503" 
d="M213 182h-168v71h168v224h-168v71h168v182h77v-182h168v-71h-168v-224h168v-71h-168v-182h-77v182z" />
    <glyph glyph-name="bullet" unicode="&#x2022;" horiz-adv-x="302" 
d="M152 196c-27.333 0.666992 -50.333 10.001 -69 28.001s-28 40.333 -28 67c0 26 9.33301 47.667 28 65s41.667 26.333 69 27c26.667 0.666992 49.167 -8 67.5 -26s27.5 -40 27.5 -66c0 -26.667 -9.16699 -49.334 -27.5 -68.001s-40.833 -27.667 -67.5 -27z" />
    <glyph glyph-name="ellipsis" unicode="&#x2026;" horiz-adv-x="623" 
d="M111 -7c-16 0 -29.333 5.33301 -40 16s-16 24 -16 40c0 15.333 5.33301 28.166 16 38.499s24 15.5 40 15.5s29.333 -5.16699 40 -15.5s16 -23.166 16 -38.499c0 -16 -5.33301 -29.333 -16 -40s-24 -16 -40 -16zM312 -7c-16 0 -29.333 5.33301 -40 16s-16 24 -16 40
c0 15.333 5.33301 28.166 16 38.499s24 15.5 40 15.5c15.333 0 28.333 -5.16699 39 -15.5s16 -23.166 16 -38.499c0 -16 -5.33301 -29.333 -16 -40s-23.667 -16 -39 -16zM512 -7c-16 0 -29.333 5.33301 -40 16s-16 24 -16 40c0 15.333 5.33301 28.166 16 38.499
s24 15.5 40 15.5s29.333 -5.16699 40 -15.5s16 -23.166 16 -38.499c0 -16 -5.33301 -29.333 -16 -40s-24 -16 -40 -16z" />
    <glyph glyph-name="perthousand" unicode="&#x2030;" horiz-adv-x="1431" 
d="M241 333c-53.333 0 -98.5 18 -135.5 54s-55.5 80.333 -55.5 133s18.5 97 55.5 133s82.167 54 135.5 54c54 0 99.5 -18 136.5 -54s55.5 -80.333 55.5 -133s-18.5 -97 -55.5 -133s-82.5 -54 -136.5 -54zM690 700h72l-453 -700h-73zM241 396c36 0 66 12.167 90 36.5
s36 53.5 36 87.5c0 34.667 -12 64 -36 88s-54 36 -90 36s-65.833 -12 -89.5 -36s-35.5 -53.333 -35.5 -88c0 -34 12 -63.167 36 -87.5s53.667 -36.5 89 -36.5zM758 -8c-53.333 0 -98.5 18.167 -135.5 54.5s-55.5 80.5 -55.5 132.5c0 52.667 18.5 97 55.5 133
s82.167 54 135.5 54c54 0 99.333 -18 136 -54s55 -80.333 55 -133c0 -52 -18.333 -96.167 -55 -132.5s-82 -54.5 -136 -54.5zM1190 -8c-53.333 0 -98.5 18.167 -135.5 54.5s-55.5 80.5 -55.5 132.5c0 52.667 18.5 97 55.5 133s82.167 54 135.5 54c54 0 99.333 -18 136 -54
s55 -80.333 55 -133c0 -52 -18.333 -96.167 -55 -132.5s-82 -54.5 -136 -54.5zM758 55c35.333 0 65 12.167 89 36.5s36 53.5 36 87.5c0 34.667 -11.833 64 -35.5 88s-53.5 36 -89.5 36s-65.833 -12 -89.5 -36s-35.5 -53.333 -35.5 -88c0 -34 11.833 -63.167 35.5 -87.5
s53.5 -36.5 89.5 -36.5zM1190 55c35.333 0 65 12.167 89 36.5s36 53.5 36 87.5c0 34.667 -11.833 64 -35.5 88s-53.5 36 -89.5 36s-65.833 -12 -89.5 -36s-35.5 -53.333 -35.5 -88c0 -34 11.833 -63.167 35.5 -87.5s53.5 -36.5 89.5 -36.5z" />
    <glyph glyph-name="guilsinglleft" unicode="&#x2039;" horiz-adv-x="319" 
d="M149 320l100 -175h-78l-101 175l101 175h78z" />
    <glyph glyph-name="guilsinglright" unicode="&#x203a;" horiz-adv-x="319" 
d="M249 320l-101 -175h-78l100 175l-100 175h78z" />
    <glyph glyph-name="fraction" unicode="&#x2044;" horiz-adv-x="188" 
d="M280 700h65l-437 -700h-66z" />
    <glyph glyph-name="zero.sups" unicode="&#x2070;" horiz-adv-x="386" 
d="M193 441c-51.333 0 -91.6689 19.167 -121.002 57.5s-44 88.833 -44 151.5c0 63.333 14.5 114.166 43.5 152.499s69.5 57.5 121.5 57.5c50.667 0 90.834 -19.167 120.501 -57.5s44.5 -89.166 44.5 -152.499c0 -62.667 -14.667 -113.167 -44 -151.5
s-69.666 -57.5 -120.999 -57.5zM192.997 501c32.667 0 57.5 13.333 74.5 40s25.5 63 25.5 109s-8.5 82.5 -25.5 109.5s-41.833 40.5 -74.5 40.5s-57.334 -13.5 -74.001 -40.5s-25 -63.5 -25 -109.5c0 -46.667 8.33301 -83.167 25 -109.5s41.334 -39.5 74.001 -39.5z" />
    <glyph glyph-name="four.sups" unicode="&#x2074;" horiz-adv-x="346" 
d="M328 534h-52v-84h-60v84h-203v49l144 267h67l-139 -260h131v89h60v-89h52v-56z" />
    <glyph glyph-name="five.sups" unicode="&#x2075;" horiz-adv-x="343" 
d="M183 703c39.333 0 71.334 -11.999 96.001 -35.999s37 -55.667 37 -95c0 -38 -13.167 -69.333 -39.5 -94s-60.5 -37 -102.5 -37c-40.667 0 -74 10.5 -100 31.5s-43 46.5 -51 76.5l55 15c16.667 -45.333 48 -68 94 -68c26 0 46.333 7.33301 61 22s22 33 22 55
c0 23.333 -7.33301 42.166 -22 56.499s-35 21.5 -61 21.5c-34.667 0 -64.334 -9 -89.001 -27l-45 15l18 211h242v-55h-189l-10 -110c25.333 12 53.333 18 84 18z" />
    <glyph glyph-name="six.sups" unicode="&#x2076;" horiz-adv-x="331" 
d="M176 715c40 -0.666992 72.832 -14 98.499 -40s38.5 -58 38.5 -96c0 -39.333 -13.667 -72.166 -41 -98.499s-62.666 -39.5 -105.999 -39.5s-79 13.167 -107 39.5s-41.667 59.166 -41 98.499c0 28.667 10.333 59 31 91l119 180h67l-90 -138c6.66699 2 17 3 31 3z
M165.999 496c26 0 47 7.83301 63 23.5s24 35.5 24 59.5c0 23.333 -8.16699 42.833 -24.5 58.5s-37.5 23.5 -63.5 23.5c-25.333 0 -46 -7.83301 -62 -23.5s-24 -35.167 -24 -58.5c0 -24 8 -43.833 24 -59.5s37 -23.5 63 -23.5z" />
    <glyph glyph-name="seven.sups" unicode="&#x2077;" horiz-adv-x="305" 
d="M293 850v-46l-155 -354h-67l151 345h-211v55h282z" />
    <glyph glyph-name="eight.sups" unicode="&#x2078;" horiz-adv-x="350" 
d="M255 667c48 -20.667 72 -55.667 72 -105c0 -34.667 -13.833 -63.5 -41.5 -86.5s-64.167 -34.5 -109.5 -34.5c-46 0 -83 11.5 -111 34.5s-42 51.833 -42 86.5c0 49.333 24.333 84.333 73 105c-37.333 19.333 -56 48.333 -56 87c0 30 12.5 55.167 37.5 75.5
s57.833 30.5 98.5 30.5c39.333 0 71.5 -10.167 96.5 -30.5s37.5 -45.5 37.5 -75.5c0 -38.667 -18.333 -67.667 -55 -87zM176 807c-24 0 -42.667 -5.66895 -56 -17.002s-20 -25.666 -20 -42.999s6.66699 -31.666 20 -42.999s32 -17 56 -17c22 0 40 5.66699 54 17
s21 25.666 21 42.999c0 16.667 -7 30.834 -21 42.501s-32 17.5 -54 17.5zM176 493.998c26.667 0 48 7 64 21s24 31.333 24 52s-8 37.834 -24 51.501s-37.333 20.5 -64 20.5c-27.333 0 -49.166 -6.83301 -65.499 -20.5s-24.5 -30.834 -24.5 -51.501
c0 -21.333 8.16699 -38.833 24.5 -52.5s38.166 -20.5 65.499 -20.5z" />
    <glyph glyph-name="nine.sups" unicode="&#x2079;" horiz-adv-x="367" 
d="M183 860c43.333 0 79 -13.334 107 -40.001s42 -59.667 42 -99c-0.666992 -29.333 -11.334 -59.666 -32.001 -90.999l-119 -180h-67l90 138c-9.33301 -2 -19.333 -3 -30 -3c-40 0.666992 -73 14 -99 40s-39 58 -39 96c0 39.333 13.833 72.333 41.5 99
s62.834 40 105.501 40zM184 638.999c25.333 0 45.999 7.83301 61.999 23.5s24 35.167 24 58.5c0 24 -8 44 -24 60s-37 24 -63 24c-25.333 0 -46.166 -8 -62.499 -24s-24.5 -36 -24.5 -60c0 -23.333 8.16699 -42.833 24.5 -58.5s37.5 -23.5 63.5 -23.5z" />
    <glyph glyph-name="zero.sinf" unicode="&#x2080;" horiz-adv-x="386" 
d="M193 -160c-51.333 0 -91.6689 19.333 -121.002 58s-44 89.334 -44 152.001c0 63.333 14.5 114.166 43.5 152.499s69.5 57.5 121.5 57.5c50.667 0 90.834 -19.167 120.501 -57.5s44.5 -89.166 44.5 -152.499c0 -62.667 -14.667 -113.334 -44 -152.001
s-69.666 -58 -120.999 -58zM192.997 -100c32.667 0 57.5 13.501 74.5 40.501s25.5 63.5 25.5 109.5s-8.5 82.5 -25.5 109.5s-41.833 40.5 -74.5 40.5s-57.334 -13.5 -74.001 -40.5s-25 -63.5 -25 -109.5c0 -46.667 8.33301 -83.334 25 -110.001s41.334 -40 74.001 -40z" />
    <glyph glyph-name="one.sinf" unicode="&#x2081;" horiz-adv-x="243" 
d="M185 250v-400h-62v328l-100 -48l-15 55l123 65h54z" />
    <glyph glyph-name="two.sinf" unicode="&#x2082;" horiz-adv-x="339" 
d="M312 -94v-56h-289v43l160 153c20 19.333 34.333 35.333 43 48s13 26.334 13 41.001c0 20.667 -6.5 37.167 -19.5 49.5s-31.167 18.5 -54.5 18.5c-44.667 0 -72.334 -25 -83.001 -75l-59 16c4.66699 32 19.834 59.333 45.501 82s57.5 34 95.5 34
c42 0 75.833 -11 101.5 -33s38.5 -52 38.5 -90c0 -23.333 -5.83301 -43.833 -17.5 -61.5s-29.5 -37.834 -53.5 -60.501l-114 -109h193z" />
    <glyph glyph-name="three.sinf" unicode="&#x2083;" horiz-adv-x="350" 
d="M212 96c33.333 -4 60.165 -17.167 80.498 -39.5s30.5 -49.833 30.5 -82.5c0 -38 -13.5 -69.833 -40.5 -95.5s-61.5 -38.5 -103.5 -38.5c-45.333 0 -81.166 11.667 -107.499 35s-42.5 52 -48.5 86l57 16c4 -24 14.833 -43.667 32.5 -59s39.167 -23 64.5 -23
c26 0 46.667 7.66699 62 23s23 34 23 56s-7.5 40.333 -22.5 55s-36.5 22 -64.5 22c-5.33301 0 -14.666 -0.666992 -27.999 -2l-10 38l95 108h-197v55h274v-46z" />
    <glyph glyph-name="four.sinf" unicode="&#x2084;" horiz-adv-x="346" 
d="M328 -66h-52v-84h-60v84h-203v48l144 268h67l-139 -260h131v89h60v-89h52v-56z" />
    <glyph glyph-name="five.sinf" unicode="&#x2085;" horiz-adv-x="343" 
d="M183 103c39.333 0 71.334 -12 96.001 -36s37 -55.667 37 -95c0 -38 -13.333 -69.5 -40 -94.5s-60.667 -37.5 -102 -37.5c-40.667 0 -74.167 10.5 -100.5 31.5s-43.166 46.833 -50.499 77.5l55 15c7.33301 -20 19.166 -36.5 35.499 -49.5s35.833 -19.5 58.5 -19.5
c26 0 46.333 7.33301 61 22s22 33.334 22 56.001c0 23.333 -7.33301 42.166 -22 56.499s-35 21.5 -61 21.5c-34.667 0 -64.334 -9 -89.001 -27l-45 15l18 211h242v-55h-189l-10 -110c25.333 12 53.333 18 84 18z" />
    <glyph glyph-name="six.sinf" unicode="&#x2086;" horiz-adv-x="331" 
d="M176 115c40 -0.666992 72.834 -14 98.501 -40s38.5 -58 38.5 -96c0 -39.333 -13.833 -72.333 -41.5 -99s-62.834 -40 -105.501 -40c-43.333 0 -79 13.333 -107 40s-41.667 59.667 -41 99c0 28.667 10.333 59 31 91l119 180h67l-90 -138c6.66699 2 17 3 31 3z
M166.001 -105c25.333 0 46.167 8 62.5 24s24.5 36 24.5 60c0 23.333 -8.16699 42.833 -24.5 58.5s-37.5 23.5 -63.5 23.5c-25.333 0 -46 -7.83301 -62 -23.5s-24 -35.167 -24 -58.5c0 -24 8 -44 24 -60s37 -24 63 -24z" />
    <glyph glyph-name="seven.sinf" unicode="&#x2087;" horiz-adv-x="305" 
d="M293 250v-46l-155 -354h-67l151 345h-211v55h282z" />
    <glyph glyph-name="eight.sinf" unicode="&#x2088;" horiz-adv-x="350" 
d="M255 67c48 -20.667 72 -55.667 72 -105c0 -35.333 -13.833 -64.5 -41.5 -87.5s-64.167 -34.5 -109.5 -34.5c-46 0 -83 11.5 -111 34.5s-42 52.167 -42 87.5c0 49.333 24.333 84.333 73 105c-37.333 19.333 -56 48.333 -56 87c0 30 12.5 55.167 37.5 75.5
s57.833 30.5 98.5 30.5c39.333 0 71.5 -10.167 96.5 -30.5s37.5 -45.5 37.5 -75.5c0 -38.667 -18.333 -67.667 -55 -87zM176 207c-24 0 -42.667 -5.66895 -56 -17.002s-20 -25.666 -20 -42.999s6.66699 -31.666 20 -42.999s32 -17 56 -17c22 0 40 5.66699 54 17
s21 25.666 21 42.999c0 16.667 -7 30.834 -21 42.501s-32 17.5 -54 17.5zM176 -106.002c26.667 0 48 7 64 21s24 31.333 24 52s-8 37.834 -24 51.501s-37.333 20.5 -64 20.5c-27.333 0 -49.166 -6.83301 -65.499 -20.5s-24.5 -30.834 -24.5 -51.501
c0 -21.333 8.16699 -38.833 24.5 -52.5s38.166 -20.5 65.499 -20.5z" />
    <glyph glyph-name="nine.sinf" unicode="&#x2089;" horiz-adv-x="331" 
d="M165 260c43.333 0 78.999 -13.334 106.999 -40.001s41.667 -59.667 41 -99c0 -27.333 -10.333 -57.666 -31 -90.999l-119 -180h-67l90 138c-6.66699 -2 -17 -3 -31 -3c-40 0.666992 -72.833 14 -98.5 40s-38.5 58 -38.5 96c0 39.333 13.833 72.333 41.5 99
s62.834 40 105.501 40zM165.999 38.999c25.333 0 45.999 7.83301 61.999 23.5s24 35.167 24 58.5c0 24 -8 44 -24 60s-37 24 -63 24c-25.333 0 -46.166 -8 -62.499 -24s-24.5 -36 -24.5 -60c0 -23.333 8.16699 -42.833 24.5 -58.5s37.5 -23.5 63.5 -23.5z" />
    <glyph glyph-name="franc" unicode="&#x20a3;" horiz-adv-x="613" 
d="M179 627v-233h349v-71h-349v-126h190v-53h-190v-144h-80v144h-58v53h58v503h458v-73h-378z" />
    <glyph glyph-name="lira" unicode="&#x20a4;" horiz-adv-x="646" 
d="M608 74l-0.000976562 -74h-560v74h95v162h-77v53h77v67h-77v53h77v107c0 63.333 18.333 112.333 55 147s85.334 52 146.001 52c58 0 105.833 -16.333 143.5 -49s61.167 -72.667 70.5 -120l-70 -20c-22 78 -70.333 117 -145 117c-38.667 0 -68.667 -11.5 -90 -34.5
s-32 -55.167 -32 -96.5v-103h255v-53h-255v-67h255v-53h-255v-162h387z" />
    <glyph glyph-name="Euro" unicode="&#x20ac;" horiz-adv-x="756" 
d="M711 63c-63.333 -50.667 -139.333 -75.999 -228 -75.999c-86.667 0 -162 25.167 -226 75.5s-106 115.833 -126 196.5h-100v53h91c-1.33301 17.333 -2 30.666 -2 39.999s0.666992 22 2 38h-91v53h100c20 80 62 145 126 195s139 75 225 75
c87.333 0 163.333 -24.667 228 -74l-48 -61c-50 40 -110 60 -180 60c-66 0 -122.833 -18 -170.5 -54s-80.5 -83 -98.5 -141h321v-53h-332c-1.33301 -16 -2 -28.333 -2 -37c0 -14 1 -27.667 3 -41h331v-53h-320c18 -58.667 50.833 -106.167 98.5 -142.5
s104.167 -54.5 169.5 -54.5c72 0 132.667 20.333 182 61z" />
    <glyph glyph-name="uni20BF" unicode="&#x20bf;" horiz-adv-x="669" 
d="M495 366c39.333 -13.333 70 -35.167 92 -65.5s33 -65.833 33 -106.5c0 -56 -20 -102.333 -60 -139s-94.333 -55 -163 -55h-40v-130h-63v130h-79v-130h-62v130h-130v71h80v558h-80v71h130v130h62v-130h79v130h63v-130h18c62.667 0 114 -17 154 -51s60.667 -77.667 62 -131
c0.666992 -35.333 -7.5 -66 -24.5 -92s-40.833 -46 -71.5 -60zM182 628.999v-237h199c40 0 71.833 11.5 95.5 34.5s35.5 51.167 35.5 84.5c0 34 -12.833 62.167 -38.5 84.5s-59.5 33.5 -101.5 33.5h-190zM394 70.999c44.667 0 80.333 12.5 107 37.5s40 55.5 40 91.5
c0 34 -13 63.667 -39 89s-61 38 -105 38h-215v-256h212z" />
    <glyph glyph-name="uni2116" unicode="&#x2116;" horiz-adv-x="1073" 
d="M884 400c-44.667 0 -82.5 15.167 -113.5 45.5s-46.5 67.5 -46.5 111.5s15.5 81 46.5 111s68.833 45 113.5 45s82.334 -15 113.001 -45s46 -67 46 -111s-15.333 -81.167 -46 -111.5s-68.334 -45.5 -113.001 -45.5zM569 700h79v-700h-69l-424 560v-560h-80v700h69l425 -561
v561zM884 652c-28 0 -51.167 -9.16699 -69.5 -27.5s-27.5 -40.833 -27.5 -67.5s9.16699 -49.334 27.5 -68.001s41.5 -28 69.5 -28c27.333 0 50 9.33301 68 28s27.333 41.334 28 68.001s-8.33301 49.167 -27 67.5s-41.667 27.5 -69 27.5zM742 335h284v-61h-284v61z" />
    <glyph glyph-name="trademark" unicode="&#x2122;" horiz-adv-x="713" 
d="M141 651h-111v49h275v-49h-111v-271h-53v271zM343 700h52l111 -158l109 158h53v-320h-52v235l-109 -155l-113 155v-235h-51v320z" />
    <glyph glyph-name="estimated" unicode="&#x212e;" horiz-adv-x="849" 
d="M434 -11c-112 0 -205.331 34.832 -279.998 104.499s-112 155.834 -112 258.501c0 99.333 37.333 184.166 112 254.499s165 105.5 271 105.5s196.167 -35.167 270.5 -105.5s111.5 -155.166 111.5 -254.499v-16h-615v-211c60 -70.667 140.667 -106 242 -106
c93.333 0 169.666 31.333 228.999 94h79c-84.667 -82.667 -187.334 -124 -308.001 -124zM657.002 365.999v210c-60 70.667 -137.333 106 -232 106c-95.333 0 -173 -35.333 -233 -106v-210h465z" />
    <glyph glyph-name="oneeighth" unicode="&#x215b;" horiz-adv-x="780" 
d="M123 628l-100 -48l-15 55l123 65h54v-400h-62v328zM588 700l-437 -700h-65l437 700h65zM686 217c48 -20.667 72 -55.667 72 -105c0 -34.667 -13.833 -63.667 -41.5 -87s-64.167 -35 -109.5 -35c-46 0 -83 11.667 -111 35s-42 52.333 -42 87
c0 49.333 24.333 84.333 73 105c-37.333 19.333 -56 48.333 -56 87c0 30 12.5 55.167 37.5 75.5s57.833 30.5 98.5 30.5c39.333 0 71.5 -10.167 96.5 -30.5s37.5 -45.5 37.5 -75.5c0 -38.667 -18.333 -67.667 -55 -87zM607 357c-24 0 -42.667 -5.66895 -56 -17.002
s-20 -25.666 -20 -42.999s6.66699 -31.666 20 -42.999s32 -17 56 -17c22 0 40 5.66699 54 17s21 25.666 21 42.999c0 16.667 -7 30.834 -21 42.501s-32 17.5 -54 17.5zM607 43.998c26.667 0 48 7 64 21s24 31.333 24 52s-8 37.834 -24 51.501s-37.333 20.5 -64 20.5
c-27.333 0 -49.166 -6.83301 -65.499 -20.5s-24.5 -30.834 -24.5 -51.501c0 -21.333 8.16699 -38.833 24.5 -52.5s38.166 -20.5 65.499 -20.5z" />
    <glyph glyph-name="threeeighths" unicode="&#x215c;" horiz-adv-x="887" 
d="M323 424c0 -37.333 -13.501 -68.833 -40.501 -94.5s-61.5 -38.5 -103.5 -38.5c-45.333 0 -81.166 11.667 -107.499 35s-42.5 51.666 -48.5 84.999l57 16c4 -23.333 14.833 -42.666 32.5 -57.999s39.167 -23 64.5 -23c26 0 46.667 7.5 62 22.5s23 33.5 23 55.5
s-7.5 40.333 -22.5 55s-36.5 22 -64.5 22c-5.33301 0 -14.666 -0.666992 -27.999 -2l-10 38l95 108h-197v55h274v-46l-97 -108c33.333 -4 60.166 -17.167 80.499 -39.5s30.5 -49.833 30.5 -82.5zM694.999 700l-437 -700h-65l437 700h65zM792.999 217
c48 -20.667 72 -55.667 72 -105c0 -34.667 -13.833 -63.667 -41.5 -87s-64.167 -35 -109.5 -35c-46 0 -83 11.667 -111 35s-42 52.333 -42 87c0 49.333 24.333 84.333 73 105c-37.333 19.333 -56 48.333 -56 87c0 30 12.5 55.167 37.5 75.5s57.833 30.5 98.5 30.5
c39.333 0 71.5 -10.167 96.5 -30.5s37.5 -45.5 37.5 -75.5c0 -38.667 -18.333 -67.667 -55 -87zM713.999 357c-24 0 -42.667 -5.66895 -56 -17.002s-20 -25.666 -20 -42.999s6.66699 -31.666 20 -42.999s32 -17 56 -17c22 0 40 5.66699 54 17s21 25.666 21 42.999
c0 16.667 -7 30.834 -21 42.501s-32 17.5 -54 17.5zM713.999 43.998c26.667 0 48 7 64 21s24 31.333 24 52s-8 37.834 -24 51.501s-37.333 20.5 -64 20.5c-27.333 0 -49.166 -6.83301 -65.499 -20.5s-24.5 -30.834 -24.5 -51.501c0 -21.333 8.16699 -38.833 24.5 -52.5
s38.166 -20.5 65.499 -20.5z" />
    <glyph glyph-name="fiveeighths" unicode="&#x215d;" horiz-adv-x="880" 
d="M316 422c0 -38 -13.166 -69.332 -39.499 -93.999s-60.5 -37 -102.5 -37c-40.667 0 -74 10.5 -100 31.5s-43 46.5 -51 76.5l55 15c16.667 -45.333 48 -68 94 -68c26 0 46.333 7.33301 61 22s22 33 22 55c0 23.333 -7.33301 42.166 -22 56.499s-35 21.5 -61 21.5
c-34.667 0 -64.334 -9 -89.001 -27l-45 15l18 211h242v-55h-189l-10 -110c25.333 12 53.333 18 84 18c39.333 0 71.333 -12 96 -36s37 -55.667 37 -95zM688.001 700.001l-437 -700h-65l437 700h65zM786.001 217.001c48 -20.667 72 -55.667 72 -105
c0 -34.667 -13.833 -63.667 -41.5 -87s-64.167 -35 -109.5 -35c-46 0 -83 11.667 -111 35s-42 52.333 -42 87c0 49.333 24.333 84.333 73 105c-37.333 19.333 -56 48.333 -56 87c0 30 12.5 55.167 37.5 75.5s57.833 30.5 98.5 30.5c39.333 0 71.5 -10.167 96.5 -30.5
s37.5 -45.5 37.5 -75.5c0 -38.667 -18.333 -67.667 -55 -87zM707.001 357.001c-24 0 -42.667 -5.66895 -56 -17.002s-20 -25.666 -20 -42.999s6.66699 -31.666 20 -42.999s32 -17 56 -17c22 0 40 5.66699 54 17s21 25.666 21 42.999c0 16.667 -7 30.834 -21 42.501
s-32 17.5 -54 17.5zM707.001 43.999c26.667 0 48 7 64 21s24 31.333 24 52s-8 37.834 -24 51.501s-37.333 20.5 -64 20.5c-27.333 0 -49.166 -6.83301 -65.499 -20.5s-24.5 -30.834 -24.5 -51.501c0 -21.333 8.16699 -38.833 24.5 -52.5s38.166 -20.5 65.499 -20.5z" />
    <glyph glyph-name="seveneighths" unicode="&#x215e;" horiz-adv-x="842" 
d="M293 654l-155 -354h-67l151 345h-211v55h282v-46zM650 700l-437 -700h-65l437 700h65zM748 217c48 -20.667 72 -55.667 72 -105c0 -34.667 -13.833 -63.667 -41.5 -87s-64.167 -35 -109.5 -35c-46 0 -83 11.667 -111 35s-42 52.333 -42 87c0 49.333 24.333 84.333 73 105
c-37.333 19.333 -56 48.333 -56 87c0 30 12.5 55.167 37.5 75.5s57.833 30.5 98.5 30.5c39.333 0 71.5 -10.167 96.5 -30.5s37.5 -45.5 37.5 -75.5c0 -38.667 -18.333 -67.667 -55 -87zM669 357c-24 0 -42.667 -5.66895 -56 -17.002s-20 -25.666 -20 -42.999
s6.66699 -31.666 20 -42.999s32 -17 56 -17c22 0 40 5.66699 54 17s21 25.666 21 42.999c0 16.667 -7 30.834 -21 42.501s-32 17.5 -54 17.5zM669 43.998c26.667 0 48 7 64 21s24 31.333 24 52s-8 37.834 -24 51.501s-37.333 20.5 -64 20.5
c-27.333 0 -49.166 -6.83301 -65.499 -20.5s-24.5 -30.834 -24.5 -51.501c0 -21.333 8.16699 -38.833 24.5 -52.5s38.166 -20.5 65.499 -20.5z" />
    <glyph glyph-name="arrowleft" unicode="&#x2190;" horiz-adv-x="853" 
d="M783 309l-580 -1l236 -235l-50 -49l-319 319l319 319l50 -49l-237 -235l581 -1v-68z" />
    <glyph glyph-name="arrowup" unicode="&#x2191;" horiz-adv-x="779" 
d="M659 345l-232 233l-1 -578h-73v579l-233 -234l-50 49l319 319l320 -319z" />
    <glyph glyph-name="arrowright" unicode="&#x2192;" horiz-adv-x="853" 
d="M783 344l-319 -319l-50 49l237 235l-581 1v68l580 1l-236 235l50 49z" />
    <glyph glyph-name="arrowdown" unicode="&#x2193;" horiz-adv-x="779" 
d="M709 306l-320 -319l-319 319l50 49l233 -234v579h73l1 -578l232 233z" />
    <glyph glyph-name="arrowboth" unicode="&#x2194;" horiz-adv-x="1127" 
d="M1057 344l-319 -319l-50 49l237 235h-723l237 -235l-50 -49l-319 319l319 319l50 -49l-236 -235h721l-236 235l50 49z" />
    <glyph glyph-name="arrowupdn" unicode="&#x2195;" horiz-adv-x="779" 
d="M659 214l50 -50l-320 -318l-319 318l50 50l233 -234v702l-233 -234l-50 50l319 318l320 -318l-50 -50l-232 233l-1 -350l1 -350z" />
    <glyph glyph-name="uni2196" unicode="&#x2196;" horiz-adv-x="669" 
d="M549 79l-409 409v-330l-70 -1v452h451l1 -70l-333 1l410 -410z" />
    <glyph glyph-name="uni2197" unicode="&#x2197;" horiz-adv-x="670" 
d="M600 613v-451h-70l1 332l-410 -410l-51 51l410 409l-331 -1v70h451z" />
    <glyph glyph-name="uni2198" unicode="&#x2198;" horiz-adv-x="669" 
d="M599 541v-451h-451v70l331 -1l-409 409l51 52l409 -410l-1 331h70z" />
    <glyph glyph-name="uni2199" unicode="&#x2199;" horiz-adv-x="670" 
d="M521 149l1 -70h-452v451h70l-1 -332l410 410l51 -51l-410 -409z" />
    <glyph glyph-name="partialdiff" unicode="&#x2202;" horiz-adv-x="640" 
d="M307 -15c-70.667 0 -130.333 24 -179 72s-73 107.333 -73 178c0 67.333 23.167 123.666 69.5 168.999s105.5 68 177.5 68c86.667 0 155 -27.333 205 -82c-5.33301 72 -27.333 132.667 -66 182s-88.667 74 -150 74c-66 0 -124 -24 -174 -72l-19 70
c56 47.333 122 71 198 71c88 0 158.167 -34.5 210.5 -103.5s78.5 -159.833 78.5 -272.5c0 -107.333 -25.333 -193.166 -76 -257.499s-118 -96.5 -202 -96.5zM309.001 56c57.333 0 104.169 24 140.502 72s55.166 107 56.499 177c-21.333 28 -49.333 51.333 -84 70
s-73.334 28 -116.001 28c-49.333 0 -90.833 -16.5 -124.5 -49.5s-50.5 -72.5 -50.5 -118.5c0 -50 16.833 -92.333 50.5 -127s76.167 -52 127.5 -52z" />
    <glyph glyph-name="emptyset" unicode="&#x2205;" horiz-adv-x="528" 
d="M447 469c34 -42.667 51 -92.332 51 -148.999c0 -66 -22.5 -121.667 -67.5 -167s-100.5 -68 -166.5 -68c-57.333 0 -107 17.333 -149 52l-60 -60l-35 34l61 61c-33.333 43.333 -50 92.666 -50 147.999c0 66 22.333 121.667 67 167s100 68 166 68
c57.333 0 107 -17.333 149 -52l61 61l34 -34zM94 320.002c0 -38.667 11.001 -72.666 33.001 -101.999l241 240c-30.667 22 -65.334 33 -104.001 33c-48 0 -88.333 -16.333 -121 -49s-49 -73.334 -49 -122.001zM436.001 320.003c0 38 -11.333 72.667 -34 104l-241 -241
c30.667 -22 65 -33 103 -33c48.667 0 89.5 16.333 122.5 49s49.5 73 49.5 121z" />
    <glyph glyph-name="product" unicode="&#x220f;" horiz-adv-x="641" 
d="M571 -210h-77v869h-347v-869h-77v940h501v-940z" />
    <glyph glyph-name="summation" unicode="&#x2211;" horiz-adv-x="653" 
d="M598 -130v-70h-543v62l310 411l-293 395v62h507v-70h-409l285 -388l-302 -402h445z" />
    <glyph glyph-name="minus" unicode="&#x2212;" horiz-adv-x="553" 
d="M70 383h413v-65h-413v65z" />
    <glyph glyph-name="radical" unicode="&#x221a;" horiz-adv-x="680" 
d="M675 790l-267 -881h-82l-157 415h-114v67h169l140 -385l233 784h78z" />
    <glyph glyph-name="infinity" unicode="&#x221e;" horiz-adv-x="891" 
d="M649 538c51.333 0 95.333 -18.5 132 -55.5s55 -81.167 55 -132.5c0 -52 -18.333 -96.167 -55 -132.5s-80.667 -54.5 -132 -54.5c-76.667 0 -144.334 42.333 -203.001 127c-58.667 -84.667 -126.667 -127 -204 -127c-51.333 0 -95.333 18.167 -132 54.5
s-55 80.5 -55 132.5c0 51.333 18.333 95.5 55 132.5s80.667 55.5 132 55.5c77.333 0 145.333 -43.333 204 -130c58.667 86.667 126.334 130 203.001 130zM246 228c55.333 0 110.333 40.333 165 121c-54.667 80.667 -109.667 121 -165 121c-33.333 0 -62 -11.667 -86 -35
s-36 -52 -36 -86c0 -33.333 12 -61.833 36 -85.5s52.667 -35.5 86 -35.5zM646 228c33.333 0 61.833 11.833 85.5 35.5s35.5 52.167 35.5 85.5s-12 61.833 -36 85.5s-52.333 35.5 -85 35.5c-56 0 -111.333 -40.333 -166 -121c54.667 -80.667 110 -121 166 -121z" />
    <glyph glyph-name="integral" unicode="&#x222b;" horiz-adv-x="548" 
d="M110 -156c-46.667 0 -83.332 12 -109.999 36l30 64c21.333 -20 47.333 -30 78 -30c47.333 0 76.666 39.333 87.999 118l80 572c17.333 123.333 71.666 185 162.999 185c46.667 0 83 -12 109 -36l-30 -64c-18.667 20 -44.667 30 -78 30
c-49.333 0 -79.666 -38.667 -90.999 -116l-80 -572c-16.667 -124.667 -69.667 -187 -159 -187z" />
    <glyph glyph-name="approxequal" unicode="&#x2248;" horiz-adv-x="609" 
d="M70 391c0 34.667 9.83301 63.668 29.5 87.001s49.834 35 90.501 35c26 0 52.833 -6.83301 80.5 -20.5s53.5 -27.167 77.5 -40.5s44.667 -20 62 -20c40 0 60 24.667 60 74l69 -20c0 -34.667 -9.66699 -63.834 -29 -87.501s-49 -35.5 -89 -35.5
c-26.667 0 -53.834 6.83301 -81.501 20.5s-53.5 27.167 -77.5 40.5s-44.667 20 -62 20c-40.667 0 -61 -24.333 -61 -73zM70 219.001c0 34.667 9.83301 63.501 29.5 86.501s49.834 34.5 90.501 34.5c26 0 52.833 -6.66699 80.5 -20s53.5 -26.833 77.5 -40.5
s44.667 -20.5 62 -20.5c40 0 60 24.667 60 74l69 -20c0 -34.667 -9.66699 -63.667 -29 -87s-49 -35 -89 -35c-26.667 0 -53.834 6.66699 -81.501 20s-53.5 26.666 -77.5 39.999s-44.667 20 -62 20c-40.667 0 -61 -24 -61 -72z" />
    <glyph glyph-name="notequal" unicode="&#x2260;" horiz-adv-x="554" 
d="M484 224h-233l-63 -144h-59l63 144h-120v65h149l54 123h-205v65h233l63 143h59l-63 -143h121v-65h-149l-54 -123h204v-65z" />
    <glyph glyph-name="lessequal" unicode="&#x2264;" horiz-adv-x="558" 
d="M483 551l-332 -128l332 -129v-72l-413 164v73l413 164v-72zM70 162h413v-65h-413v65z" />
    <glyph glyph-name="greaterequal" unicode="&#x2265;" horiz-adv-x="558" 
d="M488 459v-73l-413 -164v72l332 129l-332 128v72zM75 162h413v-65h-413v65z" />
    <glyph glyph-name="lozenge" unicode="&#x25ca;" horiz-adv-x="585" 
d="M530 350l-195 -350h-84l-196 350l196 350h84zM447 350l-154 278l-155 -278l155 -278z" />
    <glyph glyph-name=".null" horiz-adv-x="0" 
 />
    <glyph glyph-name="nonmarkingreturn" horiz-adv-x="333" 
 />
    <glyph glyph-name="i.loclTRK" horiz-adv-x="228" 
d="M113 575c-15.333 0 -28.166 5 -38.499 15s-15.5 22.667 -15.5 38c0 14.667 5.16699 27 15.5 37s23.166 15 38.499 15s28.166 -5 38.499 -15s15.5 -22.333 15.5 -37c0 -15.333 -5.16699 -28 -15.5 -38s-23.166 -15 -38.499 -15zM75 499h78v-499h-78v499z" />
    <glyph glyph-name="f_f_j" horiz-adv-x="890" 
d="M826 -47c0 -55.333 -12.499 -98.5 -37.499 -129.5s-62.167 -46.5 -111.5 -46.5c-26.667 0 -54 6.66699 -82 20l19 64c17.333 -10.667 36.333 -16 57 -16c52 0 78 34.667 78 104v480h-232v-429h-77v429h-233v-429h-76v429h-105v70h105v66c0 56.667 14 100.5 42 131.5
s69.667 46.5 125 46.5c39.333 0 73 -7 101 -21l-20 -65c-22 11.333 -46.667 17 -74 17c-32 0 -56.333 -9.5 -73 -28.5s-25 -46.5 -25 -82.5v-64h233v66c0 56.667 15.167 100.5 45.5 131.5s74.833 46.5 133.5 46.5c61.333 0 114.333 -17.333 159 -52l-20 -65
c-42.667 32 -87.334 48 -134.001 48c-71.333 0 -107 -37 -107 -111v-64h309v-546z" />
    <glyph glyph-name="f_j" horiz-adv-x="581" 
d="M517 -47c0 -55.333 -12.5 -98.5 -37.5 -129.5s-62.167 -46.5 -111.5 -46.5c-26.667 0 -54 6.66699 -82 20l19 64c16 -10.667 35 -16 57 -16c26 0 45.5 9.16699 58.5 27.5s19.5 43.833 19.5 76.5v480h-233v-429h-76v429h-105v70h105v66c0 56.667 15 100.5 45 131.5
s74.333 46.5 133 46.5c62 0 115 -17.333 159 -52l-19 -65c-42.667 32 -87.334 48 -134.001 48c-35.333 0 -62.166 -9.5 -80.499 -28.5s-27.5 -46.5 -27.5 -82.5v-64h310v-546z" />
    <glyph glyph-name="f_t" horiz-adv-x="724" 
d="M685 15c-34 -14.667 -68.668 -21.999 -104.001 -21.999c-48.667 0 -85.167 14.167 -109.5 42.5s-36.5 67.166 -36.5 116.499v277h-228v-429h-76v429h-105v70h105v66c0 56.667 13.5 100.5 40.5 131.5s66.833 46.5 119.5 46.5c32 0 59.667 -4.66699 83 -14l-19 -64
c-18 6 -37 9 -57 9c-60.667 0 -91 -37 -91 -111v-64h228v172h77v-172h171v-70h-171v-277c0 -58.667 27 -88 81 -88c24.667 0 48.334 5.66699 71.001 17z" />
    <glyph glyph-name="t_t" horiz-adv-x="724" 
d="M686 15c-35.333 -14.667 -70.001 -21.998 -104.001 -21.998c-48.667 0 -85.334 14.167 -110.001 42.5s-37 67.166 -37 116.499v277h-238v-277c0 -58.667 27 -88 81 -88c24.667 0 48.334 5.66699 71.001 17l21 -66c-34 -14.667 -68.667 -22 -104 -22
c-48.667 0 -85.167 14.167 -109.5 42.5s-36.5 67.166 -36.5 116.499v277h-99v70h99v172h77v-172h238v172h77v-172h172v-70h-172v-277c0 -58.667 27.333 -88 82 -88c24.667 0 48.334 5.66699 71.001 17z" />
    <glyph glyph-name="zero.tf" horiz-adv-x="581" 
d="M295 -13c-86.667 0 -154 33.667 -202 101s-72 154.666 -72 261.999c0 108 24 195.5 72 262.5s115.333 100.5 202 100.5s153.834 -33.5 201.501 -100.5s71.5 -154.5 71.5 -262.5c0 -107.333 -23.833 -194.666 -71.5 -261.999s-114.834 -101 -201.501 -101zM295 61
c62 0 109.667 26 143 78s50 122.333 50 211s-16.667 159 -50 211s-81 78 -143 78s-109.833 -26 -143.5 -78s-50.5 -122.333 -50.5 -211s16.833 -159 50.5 -211s81.5 -78 143.5 -78z" />
    <glyph glyph-name="one.tf" horiz-adv-x="581" 
d="M519 73v-73h-445v73h195v535l-175 -85l-20 69l209 108h67v-627h169z" />
    <glyph glyph-name="two.tf" horiz-adv-x="581" 
d="M536 73v-73h-479v59l279 269c38 36.667 65.667 67.334 83 92.001s26 51.334 26 80.001c0 43.333 -13.5 77.5 -40.5 102.5s-64.167 37.5 -111.5 37.5c-41.333 0 -76.333 -12.333 -105 -37s-47.667 -58 -57 -100l-72 20c8 52 33.333 96.667 76 134s95 56 157 56
c68.667 0 124.334 -18.833 167.001 -56.5s64 -89.167 64 -154.5c0 -40.667 -10.833 -77.334 -32.5 -110.001s-54.834 -70.334 -99.501 -113.001l-215 -206h360z" />
    <glyph glyph-name="three.tf" horiz-adv-x="581" 
d="M326 425c65.333 0 117.667 -19.5 157 -58.5s59 -90.167 59 -153.5c0 -64 -23.167 -118 -69.5 -162s-104.5 -66 -174.5 -66c-74 0 -133.167 19.333 -177.5 58s-72.5 85.334 -84.5 140.001l72 20c8.66699 -42 29.667 -76.833 63 -104.5s74.666 -41.5 123.999 -41.5
c52.667 0 94.167 15.167 124.5 45.5s45.5 67.166 45.5 110.499s-13.667 79 -41 107s-63.666 42 -108.999 42c-34 0 -64.333 -9 -91 -27l-15 53l202 240h-355v72h459v-59z" />
    <glyph glyph-name="four.tf" horiz-adv-x="581" 
d="M557 155h-96v-155h-80v155h-362v60l261 485h86l-254 -473h269v177h80v-177h96v-72z" />
    <glyph glyph-name="five.tf" horiz-adv-x="581" 
d="M309 446c70 0 127.333 -21.002 172 -63.002s67 -97 67 -165c0 -65.333 -23.167 -120.166 -69.5 -164.499s-104.833 -66.5 -175.5 -66.5c-68.667 0 -124.5 17.833 -167.5 53.5s-71.833 80.167 -86.5 133.5l72 19c12.667 -40 34.167 -72.333 64.5 -97s68.5 -37 114.5 -37
c51.333 0 92.5 15.333 123.5 46s46.5 68.667 46.5 114c0 46.667 -15 84.834 -45 114.501s-71.667 44.5 -125 44.5c-62 0 -116.667 -19.333 -164 -58l-60 19l30 361h406v-72h-335l-19 -223c42.667 27.333 93 41 151 41z" />
    <glyph glyph-name="six.tf" horiz-adv-x="581" 
d="M304 462c71.333 -1.33301 129.5 -24.5 174.5 -69.5s67.5 -100.833 67.5 -167.5c0 -67.333 -23.333 -123.833 -70 -169.5s-106.667 -68.5 -180 -68.5s-133.5 22.833 -180.5 68.5s-70.5 102.167 -70.5 169.5c0 49.333 19 103 57 161l210 314h90l-167 -250c20 8 43 12 69 12
zM296 60c50.667 0 92 15.667 124 47s48 70.666 48 117.999s-16 86.833 -48 118.5s-73.667 47.5 -125 47.5c-50.667 0 -92 -15.833 -124 -47.5s-48 -71.167 -48 -118.5s16 -86.666 48 -117.999s73.667 -47 125 -47z" />
    <glyph glyph-name="seven.tf" horiz-adv-x="581" 
d="M533 700v-60l-285 -640h-85l280 627h-391v73h481z" />
    <glyph glyph-name="eight.tf" horiz-adv-x="581" 
d="M426 379c40.667 -16.667 72.5 -40.667 95.5 -72s34.5 -68 34.5 -110c0 -60.667 -23.667 -110.834 -71 -150.501s-109 -59.5 -185 -59.5c-76.667 0 -138.667 19.833 -186 59.5s-71 89.834 -71 150.501c0 42 11.5 78.667 34.5 110s54.833 55.333 95.5 72
c-31.333 15.333 -55.833 36 -73.5 62s-26.5 55.667 -26.5 89c0 51.333 20.833 94.666 62.5 129.999s96.5 53 164.5 53c67.333 0 121.833 -17.667 163.5 -53s62.5 -78.666 62.5 -129.999c0 -33.333 -8.83301 -63 -26.5 -89s-42.167 -46.667 -73.5 -62zM300 645
c-46 0 -82.333 -11.167 -109 -33.5s-40 -50.833 -40 -85.5s13.333 -63.167 40 -85.5s63 -33.5 109 -33.5c45.333 0 81.333 11.167 108 33.5s40 50.833 40 85.5s-13.333 63.167 -40 85.5s-62.667 33.5 -108 33.5zM300 57c52.667 0 95.332 13.667 127.999 41s49 61.333 49 102
c0 41.333 -16.167 75.333 -48.5 102s-75.166 40 -128.499 40c-54 0 -97 -13.333 -129 -40s-48 -60.667 -48 -102s16 -75.5 48 -102.5s75 -40.5 129 -40.5z" />
    <glyph glyph-name="nine.tf" horiz-adv-x="581" 
d="M298 713c73.333 0 133.5 -22.833 180.5 -68.5s70.5 -102.167 70.5 -169.5c0 -49.333 -19 -103 -57 -161l-210 -314h-90l167 250c-20.667 -8 -43.667 -11.667 -69 -11c-71.333 0.666992 -129.5 23.5 -174.5 68.5s-67.5 100.833 -67.5 167.5
c0 67.333 23.333 123.833 70 169.5s106.667 68.5 180 68.5zM299 310c50.667 0 92 15.8311 124 47.498s48 70.834 48 117.501c0 47.333 -16 86.666 -48 117.999s-73.667 47 -125 47c-50.667 0 -92 -15.667 -124 -47s-48 -70.666 -48 -117.999s16 -86.666 48 -117.999
s73.667 -47 125 -47z" />
    <glyph glyph-name="zero.dnom" horiz-adv-x="386" 
d="M193 -10c-51.333 0 -91.6689 19.333 -121.002 58s-44 89.334 -44 152.001c0 63.333 14.5 114.166 43.5 152.499s69.5 57.5 121.5 57.5c50.667 0 90.834 -19.167 120.501 -57.5s44.5 -89.166 44.5 -152.499c0 -62.667 -14.667 -113.334 -44 -152.001
s-69.666 -58 -120.999 -58zM192.997 51c32.667 0 57.5 13.333 74.5 40s25.5 63 25.5 109s-8.5 82.5 -25.5 109.5s-41.833 40.5 -74.5 40.5s-57.334 -13.5 -74.001 -40.5s-25 -63.5 -25 -109.5c0 -46.667 8.33301 -83.167 25 -109.5s41.334 -39.5 74.001 -39.5z" />
    <glyph glyph-name="one.dnom" horiz-adv-x="243" 
d="M185 400v-400h-62v328l-100 -48l-15 55l123 65h54z" />
    <glyph glyph-name="two.dnom" horiz-adv-x="339" 
d="M312 56v-56h-289v43l160 153c20 19.333 34.333 35.333 43 48s13 26.334 13 41.001c0 20.667 -6.5 37.167 -19.5 49.5s-31.167 18.5 -54.5 18.5c-44.667 0 -72.334 -25 -83.001 -75l-59 16c4.66699 32 19.834 59.333 45.501 82s57.5 34 95.5 34c42 0 75.833 -11 101.5 -33
s38.5 -52 38.5 -90c0 -23.333 -5.83301 -43.833 -17.5 -61.5s-29.5 -37.834 -53.5 -60.501l-114 -109h193z" />
    <glyph glyph-name="three.dnom" horiz-adv-x="350" 
d="M212 246c33.333 -4 60.165 -17.168 80.498 -39.501s30.5 -49.833 30.5 -82.5c0 -37.333 -13.5 -69 -40.5 -95s-61.5 -39 -103.5 -39c-45.333 0 -81.166 11.833 -107.499 35.5s-42.5 52.167 -48.5 85.5l57 16c4 -23.333 14.833 -42.666 32.5 -57.999s39.167 -23 64.5 -23
c26 0 46.667 7.5 62 22.5s23 33.5 23 55.5s-7.5 40.333 -22.5 55s-36.5 22 -64.5 22c-5.33301 0 -14.666 -0.666992 -27.999 -2l-10 38l95 108h-197v55h274v-46z" />
    <glyph glyph-name="four.dnom" horiz-adv-x="346" 
d="M328 84h-52v-84h-60v84h-203v49l144 267h67l-139 -260h131v89h60v-89h52v-56z" />
    <glyph glyph-name="five.dnom" horiz-adv-x="343" 
d="M183 253c39.333 0 71.334 -11.999 96.001 -35.999s37 -55.667 37 -95c0 -38 -13.333 -69.5 -40 -94.5s-60.667 -37.5 -102 -37.5c-40.667 0 -74 10.667 -100 32s-43 47 -51 77l55 15c16.667 -45.333 48 -68 94 -68c26 0 46.333 7.33301 61 22s22 33 22 55
c0 23.333 -7.33301 42.166 -22 56.499s-35 21.5 -61 21.5c-34.667 0 -64.334 -9 -89.001 -27l-45 15l18 211h242v-55h-189l-10 -110c25.333 12 53.333 18 84 18z" />
    <glyph glyph-name="six.dnom" horiz-adv-x="331" 
d="M176 265c40 -0.666992 72.834 -14 98.501 -40s38.5 -58 38.5 -96c0 -39.333 -13.833 -72.333 -41.5 -99s-62.834 -40 -105.501 -40c-43.333 0 -79 13.333 -107 40s-41.667 59.667 -41 99c0 28.667 10.333 59 31 91l119 180h67l-90 -138c6.66699 2 17 3 31 3zM166.001 46
c26 0 47 7.83301 63 23.5s24 35.5 24 59.5c0 23.333 -8.16699 42.833 -24.5 58.5s-37.5 23.5 -63.5 23.5c-25.333 0 -46 -7.83301 -62 -23.5s-24 -35.167 -24 -58.5c0 -24 8 -43.833 24 -59.5s37 -23.5 63 -23.5z" />
    <glyph glyph-name="seven.dnom" horiz-adv-x="305" 
d="M293 400v-46l-155 -354h-67l151 345h-211v55h282z" />
    <glyph glyph-name="eight.dnom" horiz-adv-x="350" 
d="M255 217c48 -20.667 72 -55.667 72 -105c0 -34.667 -13.833 -63.667 -41.5 -87s-64.167 -35 -109.5 -35c-46 0 -83 11.667 -111 35s-42 52.333 -42 87c0 49.333 24.333 84.333 73 105c-37.333 19.333 -56 48.333 -56 87c0 30 12.5 55.167 37.5 75.5
s57.833 30.5 98.5 30.5c39.333 0 71.5 -10.167 96.5 -30.5s37.5 -45.5 37.5 -75.5c0 -38.667 -18.333 -67.667 -55 -87zM176 357c-24 0 -42.667 -5.66895 -56 -17.002s-20 -25.666 -20 -42.999s6.66699 -31.666 20 -42.999s32 -17 56 -17c22 0 40 5.66699 54 17
s21 25.666 21 42.999c0 16.667 -7 30.834 -21 42.501s-32 17.5 -54 17.5zM176 43.998c26.667 0 48 7 64 21s24 31.333 24 52s-8 37.834 -24 51.501s-37.333 20.5 -64 20.5c-27.333 0 -49.166 -6.83301 -65.499 -20.5s-24.5 -30.834 -24.5 -51.501
c0 -21.333 8.16699 -38.833 24.5 -52.5s38.166 -20.5 65.499 -20.5z" />
    <glyph glyph-name="nine.dnom" horiz-adv-x="367" 
d="M183 410c43.333 0 79 -13.334 107 -40.001s42 -59.667 42 -99c-0.666992 -29.333 -11.334 -59.666 -32.001 -90.999l-119 -180h-67l90 138c-9.33301 -2 -19.333 -3 -30 -3c-40 0.666992 -73 14 -99 40s-39 58 -39 96c0 39.333 13.833 72.333 41.5 99
s62.834 40 105.501 40zM184 188.999c25.333 0 45.999 7.83301 61.999 23.5s24 35.167 24 58.5c0 24 -8 44 -24 60s-37 24 -63 24c-25.333 0 -46.166 -8 -62.499 -24s-24.5 -36 -24.5 -60c0 -23.333 8.16699 -42.833 24.5 -58.5s37.5 -23.5 63.5 -23.5z" />
    <glyph glyph-name="zero.numr" horiz-adv-x="386" 
d="M193 291c-51.333 0 -91.6689 19.167 -121.002 57.5s-44 88.833 -44 151.5c0 63.333 14.5 114.166 43.5 152.499s69.5 57.5 121.5 57.5c50.667 0 90.834 -19.167 120.501 -57.5s44.5 -89.166 44.5 -152.499c0 -62.667 -14.667 -113.167 -44 -151.5
s-69.666 -57.5 -120.999 -57.5zM192.997 351c32.667 0 57.5 13.333 74.5 40s25.5 63 25.5 109s-8.5 82.5 -25.5 109.5s-41.833 40.5 -74.5 40.5s-57.334 -13.5 -74.001 -40.5s-25 -63.5 -25 -109.5c0 -46.667 8.33301 -83.167 25 -109.5s41.334 -39.5 74.001 -39.5z" />
    <glyph glyph-name="one.numr" horiz-adv-x="243" 
d="M185 700v-400h-62v328l-100 -48l-15 55l123 65h54z" />
    <glyph glyph-name="two.numr" horiz-adv-x="339" 
d="M312 356v-56h-289v43l160 153c20 19.333 34.333 35.333 43 48s13 26.334 13 41.001c0 20.667 -6.5 37.167 -19.5 49.5s-31.167 18.5 -54.5 18.5c-44.667 0 -72.334 -25 -83.001 -75l-59 16c4.66699 32 19.834 59.333 45.501 82s57.5 34 95.5 34
c42 0 75.833 -11 101.5 -33s38.5 -52 38.5 -90c0 -23.333 -5.83301 -43.833 -17.5 -61.5s-29.5 -37.834 -53.5 -60.501l-114 -109h193z" />
    <glyph glyph-name="three.numr" horiz-adv-x="350" 
d="M212 546c33.333 -4 60.165 -17.167 80.498 -39.5s30.5 -49.833 30.5 -82.5c0 -37.333 -13.5 -68.833 -40.5 -94.5s-61.5 -38.5 -103.5 -38.5c-45.333 0 -81.166 11.667 -107.499 35s-42.5 51.666 -48.5 84.999l57 16c4 -23.333 14.833 -42.666 32.5 -57.999
s39.167 -23 64.5 -23c26 0 46.667 7.5 62 22.5s23 33.5 23 55.5s-7.5 40.333 -22.5 55s-36.5 22 -64.5 22c-5.33301 0 -14.666 -0.666992 -27.999 -2l-10 38l95 108h-197v55h274v-46z" />
    <glyph glyph-name="four.numr" horiz-adv-x="346" 
d="M328 384h-52v-84h-60v84h-203v49l144 267h67l-139 -260h131v89h60v-89h52v-56z" />
    <glyph glyph-name="five.numr" horiz-adv-x="343" 
d="M183 553c39.333 0 71.334 -11.999 96.001 -35.999s37 -55.667 37 -95c0 -38 -13.167 -69.333 -39.5 -94s-60.5 -37 -102.5 -37c-40.667 0 -74 10.5 -100 31.5s-43 46.5 -51 76.5l55 15c16.667 -45.333 48 -68 94 -68c26 0 46.333 7.33301 61 22s22 33 22 55
c0 23.333 -7.33301 42.166 -22 56.499s-35 21.5 -61 21.5c-34.667 0 -64.334 -9 -89.001 -27l-45 15l18 211h242v-55h-189l-10 -110c25.333 12 53.333 18 84 18z" />
    <glyph glyph-name="six.numr" horiz-adv-x="331" 
d="M176 565c40 -0.666992 72.832 -14 98.499 -40s38.5 -58 38.5 -96c0 -39.333 -13.667 -72.166 -41 -98.499s-62.666 -39.5 -105.999 -39.5s-79 13.167 -107 39.5s-41.667 59.166 -41 98.499c0 28.667 10.333 59 31 91l119 180h67l-90 -138c6.66699 2 17 3 31 3z
M165.999 346c26 0 47 7.83301 63 23.5s24 35.5 24 59.5c0 23.333 -8.16699 42.833 -24.5 58.5s-37.5 23.5 -63.5 23.5c-25.333 0 -46 -7.83301 -62 -23.5s-24 -35.167 -24 -58.5c0 -24 8 -43.833 24 -59.5s37 -23.5 63 -23.5z" />
    <glyph glyph-name="seven.numr" horiz-adv-x="305" 
d="M293 700v-46l-155 -354h-67l151 345h-211v55h282z" />
    <glyph glyph-name="eight.numr" horiz-adv-x="350" 
d="M255 517c48 -20.667 72 -55.667 72 -105c0 -34.667 -13.833 -63.5 -41.5 -86.5s-64.167 -34.5 -109.5 -34.5c-46 0 -83 11.5 -111 34.5s-42 51.833 -42 86.5c0 49.333 24.333 84.333 73 105c-37.333 19.333 -56 48.333 -56 87c0 30 12.5 55.167 37.5 75.5
s57.833 30.5 98.5 30.5c39.333 0 71.5 -10.167 96.5 -30.5s37.5 -45.5 37.5 -75.5c0 -38.667 -18.333 -67.667 -55 -87zM176 657c-24 0 -42.667 -5.66895 -56 -17.002s-20 -25.666 -20 -42.999s6.66699 -31.666 20 -42.999s32 -17 56 -17c22 0 40 5.66699 54 17
s21 25.666 21 42.999c0 16.667 -7 30.834 -21 42.501s-32 17.5 -54 17.5zM176 343.998c26.667 0 48 7 64 21s24 31.333 24 52s-8 37.834 -24 51.501s-37.333 20.5 -64 20.5c-27.333 0 -49.166 -6.83301 -65.499 -20.5s-24.5 -30.834 -24.5 -51.501
c0 -21.333 8.16699 -38.833 24.5 -52.5s38.166 -20.5 65.499 -20.5z" />
    <glyph glyph-name="nine.numr" horiz-adv-x="367" 
d="M183 710c43.333 0 79 -13.334 107 -40.001s42 -59.667 42 -99c-0.666992 -29.333 -11.334 -59.666 -32.001 -90.999l-119 -180h-67l90 138c-9.33301 -2 -19.333 -3 -30 -3c-40 0.666992 -73 14 -99 40s-39 58 -39 96c0 39.333 13.833 72.333 41.5 99
s62.834 40 105.501 40zM184 488.999c25.333 0 45.999 7.83301 61.999 23.5s24 35.167 24 58.5c0 24 -8 44 -24 60s-37 24 -63 24c-25.333 0 -46.166 -8 -62.499 -24s-24.5 -36 -24.5 -60c0 -23.333 8.16699 -42.833 24.5 -58.5s37.5 -23.5 63.5 -23.5z" />
    <glyph glyph-name="uni0424.001" horiz-adv-x="826" 
d="M764 402c0 -90 -29.832 -162.167 -89.499 -216.5s-133.834 -86.166 -222.501 -95.499v-90h-77v88c-60 3.33301 -114.667 17 -164 41s-89.833 59.667 -121.5 107s-47.5 102.666 -47.5 165.999c0 49.333 10 94 30 134s47 72.667 81 98s72.333 44.833 115 58.5
s87.667 20.5 135 20.5s92.333 -6.83301 135 -20.5s81 -33.167 115 -58.5s61 -58 81 -98s30 -84.667 30 -134zM122.001 402c0 -71.333 24 -127.833 72 -169.5s108.333 -65.167 181 -70.5v476c-72.667 -5.33301 -133 -28.5 -181 -69.5s-72 -96.5 -72 -166.5zM452.001 164
c68 8.66699 123.667 33.5 167 74.5s65 95.5 65 163.5c0 66.667 -21.667 120.167 -65 160.5s-99 64.833 -167 73.5v-472z" />
    <glyph glyph-name="uni0430.ss01" horiz-adv-x="541" 
d="M447 0l-57 135h-238l-58 -135h-83l217 499h85l217 -499h-83zM181 205h179l-89 210z" />
    <glyph glyph-name="uni0431.ss01" horiz-adv-x="517" 
d="M292 340c54 0 97.833 -17.168 131.5 -51.501s50.5 -73.5 50.5 -117.5c0 -43.333 -16.667 -82.666 -50 -117.999s-76.333 -53 -129 -53h-220v499h357v-70h-280v-89h140zM294 69.999c32.667 0 59.167 9.33301 79.5 28s30.5 43 30.5 73s-10 54 -30 72s-47.667 27 -83 27
h-139v-200h142z" />
    <glyph glyph-name="brevecombcy" horiz-adv-x="0" 
 />
    </font>
</defs>
</svg>
